/* XPM */
static char *result[] = {
/* columns rows colors chars-per-pixel */
"128 128 23 1 ",
"  c #000001",
". c #005A5A",
"X c #005B5B",
"o c #005C5C",
"O c #006F6F",
"+ c #007373",
"@ c #007777",
"# c #007B7B",
"$ c #007F7F",
"% c #008787",
"& c #008F8F",
"* c #009B9B",
"= c #009F9F",
"- c #00A7A7",
"; c #23B3B3",
": c #23B7B7",
"> c #4BC3C3",
", c #77CBCB",
"< c #9EDEDE",
"1 c #9FDFDF",
"2 c #BBEBEB",
"3 c #DBF7F7",
"4 c None",
/* pixels */
"44444444444444444444444444444444444444444444444444444444444444444444444444444444444444444444444444444444444444444444444444444444",
"44444444444444444444444444444444444444444444444444444444444444444444444444444444444444444444444444444444444444444444444444444444",
"44+OOOOOOOOOOOOOOOOOOOOOOOOOOOOOOOOOOOOOOOOOOOOOOOOOOOOOOO444444444444+OOOOOOOOOOOOOOOOOOOOOOOOOOOOOOOOOOOOOOOOOOOOOOOOOOOOOOO44",
"44+@@@@@@@@@@@@@@@@@@@@@@@@@@@@@@@@@@@@@@@@@@@@@@@@@@@@@@@444444444444+@@@@@@@@@@@@@@@@@@@@@@@@@@@@@@@@@@@@@@@@@@@@@@@@@@@@@@@44",
"44+######################################################@444444444444+######################################################@44",
"44+%%%%%%%%%%%%%$;>%%%%%%%%%%$;>%%%%%%%%%%$;>%%%%%%%%%%%%#444444444444+%%%%%%%%%%%%%$;>%%%%%%%%%%$;>%%%%%%%%%%$;>%%%%%%%%%%%%#44",
"44+%%%%%%%%%%%%$@&-%%%%%%%%%$@&-%%%%%%%%%$@&-%%%%%%%%%%%%#444444444444+%%%%%%%%%%%%$@&-%%%%%%%%%$@&-%%%%%%%%%$@&-%%%%%%%%%%%%#44",
"44+***********&$@O$********&$@O$********&$@O$*********&&&%444444444444+***********&$@O$********&$@O$********&$@O$************%44",
"44+-----------&$$$&--------&$$$&--------&$$$&--------&&&&%444444444444+-----------&$$$&--------&$$$&--------&$$$&------------%44",
"44+-----------*&&&*--------*&&&*--------*&&&*-------&&&&&%444444444444+-----------*&&&*--------*&&&*--------*&&&*------------%44",
"44+;;;;;;;;;*OXXXXXXXXXXXXXXXXXXXXXXXXXXXXXXXXXX+**&&&&&&&444444444444+;;;;;;;;;*OXXXXXXXXXXXXXXXXXXXXXXXXXXXXXXXXXX+;;;;;;;;*44",
"44+;;;;;;;;;>*XXXXXXXXXXXXXXXXXXXXXXXXXXXXXXXXXX+*&&&&&&&&444444444444+;;;;;;;;;>*XXXXXXXXXXXXXXXXXXXXXXXXXXXXXXXXXX+;;;;;;;;*44",
"44+;;;;;;;;;>>&&%%%%$%$$$$###++@@@O+++@@+@@####X+&&&&&&&&&444444444444+;;;;;;;;;>>$$$$$&&&&&&&&&******;;;;;;;;;;;>;X+;;;;;;;;*44",
"44+;;;;;;;;;>>&%%%%$%$$$$###++@@@O+++@@+@@#####X+&&&&&&&&&444444444444+;;;;;;;;;>>-*-;;;;:;;:::>>:>>>>,,,,1,,111221X+;;;;;;;;*44",
"44+;;;-13;;;>>&%%%%$%$$$###++#@@O++++++@@#@@###X+&%%$;>&&&444444444444+;;;-13;;;>>-----;;;;::::::>>>>>,,,,1,1111111X+;;;-13;;*44",
"44#;;;&:1;;;>>%%%%$$$$#$##++@@@OO++++@@@@#@####X+&%$O&-&&&444444444444#;;;&:1;;;>>--;;;;;;:::>:>>>>,,,,,,1111121221X+;;;&:1;;*44",
"44#;;-$&*;;;>>%%$%$$$$###++#@@O+++@@@@@#####$$#X+&&$OO$&&&444444444444#;;-$&*;;;>>;;;;:;::::>>:>>>,,,,,1,1111221221X+;;-$&*;;*44",
"44+;--*&-;;;>>%%%%$$$$##++#@@+++++@+@@#@@###$$#X+&&$$$&&**444444444444+;--*&-;;;>>;-;;;;::::>:>>>>>,,,,,,1111112221X+;--*&-;;*44",
"44+;;---;;;;>>%$$$$$###++@@@@+++++@@@@@@###$$$$X+&&&&&&***444444444444+;;---;;;;>>;-;;;:::::>>>>,>,,,,111111122222>X+;;---;;;*44",
"44+;;;;;;;;;>>$$#$$###++#@@@+++@+@@@@####$$$$%$X+&&&&&**-*444444444444+;;;;;;;;;>>;::::::>>>>>>,,,,,11111122222222>X+;;;;;;;;*44",
"44+;;;;;;;;;>>%$$$$##++#@@++++@@+@@#@####$$$%%$X+&&&&**--*444444444444+;;;;;;;;;>>;;;::::>:>>>>,,,,1,,111121222111>X+;;;;;;;;*44",
"44+;;;;;;;;;>>$$$###++@@@@++++++@@#@@####$$$$$%X+&&&**--;*444444444444+;;;;;;;;;>>;;:::::>>>>>>,,,,1,1111122222111>X+;;;;;;;;*44",
"44+;;;;;;;;;>>$$###++@@@@+++++@@@@#@##$$#$$$%%%X+&&**--;;*444444444444+;;;;;;;;;>>::::>:>>>>,,,,,,1111121222222121:X+;;;;;;;;*44",
"44+;;;;;;;;;>>$###++#@@++++@@@@@######$$$%%%%%%X+&**--;;;*444444444444+;;;;;;;;;>>:::>>:>>>>,,,,1,1111221222211111*X+;;;;;;;;*44",
"44+;;;;;;;;;>>###++#@@@@+++@+@@#@@###$$$$%$%%%%X+**--;;;;*444444444444+;;;;;;;;;>>:::::>>>>>,,,,,,1111112222111,,,*X+;;;;;;;;*44",
"44+;;;;;;;;;>>##++@@@@+++++@@@@@@###$$$$$%%%%%%X#*--;;;;-*444444444444+;;;;;;;;;>>:::>>>>,>,,,,1111111222221121,1,*X#;;;;;;;;*44",
"44+;;;;;;;;;>>#++#@@++++@@@@@@#####$$$%$%%%%&&&X#--;;;;-=*444444444444+;;;;;;;;;>>>>>>>>,,,,,1,1111222222211111,,,*X#;;;;;;;;*44",
"44+;;;;;;;;;>>++#@@++++@@+@@#@###$$$$%%$%%%%&*&X+-;;;;-=-*444444444444+;;;;;;;;;>>>:>>>>>,,,1,,1111212222121,1,,,,&X+;;;;;;;;*44",
"44+;;;;;;;;;>>+@@@@++++++@@@@@###$$#$$$%%%%%&&&X+;;;;-=-;*444444444444+;;;;;;;;;>>>>>>>>,,,,1,11111222221121,1,,>,&X+;;;;;;;;*44",
"44+;;;;;;;;;>>@@@++++@+@@@@#####$$$$$%%%%&&&&&&X+;;;-=-;;*444444444444+;;;;;;;;;>>>>>,,,,,1111112222222111111,,>,,&X+;;;;;;;;*44",
"44+;;;-13;;;>>@@++++@@+@@#####$$$$%%%%%%&&****&X+;;--13;;*444444444444+;;;-13;;;>>>>>,,,,1,,111221222222111,,,,>,>&X+;;;-13;;*44",
"44+;;;&:1;;;>>@@++++@+@@#@@###$$$$%$%%%%%&&&***XO;-=&:1;;*444444444444+;;;&:1;;;>>>>>,,,,,,11111122211111,,,,>>>>>&XO;;;@:1;;*44",
"44+;;;$&*;;->>@+++++@@@@#@####$$$$%%%%%&&&&****XO-=-$&*;;*444444444444+;;-$&*;;;>>,>,,,,1111121222221111,1,,>,,>>>%XO;;-O@*;;*44",
"44+;;;;--;-->>+++@@@@@@####$$#$%%%%%%&&&*****-*XO==-*&-;;*444444444444+;--*&-;;;>>,,,,1,1111221222222111,,,,,,>>>>&XO;--*&-;;*44",
"44+;;;;;;--*>>++@@+@@#@####$$#%%$%%%%&&&&***--*XO=----;;;*444444444444+;;---;;;;>>,,,1,,11112122221111,,,,,>>>>>:>%XO;;---;;;*44",
"44+;;;;;--**>>++++@@@@@###$$$$$$%%%%&&&&&&****-XO-;;;;;;;*444444444444+;;;;;;;;;>>,,,1,1111122222111,,1,,>,>>>>::>%XO;;;;;;;;*44",
"44+;;;;--**&>>@+@@@@####$$$$%$%%%%&&&*******---XO;;;;;;;;*444444444444+;;;;;;;;;>>,1111112222222222111,,,,,>>>>:>:%XO;;;;;;;;*44",
"44+;;;--**&&>>@+@@######$$$%%$%%%&&&&&***------XO;;;;;;;;*444444444444+;;;;;;;;;>>1,,111221222111111,,,,>>>>>>::::%XO;;;;;;;;*44",
"44+;;--**&&&>>+@@#@@####$$$%$%%%%&*&&****-*----XO;;;;;;;;*444444444444+;;;;;;;;;>>1,1111112222111,,1,,>>>>>>:::;::%XO;;;;;;;;*44",
"44+;--**&&&&>>@@@#@###$#$$$%%%%&%&*&*****------XO;;;;;;;;*444444444444+;;;;;;;;;>>111121222222121,1,,>,,>>>>:>:;::%XO;;;;;;;;*44",
"44+--**&&&&&>>@######$$$%%%%%%&&&&&***------;;;XO;;;;;;;;*444444444444+;;;;;;;;;>>111221222211111,,,,>,>>>>>:::;;;%XO;;;;;;;;*44",
"44#-**&&&&&&>>#@@###$$$%%$%%%%&*&&*&*--*----;;;XO;;;;;;;;*444444444444#;;;;;;;;;>>111112222121,,,,,,>>>>>:>:;::;;;$XO;;;;;;;;*44",
"44#**&&&&&&&>>@@###$$$$$$%%%%%&&&******-----;;;XO;;;;;;;;*444444444444#;;;;;;;;;>>111222221121,1,,>,>>>>::>:;::;;;$XO;;;;;;;;*44",
"44+*&&&&&&&&>,####$$$%$%%%%&&&&&***-*----;;;;;;XO;;;;;;;;*444444444444+;;;;;;;;;>,2222222111111,,,,,>>>>:::::;;;;;$XO;;;;;;;;*44",
"44+&&&&&&&&&,1##$$$$%%$%%%&&*&****--*---;;;;::;XO;;;;;;;;*444444444444+;;;;;;;;;,1212222121,1,,,,>>>>>>>:;::;;;---$XO;;;;;;;;*44",
"44+&&&&&&&&&11##$$#$$$%%%%%&&&****-*-----;;;::;XO;;;;;;;;*444444444444+;;;;;;;;;11222221121,1,,>>>>>>::::;:;;;----$XO;;;;;;;;*44",
"44+&%%$;>&&&11#$$$$$%%%%&&&&&&****----;-;;;;:::XO;;;-13;;*444444444444+;;;-13;;;112222111111,,>,,>>>>:>:::;;;;;---$XO;;;-13;;*44",
"44O&%$O&-&&&22$$$%%%%%%&&******------;;;;::::>:XX;;;&:1;;*444444444444O;;;&:1;;;2222222111,,,,>,>>>>>:::::;;-;----$XX;;*O:1;;*44",
"44O&&$OO$&&*22$$$%$%%%%%&&&***--*----;;;;::;>::XX;;-$&*;;*444444444444O;;-$&*;;;22211111,,,,>>>>>>::::;;;;;-----**$XX;;&O@*;;*44",
"44O&&$$$&&**22$$$%%%%%&&&&******-----;;;;:::>:>XX;--*&-;;*444444444444O;--*&-;;;2221111,1,,>,,>>>:::;::;;;;----*--$XX;-&&&-;-*44",
"44O&&&&&&**-22%$%%%%&&&*****-*----;;;;::::>>>>>XX;;---;;;*444444444444O;;---;;;;2222211,,,,,,>>>>>>::::;;;;----*-*$XX;;---;--*44",
"44O&&&&&**--22%$%%%%&&&&***--*---;;;;;::::::>>>XX;;;;;;;;*444444444444O;;;;;;;;;221111,,,,>>>>>:>:::;;;;------****$XX;;;;;--**44",
"44O&&&&**--;22%%%%%&&&&&&****-----;;;;;::::>>>>XX;;;;;;;;*444444444444O;;;;;;;;;221,,1,,>,>>>>::>;::;;;-----*-****+XX;;;;--**&44",
"44O&&&**--;;22%%%&%&*******----;-;;;::::>>>>>,>XX;;;;;;;;*444444444444O;;;;;;;;;22111,,>,,>>>>:>::::;;;;------*&**$XX;;;--**&&44",
"44O&&**--;;;11%%%&&&&***------;;;;;:::>:>>>>,,>XX;;;;;;;;*444444444444O;;;;;;;;;111,,,,>,>>>>::::;;;;-;----****&&&+XX;;--**&&&44",
"44O&**--;;;;1,%%%&&&****-*-----;;;:;:>::>>>>,>,XX;;;;;;;;*444444444444O;;;;;;;;;1,1,,>>>>>>:::;::;;;-----******&&&OXX;--**&&&&44",
"44O**--;;;;;,,&&&&&*****------;;;::;:>:>>>>>,,,XX;;;;;;;;*444444444444O;;;;;;;;;,,,,>,,>>>::>:;::;;;;---*--****&*&OXX--**&&&&&44",
"44O*--;;;;;;,,&****&*-*----;;;;;:::::>>>>,,,,,,XX;;;;;;;;*444444444444O;;;;;;;;;,,>,>,>>>>>>::;;;;;;----*-***&&&&&OXX-**&&&&&&44",
"44O--;;;;;;;,,&&&****-*----;;;::;:>::>>>,,>,,1,XX;;;;;;;;*444444444444O;;;;;;;;;,,>>>>>>:>:;::;;;-----******&*&%%%OXX**&&&&&&&44",
"44O-;;;;;;;;,,&&*****------;;;::;:>:>>>>>>,,,,,XX;;;;;;;;*444444444444O;;;;;;;;;,,>>>>>::>:;:;;;;----*--*&*&&*&%%%OXX*&&&&&&&&44",
"44O;;;;;;;;;,,****-*----;-;;;;:::>>>>>,>,,,,111XX;;;;;;;;*444444444444O;;;;;;;;;,,,>>>>:::::;;;;;------***&&&&&%%%OXX&&&&&&&&&44",
"44O;;;;;;;;;,,***--*----;;;::;:>:>>>>,,>,,11121XX;;;;;;;;*444444444444O;;;;;;;;;,,>>>>>:;::;;;-;----*****&*&%&%%%%OXX&&&&&&&&&44",
"44O;;;-13;;;,,*****-----;;;::;:::>>>>>>,,1,,111XX;;;-13;;*444444444444O;;;-13;;;,,>>::::;:;;;-----*-****&&*&%%%%$$OXX&%%$;>&&&44",
"44X;;;&:1;;;,,*-*----;-;;:;::::>>>>>>,,,,111111XX;;;&:1;;*444444444444X;;;&:1;;;,,>>>>:::;;;;;---*--***&&&&&%%%$%%OXX&%$O&-&&&44",
"44X;;-$&*;;;,,--*---;;;;;:::>>>>>>,,,,,11122222XX;;-$&*;;*444444444444X;;-$&*;;;,,>::::;:;;-;----*-*****&&&%%%%$%$OXX&&$OO$&&*44",
"44X;--*&-;;;,,-*-----;;;:;::::>>>>,>,,1,,111222XX;--*&-;;*444444444444X;--*&-;;;,,::;::;;;-----*****&&&&&%%%%$$$$$OXX&&$$$&&**44",
"44X;;---;;;;,,----;-;;;::;:>>>>>>>,,,,,11112222XX;;---;;;*444444444444X;;---;;;;,,>:;::;;;----*--***&&&&%%%%$%%#$$OXX&&&&&&***44",
"44o;;;;;;;;;,,---;;;;;:::::>>>>,>,,,,1112222221XX;;;;;;;;*444444444444X;;;;;;;;;,,::;;;;-;----*-******&&%%%%%%$#$$OXX&&&&&**-*44",
"44X;;;;;;;;;,,---;;;;:;:>::>>>>,>,,1,1111222221XX;;;;;;;;*444444444444X;;;;;;;;;,,::;;;------*****&&&&&%%%%$$$$###OXX&&&&**--*44",
"44X;;;;;;;;;,,---;;;::;:>:>>>>>,,,1,11111222111XX;;;;;;;;*444444444444X;;;;;;;;;,,::;;;----*-****&&&%%%%%$%$$$$###OXX&&&**--;*44",
"44X;;;;;;;;;,,;;;;;;::>>>>>>,>,,,,1,12222221221XX;;;;;;;;*444444444444X;;;;;;;;;,,;;;;;----*-*&****&&%%%$%%$$$$###OXX&&**--;;*44",
"44X;;;;;;;;;,,;;;::;:>::>>>,,>,,1,1111222222211XX;;;;;;;;*444444444444X;;;;;;;;;,,;;------*****&&&&&%%%%$%$$$#####OXX&**--;;;*44",
"44X;;;;;;;;;,,;;;::;:::>>>>>>,,1,,1112222211111XX;;;;;;;;*444444444444X;;;;;;;;;,,;-----*-****&&&%%%%%$$$##$###@@@OXX**--;;;;*44",
"44X;;;;;;;;;,,;;;::::>>>>,>,,,,111112222121111,XX;;;;;;;;*444444444444X;;;;;;;;;,,;;------***&&&&%%%%$%%$$$####@#@OXX*--;;;;-*44",
"44X;;;;;;;;;,,::::>:>>>>,,>,,11122222221221111,XX;;;;;;;;*444444444444X;;;;;;;;;,,;----*******&%&%%%%$%$$$#####@@@OXX--;;;;-=*44",
"44X;;;;;;;;;,,::;>::>>>>,>,,1,,111222221211111,XX;;;;;;;;*444444444444X;;;;;;;;;,,---****&&&&&&%%%%%$$$$$###@#@@@@OXX-;;;;-=-*44",
"44X;;;;;;;;;,,:::>:>>>>>,,,,111112222121111,,,,XX;;;;;;;;*444444444444X;;;;;;;;;,,--*--***&&&&%%%%$%$$$$###@@#@@+@OXX;;;;-=-;*44",
"44.;;;;;;;;;,,:>>>>>>,,,,,,112222222122111,,1,,XX;;;;;;;;*444444444444X;;;;;;;;;,,--*-*****&&&%%%%$%$$$######@@+@@OXX;;;-=-;;*44",
"44X;;;-13;;;,,:::>>>,,>,,1,11112222212111111,,,XX;;;-13;;*444444444444X;;;-13;;;,,******&&&&%%%%%$$$$#$##@#@@@@+@+OXX;;--13;;*44",
"44X;;;&:1;;;,,::>>>>>>,,,,11111222111111,,,,,,>XX;;;&:1;;*444444444444X;;;&:1;;;,,--***&&&%%%%%$%$$$$###@@#@@+++++OXX;-=&:1;;*44",
"44o;;-$&*;;;,,>>>>,>,,,,111222222122111,,1,,,>>XX;;-$&*;;*444444444444X;;-$&*;;;,,-******&&%%%%%%$$$$###@#@@+@@+++OXX-=-$&*;;*44",
"44.;--*&-;;;,,>>>,,>,,1111112222212111111,,,,,>XX;--*&-;;*444444444444X;--*&-;;;,,**&&&&&&%%%%$$$$$###@#@@@@+@+++@OXX==-*&-;;*44",
"44X;;---;;;;,,>>>>>,,1,12112222211111,1,,,,>>>>XX;;---;;;*444444444444X;;---;;;;,,**&&&%%%%%$$$#$$###@@#@@@+++++@@OXX=----;;;*44",
"44o;;;;;;;;;,,>>>,,,,1,1212222121111,,1,,,>>>>>XX;;;;;;;;*444444444444X;;;;;;;;;,,**&*&&%%%$%%$$$$###@#@@+@+++++@@OXX-;;;;;;;*44",
"44X;;;;;;;;;,,,,,,,1111112222222111111,,,,,>>>>XX;;;;;;;;*444444444444X;;;;;;;;;,,&&&&&%%%%$%$$$#####@@@@+@++++@@#OXX;;;;;;;;*44",
"44.;;;;;;;;;,,,>,,1,1211222221111111,,,,>,>>>>:XX;;;;;;;;*444444444444X;;;;;;;;;,,&&%%%%%$$$$$$###@@@@@@+++++@@@@+OXX;;;;;;;;*44",
"44X;;;;;;;;;,,,,,,,,1212222111111,,,,,,>>>>>:::XX;;;;;;;;*444444444444X;;;;;;;;;,,*&%%%%$%%$$$###@@#@@+@++++@@@#++OXX;;;;;;;;*44",
"44X;;;;;;;;;,,,,,1111122221221111,1,,,,,>>>:>>:XX;;;;;;;;*444444444444X;;;;;;;;;,,&&%%%%%%$$$######@@@@@++++@@#++#OXX;;;;;;;;*44",
"44X;;;;;;;;;,,,1,1212222221211111,,,,,,>>>>:>::XX;;;;;;;;*444444444444X;;;;;;;;;,,&%%%%$$$#$###@#@@@@+++++@@@@++##OXX;;;;;;;;*44",
"44X;;;;;;;;;,,1,,1112222111111,1,,,,>>>>>::::::XX;;;;;;;;*444444444444X;;;;;;;;;,,%%%$%$$$####@@#@@+++++@@@@@++###OXX;;;;;;;;*44",
"44X;;;;;;;;;,,111111222122111,,1,,,,>>>>:>>:::;XX;;;;;;;;*444444444444X;;;;;;;;;,,%%$%%$$$######@@+@@++++@@#++##$$OXX;;;;;;;;*44",
"44.;;;;;;;;;,,12222222222111111,,,,,>>>>>>:::::XX;;;;;;;;*444444444444X;;;;;;;;;,,%%$%$$$$####@@@@+@++++@@@++###$$OXX;;;;;;;;*44",
"44X;;;;;;;;;,,1112222211111,1,,,,>,>>>>:::::;;;XX;;;;;;;;*444444444444X;;;;;;;;;,,$$$$$$###@@@@@++++++@@@@++###$$$OXX;;;;;;;;*44",
"44X;;;;;;;;;,,112222121111,,1,,,>>>>>:>::::;;;;XX;;;;;;;;*444444444444X;;;;;;;;;,,%%#$$####@#@@+@@++++@@#++##$$$$%OXX;;;;;;;;*44",
"44X;;;-13;;;,,222221221111,1,,,,,>>>:>>::::;:;;XX;;;-13;;*444444444444X;;;-13;;;,,%$#$$####@@@@@@++++@@#++###$$$$%OXX;;;-13;;*44",
"44X;;;&:1;;;,,222221211111,,,,>,>>>>:>:::;;;;;;XX;;;&:1;;*444444444444X;;;&:1;;;,,$$####@#@@@@+++++@@@@++####$$$$%OXX;;;&:1;;*44",
"44X;;-$&*;;;,,222111111,,,,,,>>>>>::::::;;;;---XX;;-$&*;;*444444444444X;;;$&*;;-,,$$###@@#@@+@++++@@@@++##$$#$%%%%OXX;;-$&*;;*44",
"44X;--*&-;;;,,22122111,,1,,,,>>>>:>>:::;;:;;;;-XX;--*&-;;*444444444444X;;;;--;--,,$$#####@@+@@++++@@#++###$$#%%$%%OXX;--*&-;;*44",
"44X;;---;;;;,,2222111111,,,,,>>>>:>:::;;;;;;---XX;;---;;;*444444444444X;;;;;;--*,,#####@@@@+@++++@@@++###$$$$$$%%%OXX;;---;;;*44",
"44X;;;;;;;;;,,211111,1,,,,>>>>>>:::::;:;;;-----XX;;;;;;;;*44444444444 X;;;;;--**,,##@@@@@++++++@@@@++##$$$$%$%%%%&+XX;;;;;;;;*44",
"44o;;;;;;;;;,,21111,,1,,,>>>>>:>::::;;:;;;--*-*XX;;;;;;;;* 4444444444 X;;;;--**&,,##@#@@+@@++++@@#++###$$$%%$%%%&&+XX;;;;;;;;*44",
"44X;;;;;;;;;,,21111,1,,,,,>>>>>>:::;;;;;;-----*XX;;;;;;;;* 4444444444 X;;;--**&&,,##@@@@@@++++@@#++####$$$%$%%%%&*+XX;;;;;;;;*44",
"44X;;;;;;;;;,,11111,,,,>,>>>>:::::::;;;--;---**XX;;;;;;;;* 4444444444 X;;--**&&&,,@@@@@+++++@@@@++###$#$$$%%%%&%&*+XX;;;;;;;;*44",
"44X;;;;;;;;;,,11,,,,,,>>>>>::::::;;;-;;--**-***XX;;;;;;;;*44444444444 X;--**&&&&,,#@@+@+++@@@@#++###$$$%%%%%%&&&&&$XX;;;;;;;;*44",
"44X;;;;;;;;;,,11,1,,,,>>>>:>>:::;;;;-;-----***&XX;;;;;;;;*44444444444 X--**&&&&&,,@@@@@++++@@#++###$$$%%$%%%%&*&&*+XX;;;;;;;;*44",
"44X;;;;;;;;;,,11,,,,,,>>>>:>:::::;;;-;----*****XX;;;;;;;;*44444444444 X-**&&&&&&,,@@+++++@@@@++###$$$$$$%%%%%&&&**$XX;;;;;;;;*44",
"44o;;;;;;;;;,,1,,,,>>>>>>:::::;;;;;;---*****&*&XX;;;;;;;;*444444444444X**&&&&&&&,,++++++@@@@++###$$$%$%%%%&&&&&***$XX;;;;;;;;*44",
"44X;;;;;;;;;,,1,,,,>>>>:>::::;;;;-;----****&&*&XX;;;;;;;;*444444444444X*&&&&&&&&,,@@++++@@#++##$$$$%%$%%%&&*&****-$XX;;;;;;;;*44",
"44X;;;;;;;;;,,,,,,,>>>>>>::::::;;;;;---******&&XX;;;;;;;;*444444444444X&&&&&&&&&,,@+++@@@#++###$$#$$$%%%%%&&&****-$XX;;;;;;;;*44",
"44X;;;;;;;;;,,,,>,>>>>:::::;;;-;;---*-*****&&&&XX;;;;;;;;*444444444444X&&&&&&&&&,,+++@@@@++###$$$$$%%%%&&&&&&****-$XX;;;;;;;;*44",
"44X;;;-13;;;,,,>>>>>:>::::;;;;-;----****&&&&&&%XX;;;-13;;*444444444444X&%%$;>&&&,,+++@@#++##$$$$%%%%%%&&******----$XX;;;-13;;*44",
"44X;;;&:1;;;,,,,>>>:>>::::;:;;;;-*--****&*&&&&&XX;;;&:1;;*444444444444X&%$O&-&&&,,+O@@#++###$$$$%$%%%%%&&&***--*--$XX;;;&:1;;*44",
"44.;;-$&*;;;,,,>>>>:>:::;;;;;;---*-*****&&&&&&%XX;;-*&*;;*444444444444X&&$OO$&&*,,O@@@++##$#$$$$%%%%%&&&&******---$XX;;-*&*;;*44",
"44.;--*&-;;;,,>>>::::::;;;;------****&*&&&&%%%%XX;--**-;;*444444444444X&&$$$&&**,,@@#++###$$$%$%%%%&&&*****-*----;$XX;--**-;;*44",
"44X;;---;;;;,,>>:>>:::;;:;;;;-*--***&&*&&&&%&%%XX;;---;;;*444444444444X&&&&&&**-,,@@++###$$$$%$%%%%&&&&***--*---;;&XX;;---;;;*44",
"44X;;;;;;;;;,,,,,,,,,,,,,,,,,,,,,,,,,,,,,,,,,::#X;;;;;;;;*444444444444X&&&&&**--,,,,,,,,,,,,,,,,,,,,,,,,,,,,,,,,,::#X;;;;;;;;*44",
"44X;;;;;;;;;,,,,,,,,,,,,,,,,,,,,,,,,,,,,,,,,,::*#;;;;;;;;*444444444444X&&&&**--;,,,,,,,,,,,,,,,,,,,,,,,,,,,,,,,,,::*#;;;;;;;;*44",
"44X;;;;;;;;;;;;;;;;;;;;;;;;;;;;;;;;;;;;;;;;;;;;;;;;;;;;;;*444444444444X&&&**--;;;;;;;;;;;;;;;;;;;;;;;;;;;;;;;;;;;;;;;;;;;;;;;*44",
"44X;;;;;;;;;;;;;;;;;;;;;;;;;;;;;;;;;;;;;;;;;;;;;;;;;;;;;;*444444444444X&&**--;;;;;;;;;;;;;;;;;;;;;;;;;;;;;;;;;;;;;;;;;;;;;;;;*44",
"44X;;;;;;;;;;;;;;;;;;;;;;;;;;;;;;;;;;;;;;;;;;;;;;;;;;;;;;*444444444444X&**--;;;;;;;;;;;;;;;;;;;;;;;;;;;;;;;;;;;;;;;;;;;;;;;;;*44",
"44X;;;;;;;;;;;;-13;;;;;;;;;;-13;;;;;;;;;;;-13;;;;;;;;;;;;*444444444444X**--;;;;;;;;-13;;;;;;;;;;-13;;;;;;;;;;;-<3;;;;;;;;;;;;*44",
"44o;;;;;;;;;;;;&:1;;;;;;;;;;&:1;;;;;;;;;;;&:1;;;;;;;;;;;;*444444444444X*--;;;;;;;;;&:1;;;;;;;;;;&:1;;;;;;;;;;;&:1;;;;;;;;;;;;*44",
"44.;;;;;;;;;;;-$&*;;;;;;;;;-$&*;;;;;;;;;;-$&*;;;;;;;;;;;;*444444444444X--;;;;;;;;;-$&*;;;;;;;;;-$&*;;;;;;;;;;-$&*;;;;;;;;;;;;*44",
"44o-;;;;;;;;;--*&-;;;;;;;;--*&-;;;;;;;;;--*&-;;;;;;;;;;;;*444444444444X-;;;;;;;;;--*&-;;;;;;;;--*&-;;;;;;;;;--*&-;;;;;;;;;;;;*44",
"44.;;;;;;;;;;;---;;;;;;;;;;---;;;;;;;;;;;---;;;;;;;;;;;;;*444444444444X;;;;;;;;;;;---;;;;;;;;;;---;;;;;;;;;;;---;;;;;;;;;;;;;*44",
"44X;;;;;;;;;;;;;;;;;;;;;;;;;;;;;;;;;;;;;;;;;;;;;;;;;;;;;;&444444444444X;;;;;;;;;;;;;;;;;;;;;;;;;;;;;;;;;;;;;;;;;;;;;;;;;;;;;;&44",
"44444444444444444444444444444444444444444444444444444444444444444444444444444444444444444444444444444444444444444444444444444444",
"44444444444444444444444444444444444444444444444444444444444444444444444444444444444444444444444444444444444444444444444444444444"
};
