/* XPM */
static char *result[] = {
/* columns rows colors chars-per-pixel */
"40 40 9 1 ",
"  c #F60405",
". c #F70405",
"X c #F60505",
"o c #F50506",
"O c #F60506",
"+ c #F60607",
"@ c #F80304",
"# c #F80404",
"$ c None",
/* pixels */
"$$$$$$$$$$$$$$$$$$$$$$$$$$$$$$$$$$$$$$$$",
"$$$$$$$$$$$$$$$$$$$$$$$$$$$$$$$$$$$$$$$$",
"$$$$$$$$$$$$$$$$$$$$$$$$$$$$$$$$$$$$$$$$",
"$$$$$$$$$$$$$$$$$$$$$$$$$$$$$$$$$$$$$$$$",
"$$$$$$$$$$$$$$$$$$$$$$$$$$$$$$$$$$$$$$$$",
"$$$$$$$$$$$$$$$$$$$o+$$$$$$$$$$$$$$$$$$$",
"$$$$$$$$$$$$$$$$$$$$+$$$$$$$$$$$$$$$$$$$",
"$$$$$$$$$$$$$$$$$$$$+$$$$$$$$$$$$$$$$$$$",
"$$$$$$$$$$$$$$$$$$$$+$$$$$$$$$$$$$$$$$$$",
"$$$$$$$$$$$$$$$$$$o@#+$$$$$$$$$$$$$$$$$$",
"$$$$$$$$$$$$$$$+@.O##O.@.$$$$$$$$$$$$$$$",
"$$$$$$$$$$$$$$@.$$$$+$$$+#$$$$$$$$$$$$$$",
"$$$$$$$$$$$$$#$$$$$ .$$$$$#+$$$$$$$$$$$$",
"$$$$$$$$$$$$#$$$$.X#@..+$$$#$$$$$$$$$$$$",
"$$$$$$$$$$$@$$$XO$$$$$$o.$$$#$$$$$$$$$$$",
"$$$$$$$$$$$ $$Xo$$$$$$$$$.$$+X$$$$$$$$$$",
"$$$$$$$$$$#$$$.$$$$$$$$$$o+$$@$$$$$$$$$$",
"$$$$$$$$$$@$$ $$$$$$$$$$$$.$$ $$$$$$$$$$",
"$$$$$$$$$$ $$ $$$$$$$$$$$$.$$++$$$$$$$$$",
"$$$$$$$$$ #$O@$$$$$$$$$$$$.X$ @$$$$$$$$$",
"$$$$$....@#..#+$$$$$$$$$$o##.@#....$$$$$",
"$$$$$$$$$$ $$.$$$$$$$$$$$$.$$++$$$$$$$$$",
"$$$$$$$$$$@$$ $$$$$$$$$$$$.$$.$$$$$$$$$$",
"$$$$$$$$$$#$$$X$$$$$$$$$$+o$$@$$$$$$$$$$",
"$$$$$$$$$$$.$$O+$$$$$$$$$ $$O.$$$$$$$$$$",
"$$$$$$$$$$$#$$$.X$$$$$$O $$$#$$$$$$$$$$$",
"$$$$$$$$$$$$#$$$$  @# .$$$$@$$$$$$$$$$$$",
"$$$$$$$$$$$$$#$$$$$. $$$$$@$$$$$$$$$$$$$",
"$$$$$$$$$$$$$$# $$$$+$$$.@$$$$$$$$$$$$$$",
"$$$$$$$$$$$$$$$$#@X@#X#@+$$$$$$$$$$$$$$$",
"$$$$$$$$$$$$$$$$$$$.#$$$$$$$$$$$$$$$$$$$",
"$$$$$$$$$$$$$$$$$$$$+$$$$$$$$$$$$$$$$$$$",
"$$$$$$$$$$$$$$$$$$$$+$$$$$$$$$$$$$$$$$$$",
"$$$$$$$$$$$$$$$$$$$$+$$$$$$$$$$$$$$$$$$$",
"$$$$$$$$$$$$$$$$$$$$+$$$$$$$$$$$$$$$$$$$",
"$$$$$$$$$$$$$$$$$$$$$$$$$$$$$$$$$$$$$$$$",
"$$$$$$$$$$$$$$$$$$$$$$$$$$$$$$$$$$$$$$$$",
"$$$$$$$$$$$$$$$$$$$$$$$$$$$$$$$$$$$$$$$$",
"$$$$$$$$$$$$$$$$$$$$$$$$$$$$$$$$$$$$$$$$",
"$$$$$$$$$$$$$$$$$$$$$$$$$$$$$$$$$$$$$$$$"
};
