/* XPM */
static char *result[] = {
/* columns rows colors chars-per-pixel */
"50 50 216 2 ",
"   c #0E0F10",
".  c #131311",
"X  c #151D10",
"o  c #19320D",
"O  c #172908",
"+  c #1F4603",
"@  c #204910",
"#  c #2A530A",
"$  c #356B0B",
"%  c #377908",
"&  c #3A6F11",
"*  c #524A46",
"=  c #635657",
"-  c #597A41",
";  c #9A7A7A",
":  c #A17E7C",
">  c #3D8603",
",  c #3D9A06",
"<  c #438909",
"1  c #429601",
"2  c #459C03",
"3  c #4A9E03",
"4  c #469D0B",
"5  c #499E0B",
"6  c #4B9E14",
"7  c #499E18",
"8  c #509C1E",
"9  c #519D05",
"0  c #47A105",
"q  c #4CA304",
"w  c #4FA805",
"e  c #45A20C",
"r  c #4CA30A",
"t  c #4EA809",
"y  c #51A505",
"u  c #54AA05",
"i  c #59AD05",
"p  c #51A60B",
"a  c #54AA0A",
"s  c #5AAD0A",
"d  c #58A405",
"f  c #5CB205",
"g  c #5DB20B",
"h  c #44A310",
"j  c #4DA213",
"k  c #4CA41F",
"l  c #53A515",
"z  c #55AA12",
"x  c #59AC13",
"c  c #53A31C",
"v  c #5CA719",
"b  c #5CB112",
"n  c #62B505",
"m  c #64B905",
"M  c #62B50B",
"N  c #64B90C",
"B  c #69BD05",
"V  c #64AC17",
"C  c #60B413",
"Z  c #66B911",
"A  c #65B21E",
"S  c #429D28",
"D  c #568632",
"F  c #6F9B36",
"G  c #48A427",
"H  c #5BA324",
"J  c #59A827",
"K  c #5BA831",
"L  c #47AD3A",
"P  c #62AA22",
"I  c #62AB2C",
"U  c #6CAD2D",
"Y  c #63AB34",
"T  c #6BAB3C",
"R  c #68A635",
"E  c #77A839",
"W  c #71AF32",
"Q  c #719842",
"!  c #45A644",
"~  c #49B058",
"^  c #76A448",
"/  c #79B446",
"(  c #7AA956",
")  c #7FB55D",
"_  c #7A8F6A",
"`  c #47BE71",
"'  c #3AC474",
"]  c #8C9B4E",
"[  c #8E955C",
"{  c #84B856",
"}  c #8CA84D",
"|  c #A0A55F",
" . c #959D74",
".. c #AF9B6F",
"X. c #85AA66",
"o. c #9DA963",
"O. c #8BB464",
"+. c #8ABC63",
"@. c #87B766",
"#. c #93BB6D",
"$. c #93BB69",
"%. c #8DAA76",
"&. c #93AD7B",
"*. c #9AA677",
"=. c #95B679",
"-. c #8BBB70",
";. c #AFA273",
":. c #B0A679",
">. c #8EC062",
",. c #94C169",
"<. c #79B68C",
"1. c #5BC989",
"2. c #918D90",
"3. c #9E9D9D",
"4. c #8C8B89",
"5. c #A48A87",
"6. c #B09095",
"7. c #93A983",
"8. c #99A987",
"9. c #9CB986",
"0. c #BCA683",
"q. c #B7A681",
"w. c #A3BC8D",
"e. c #A3AE9A",
"r. c #A2AD96",
"t. c #ABBE9B",
"y. c #A3B199",
"u. c #A9AFA4",
"i. c #A1A0A1",
"p. c #AEB1AB",
"a. c #A9B0A2",
"s. c #B5BAAA",
"d. c #B5B3B5",
"f. c #B7B4B8",
"g. c #BDBCBC",
"h. c #B8B6B9",
"j. c #C99E9E",
"k. c #DA979C",
"l. c #CFA495",
"z. c #DD9EA5",
"x. c #E996AE",
"c. c #E89AAE",
"v. c #E598A9",
"b. c #EA9DB3",
"n. c #C8A7A4",
"m. c #D9A5A5",
"M. c #DEB1AE",
"N. c #C6BBB7",
"B. c #E4A3AC",
"V. c #E9A3AE",
"C. c #E5ADAE",
"Z. c #E9AFAE",
"A. c #E7B0AE",
"S. c #E9B0AE",
"D. c #E6A4B3",
"F. c #EBA5B2",
"G. c #EBADB2",
"H. c #E9AABA",
"J. c #E7B0B1",
"K. c #EBB2B1",
"L. c #E6B2BC",
"P. c #EABABD",
"I. c #F1B1B6",
"U. c #A5C58C",
"Y. c #A0C284",
"T. c #ADC599",
"R. c #B3CD9D",
"E. c #B7D09E",
"W. c #93CFAD",
"Q. c #8AC9A2",
"!. c #B5C3AC",
"~. c #B8C4AE",
"^. c #B3C2A5",
"/. c #BED2AB",
"(. c #BBC4B3",
"). c #BFC6B8",
"_. c #B4CEBD",
"`. c #ADD5BB",
"'. c #C4CABB",
"]. c #C4D5B8",
"[. c #E5C1BE",
"{. c #E8BBC3",
"}. c #E7B5C1",
"|. c #C8CBC5",
" X c #CDCDCD",
".X c #C6C8C4",
"XX c #CEDAC5",
"oX c #CBD1C7",
"OX c #D4DDCB",
"+X c #CFCDD0",
"@X c #D0CED1",
"#X c #D2D2D3",
"$X c #D7DED1",
"%X c #DBDBDB",
"&X c #D8D7D9",
"*X c #EAC1C2",
"=X c #E8C8C7",
"-X c #E9DADB",
";X c #E9D1D6",
":X c #DFE2DF",
">X c #DBE1D6",
",X c #E1E4DE",
"<X c #DFE0E0",
"1X c #E7E7E7",
"2X c #E8E6E6",
"3X c #E6E8E7",
"4X c #E8E8E7",
"5X c #E7E7E8",
"6X c #E8E7E8",
"7X c #E7E8E8",
"8X c #EAE9EA",
"9X c #F2EDED",
"0X c #F2E3E4",
"qX c #EEF0EF",
"wX c #F2F1EF",
"eX c #F2F2F2",
/* pixels */
"q y g g g y 2 3 y y g N u i d d g n M i u y s a 3 q q M f q s q y g i Z s 3 u r y p i d g u q y N B ",
"a y s g n q 3 y a a u N i n n i M i M s u y a y 2 q q g i w g y w u y Z d 3 u r u u a a g w u q m m ",
"t u u n n u q u u u q g s M n m m u i n s r t 3 q y y w d u u q w q 3 Z u 1 u a x u q a M u 3 y n n ",
"q q i n N d 2 u i i q a s N n B n u y M s 3 p 3 r a l z C a u a w y i Z y 3 u u i u 1 u C d 2 u f i ",
"a w i n M i y 9 f g q y d f m B f d i s s q y 6 e z b z C i t b l x g M s u y u a w q q i g q f f d ",
"u y i n g i u w u g a y d d n n f y g d s e z I { /././.R.{ T W K x s a g N y y g y i u i g u f i 3 ",
"y q u s u u y q q u g i d y i n f r z s s u +.OX:X3X8X3X3X:X>X$XOXT.,.E s C y w g g a s g w w i a 2 ",
"u q d g u u a 3 w i N i y y i s i r p / E.].$X6X7X3X3X3X3X3X3X3X6X6X4XOX#.A 3 q u N g g g w q s f y ",
"u w u g u d M d y f N f 3 y u z H #.>./.8X6X6X6X3X7X6X1X5X4X1X1X1X7X4X7X1Xt.T 5 u N M M i 3 2 u i y ",
"w w y n n i M y y f g f w q j r { ,X1X1X6X1X1X1X4X3X1X4X1X4X5X1X1X1X4X4X1X#X^.J a M n u s y 2 r u q ",
"w 3 2 g n n N 3 0 f g i w 3 j K ].8X6X4X5X5X1X1X3X1X1X1X5X6X1X4X6X4X6X1X1X&X X=.v g u u s y 2 3 r 2 ",
"y r 1 u n n Z 3 2 u f w u h 4 U.5X7X4X6X5X5X1X4X3X4X4X3X1X1X1X1X1X6X1X1X4X4X,X|.#.A y s s q 5 2 w , ",
"a p 3 y m m m u y u g w a e T OX8X5X4X4X1X1X1X5X1X6X1X4X1X1X1X6X1X4X1X1X6X4X7X&X.X-.p x a q a p q 0 ",
"a u d d n n n d g y g y u h @.1X7X5X1X6X4X5X4X1X1X6X1X1X3X5X1X1X4X1X1X5X4X4X6X%X+X^.H b u 3 u u w y ",
"g s d n n n i i a u i a 5 e -.1X6X5X1X1X1X1X1X4X1X1X6X1X1X5X3X4X5X6X1X6X5X1X5X1X X(.P a 3 3 q y 3 s ",
"n i q d m m i n y q w s 5 e @.:X5X5X1X1X4X1X4X1X7X5X1X1X1X1X1X4X1X1X1X1X4X1X1X1X@X).P y 2 1 y r q n ",
"n u y y m m f s y q y a t 4 I XX7X1X1X5X4X1X6X1X1X1X1X6X1X1X6X1X3X4X4X1X1X1X1X1X+X.X/ w 2 2 3 a q M ",
"f q u 3 f m g q u t r a j 6 { >X6X4X1X1X1X4X6X1X1X6X4X1X5X3X1X6X5X1X4X1X1X5X1X1X#X XU.a 0 0 3 u 3 n ",
"u y a 5 f f y q u a 2 w r Y XX1X3X1X1X5X1X1X1X1X5X4X1X1X4X1X3X4X1X1X5X3X1X5X1X1X#X X).Y r w 3 3 9 s ",
"y u a w i f r y y b q e 0 +.1X4X4X4X3X1X6X6X1X5X1X1X5X1X1X1X5X1X5X1X1X1X1X1X5X1X@X+X.X( r 3 r , y p ",
"q w s u u g q a u g a e h Y.4X6X4X1X6X5X5X1X5X1X5X1X4X5X5X1X4X6X4X1X1X1X3X3X5X%X X+X X&.z e q , y q ",
"y q s u y s u s a g s r e Y.1X5X8X8XqXqX8X7X5X5X1X1X1X4X4X1X1X1X4X1X1X5X3X5X5X#X X X.Xa.U u 0 2 p y ",
"y 1 x s 3 s f i w a g r 0 >.3XqXeXeXeXeXeXeXwX5X1X1X6X6X1X4X1X5X1X5X4X3X5X3X5X&X X XN.d.X.r 2 w q q ",
"q 1 y g w g N u t t t r j T OXeXeXeXeXeXeXeXeXwX2X4X6X7X5X1X1X4X1X1X6X3X3X4X5X#X X Xg.d.p.R 4 2 q 3 ",
"3 1 3 g i f N q r V } ;.q.q.=XwXeXeXeXeXeXeXeX2X=X[.=X;X-X-X1X1X1X6X1X1X1X6X%X X X Xh.d.f.&.6 1 q q ",
"q 1 3 y f f V E o.l.B.F.F.F.G.=X0XwXwX9XeX0X9X{.F.Z.C.J.Z.F.*X4X1X1X4X1X1X1X+X X X|.8.u.f.p.^ 4 2 3 ",
"2 3 q y i i E l.V.x.x.v.x.v.F.S.K.{.*X[.{.P.P.B.x.c.V.F.b.x.}.6X5X1X5X5X1X%X X X Xt.H X.r.u.%.j 5 q ",
"2 q y i d i g ..k.v.x.x.v.v.Z.S.S.S.Z.S.S.Z.J.V.x.x.x.x.x.D.;X6X1X1X5X5X1X#X X X|.( e x 8 P P 2 3 e ",
"3 q q i y y u p F F ] ] ^  .5.m.S.S.S.J.j.M.J.G.H.D.D.D.{.-X6X5X3X3X5X5X1X#X X+XT.c r y 4 u w 0 2 5 ",
"w q y i u y y i e e 5 a e [ * 5.K.K.K.m.= 6.G.{.2X2X-X2X5X5X3X5X3X3X5X5X%X X+X'./ w w q q g t 3 q y ",
"a q f i d a 3 i q q r j j :.; j.K.S.K.M.= : I.L.2X2X7X7X5X4X1X1X3X3X1X%X X X|.@.l y q 3 t g i w 3 u ",
"p q f u 1 a p u 3 5 q a j 0.K.K.S.S.C.S.M.J.G.H.0X6X5X7X5X7X7X7X7X3X#X+X X Xt.v t 3 q q w g s q 3 u ",
"y q u q 1 y g s u 2 r z 7 0.S.Z.Z.S.S.S.S.S.Z.L.1X3X5X1X&X].,X4X-XoX(.9.p.g.&.z 5 y t 3 q t x q 2 y ",
"d w y 2 1 3 u g a 1 y e 6 0.Z.K.K.G.K.I.S.S.D.q.+.>.U.g.p.X.'.&X).( Y S 7.d.&.x 5 u y 3 y y s q 1 q ",
"3 y q 2 2 q q g g 1 u z 9 | G.m.j.S.m.n.K.G.b.o.z a T u.p.^ s.@X(.I e z %.d.&.x r a u q y y a y a q ",
"2 3 q 2 r q q s a q a s d U :.z.v.Z.m.m.F.n.N.>.a r R u.d.^ t.@X(.I 6 u X.f.7.c a s a 2 w y q t z 2 ",
"2 2 3 2 r 3 q s g y q M g i V F &.r.y.r.<.` W.$.w e H e.f.( 9.@X!.H 5 5 ( f.r.8 a M d 2 3 y 3 y a 2 ",
"9 9 q r 3 w w d i u y M M s x 9 ~ ' ' ` 1.1.Q.+.a p a w.f.7.9. X!.H 5 r ^ d.u.F f f f 3 9 s q s s 0 ",
"s u y p 3 p 3 i s d 3 f g f 9 l ! ~ L S ~ `._.X.x z s =.f.e.=. X!.I e r R p.d.( s M M 9 y s u n u u ",
"u y y u q 3 q i M y q i i d y J K ! S S K (.@XX.y a g _ i. .O. X'.T r e H 7.3.Q u s g 3 3 n i f i y ",
"2 q w s w 1 q w g q q u i w q C x k 6 7 G t.+Xw.c b d o   @ U '.|.{ q 3 % X . & u a u 2 d M M n s q ",
"q q 0 a y q q i g u u q d a y s r 5 q 5 y w.+X(.J b d $ # & U '.@X=.5 r < # # < q s y q u n M f y 3 ",
"u q q y w q q i a i w q i q y u 2 e e p r O.#X.XK b u g i e P ~.&Xw.6 p r w e y q a y u i f n i q q ",
"g y q q q q f y i s q 3 y 2 u t 3 3 l x p D 4._ 8 l q C u 3 8 _ 2.- 4 z a q a 3 q u q g s i i d q w ",
"f g 2 q 2 3 a y w g q 2 q 3 w y q e z a q + . o 1 y q s t 3 > O . + 3 x y 2 x 4 q q q g s d u q r 3 ",
"w a 3 0 q y a q q a a 2 3 q q q 2 0 r a 4 > % % 1 q q a q q 1 < < < u a 2 3 p 2 q q q s u y q y r 3 ",
"q u q q r p l 2 2 0 a w q w t 2 0 0 w a r w u r r q q t e q w i d y y e e q q q 0 0 w a y y 3 y e q ",
"q y q e t e a 2 w q r p t r y q q u u a r r z p r r r e r r y y t r r p r r q q e t r a w q q r q u ",
"r z l r r e a e r t r j a r r z e u a t r r p j r r r r r t w p w e 4 q e r 5 q t t r p r r e r p s ",
"r r r r p r r p l p t r r t r j t w t r t p j t r a r r e 0 e r w 5 4 1 r p r r r 4 r e r q e 2 5 u "
};
