/* XPM */
static char *result[] = {
/* columns rows colors chars-per-pixel */
"50 50 209 2 ",
"   c #151A14",
".  c #1E390C",
"X  c #1A2D07",
"o  c #244209",
"O  c #29570B",
"+  c #33670A",
"@  c #2D6207",
"#  c #3D4735",
"$  c #41483C",
"%  c #417625",
"&  c #484948",
"*  c #695A57",
"=  c #6A6460",
"-  c #7E6262",
";  c #3A9600",
":  c #3E9A02",
">  c #45870A",
",  c #449703",
"<  c #459D01",
"1  c #499E02",
"2  c #469F09",
"3  c #4D9909",
"4  c #518B1E",
"5  c #469F14",
"6  c #46A102",
"7  c #4CA402",
"8  c #4EA903",
"9  c #44A10A",
"0  c #4DA50B",
"q  c #4FA909",
"w  c #51A602",
"e  c #53AB03",
"r  c #59AE03",
"t  c #51A60C",
"y  c #53AB0B",
"u  c #59AE0A",
"i  c #57B004",
"p  c #5CB204",
"a  c #5DB20A",
"s  c #47A412",
"d  c #4CA314",
"f  c #4CA718",
"g  c #54AA14",
"h  c #5AAE14",
"j  c #5BA91D",
"k  c #55A61A",
"l  c #5CB311",
"z  c #5BB11D",
"x  c #61B603",
"c  c #64B904",
"v  c #69BE03",
"b  c #61B509",
"n  c #64B908",
"m  c #62AC1E",
"M  c #63B41D",
"N  c #60B311",
"B  c #4FA421",
"V  c #5DAC26",
"C  c #5AA828",
"Z  c #6AAE21",
"A  c #64AD2C",
"S  c #68AF2A",
"D  c #6AB329",
"F  c #67B429",
"G  c #69A939",
"H  c #69B236",
"J  c #72B435",
"K  c #75B53A",
"L  c #7CA933",
"P  c #6EAA49",
"I  c #77AD4A",
"U  c #75B24D",
"Y  c #7AB54C",
"T  c #78B844",
"R  c #7BAF55",
"E  c #7CB654",
"W  c #82A046",
"Q  c #84BC4A",
"!  c #9FAB5E",
"~  c #82B65B",
"^  c #88BE56",
"/  c #A0AC5C",
"(  c #938073",
")  c #9D9B65",
"_  c #AB9E72",
"`  c #88AF6B",
"'  c #82AA65",
"]  c #8BBA64",
"[  c #87B76A",
"{  c #8BAC75",
"}  c #92AE7C",
"|  c #92B07A",
" . c #95BA76",
".. c #91BA68",
"X. c #A1A666",
"o. c #A0B165",
"O. c #8DC55B",
"+. c #9AC577",
"@. c #96C96A",
"#. c #A1CA7E",
"$. c #A7D17D",
"%. c #888481",
"&. c #B48D8F",
"*. c #B89C99",
"=. c #AE898C",
"-. c #95B182",
";. c #9BB686",
":. c #97AF85",
">. c #A2BF8D",
",. c #A2AF97",
"<. c #A1B193",
"1. c #A5B29C",
"2. c #A7B998",
"3. c #A9B1A4",
"4. c #ADB3A9",
"5. c #B1B4AF",
"6. c #B1BBAB",
"7. c #B4B5B4",
"8. c #B7B5B8",
"9. c #B8B6B9",
"0. c #BBBABC",
"q. c #B7B9B5",
"w. c #C79C93",
"e. c #C0B484",
"r. c #D1AF9D",
"t. c #CDB39C",
"y. c #D49AA3",
"u. c #EA96AF",
"i. c #E79AAC",
"p. c #EA9CAE",
"a. c #EC97B1",
"s. c #EA9BB1",
"d. c #E79CB0",
"f. c #D8A1A6",
"g. c #DCABAC",
"h. c #D7A7A9",
"j. c #D6AFB2",
"k. c #CBA7A5",
"l. c #E3A5AD",
"z. c #E4AEAE",
"x. c #E9ADAE",
"c. c #EAB0AF",
"v. c #E7A6B4",
"b. c #ECA3B2",
"n. c #E5ADB3",
"m. c #EAACB2",
"M. c #E9ABBB",
"N. c #EBB2B2",
"B. c #E8B6B8",
"V. c #9EC084",
"C. c #A3C28C",
"Z. c #A5C88A",
"A. c #ACD088",
"S. c #ABC697",
"D. c #B5D49D",
"F. c #BDCA99",
"G. c #AEC2A1",
"H. c #B2C4A4",
"J. c #B5C8A7",
"K. c #B7D4A1",
"L. c #BDD8AC",
"P. c #BCC5B6",
"I. c #C0D8AB",
"U. c #C1CABB",
"Y. c #C2C5BE",
"T. c #C3DAB2",
"R. c #CADCBC",
"E. c #C6D6BA",
"W. c #E8C0BE",
"Q. c #E7B7C2",
"!. c #ECBCC3",
"~. c #E8B7C3",
"^. c #F0BBC3",
"/. c #C6CBC2",
"(. c #C9CCC6",
"). c #CDCECD",
"_. c #C5C5C5",
"`. c #CED0CC",
"'. c #D0DACA",
"]. c #CFCED0",
"[. c #D1CFD1",
"{. c #D3D3D3",
"}. c #D7D8D6",
"|. c #DCDCDB",
" X c #DAD7D7",
".X c #ECC3C3",
"XX c #E9C7C9",
"oX c #E5D1CF",
"OX c #EACCD2",
"+X c #EBD5DA",
"@X c #EADBDE",
"#X c #E8D7D6",
"$X c #D4E3CA",
"%X c #DAE2D6",
"&X c #E5E4DE",
"*X c #EADFE1",
"=X c #F0DFE2",
"-X c #E4E4E4",
";X c #E9E5E6",
":X c #E8EAE6",
">X c #E7E7E8",
",X c #E8E7E8",
"<X c #E7E9E9",
"1X c #E8E8E9",
"2X c #E4E8E2",
"3X c #F2ECED",
"4X c #EFF1EF",
"5X c #F4EFF0",
"6X c #F3F3F4",
/* pixels */
"7 8 p x r w 1 7 w e p x e r e e x p x r 8 e p 8 < 7 8 x r 8 p 7 8 p i x r 7 e 7 8 w r r a e 7 8 x v ",
"e 8 p p x 1 1 7 e e r c r r x r x r x p e 8 r 8 < 7 7 p r 7 p 7 8 i 8 c e < e 7 e w e r p 8 e 7 x c ",
"8 w r x x 8 7 e e e 7 x p x x x x e r x i 6 8 6 7 e w e i 8 r 7 7 8 w n w , w e a e < e p e 7 w x x ",
"7 8 r p c r < 8 r e 1 e r c c v x w w b i 7 8 9 0 t y t a r e w 7 e r x w 1 e e i e , e p r , e x r ",
"e 7 x x x p 7 8 r p 7 e w x c v x e i a u 9 q 9 s g f s l y q u 8 r a p r e e 8 i 7 6 8 r p 7 p p e ",
"e 8 r p r r e 8 e p r w w w x v x 3 y y A H T +.L.T.D.D.A.O.A z f u u u a x 8 e p e e r r p 8 r r 7 ",
"e 6 e p e e w 1 8 e b e e e e b b A E D.$X2X:X4X6X6X6X6X1X2X$XT.D.+.O.H b b 8 7 r p p i a e e r r , ",
"8 7 w p w e r < 8 e c r 1 w m o.e.r.W.4X6X6X6X6X6X6X5X5X&XXXOX+X@X&X#X(.+.F 9 7 e x i a a 7 8 r r 8 ",
"e e e p r r b w w p c M G X.r.x.b.m.N.B.#X5X5X6X6X4X5X;XN.x.x.N.B.n.B.*X-XS.P q e v p p p 7 7 w r e ",
"8 7 e x x r p w w x c / l.b.p.p.p.p.b.m.N.W..XXXXXW.!.B.p.p.s.b.s.u.d.+X1X2XU.R 8 b x r i 7 , 8 8 7 ",
"8 1 < p x x x 1 6 p p L w.i.a.s.a.p.m.c.c.c.c.c.c.c.c.c.u.a.p.s.a.a.~.;X<X-X{.J.D p r e i 8 < 6 7 < ",
"8 7 : e c x c 3 < r p 8 m W ) _ X./ *.*.N.N.N.N.z.k.c.c.M.M.b.s.~.!.*X<X<X<X|.{.C.F 8 e r 7 6 < 7 : ",
"w w 1 w c c x w w r i e e 6 9 s e Q ( = h.N.c.N.=.%.j.m.OX;X*X@X*X<X<X1X1X1X1X-X`.C.j a r 7 8 7 7 6 ",
"r e w r x x x w e e p e 8 7 q q F F.w.- g.c.N.N.&.* z.m.OX<X1X<X1X1X<X<X<X1X1X1X X(.[ l t 7 e w 8 i ",
"p r w r x x p r e w r i < 7 6 e @.oXM.N.N.N.c.c.n.h.N.v.OX<X1X1X1X1X1X1X1X1X<X1X X).Z.u 9 6 8 w 6 r ",
"x r 7 e c c r x w 7 8 r 7 7 9 f L.#Xc.N.c.N.c.N.N.N.N.m.OX<X<X1X1X-X1X1X1X1X<X;X|.).S.e , < 8 7 7 p ",
"p e 7 8 c c p r e 8 7 i 8 6 0 F $X+Xc.N.N.N.N.N.N.m.m.v.@X<X1X<X1X1X1X1X1X1X1X;X|.[.J.h 2 < 7 w w b ",
"p 8 w 7 p x p 1 8 e 6 e 8 0 q O.2X@Xm.N.y.g.N.f.m.N.v.Q.1X1X;X1X1X1X1X1X1X1X1X1X|.[./.H 9 6 < e 7 p ",
"r 8 e 6 p p e 7 e e 6 8 7 9 J T.1X;X!.v.y.v.N.y.v.v.Q.*X<X1X1X1X1X1X1X1X1X1X1X1X-X`.).E 0 6 7 < 7 r ",
"w 8 i 8 p p 8 8 8 a 7 6 6 8 #.<X1X1X1X@XOX^.!.!.XX+X;X1X1X1X<X<X<X<X1X<X1X1X1X1X-X`.).] 8 < 7 : w 7 ",
"8 7 u e e r 7 e 8 a e 6 6 V T.1X1X1X<X<X<X<X<X1X1X1X1X>X1X1X1X1X1X1X1X;X1X1X<X<X|.(.[.>.j e 7 : w 8 ",
"8 7 p w 8 p e r i i e 7 9 H $X1X>X1X>X1X1X1X>X1X1X1X>X>X1X1X1X1X1X<X1X1X<X1X<X-X].).).6.F 8 6 6 8 w ",
"e < r r 7 p r p e 8 i 8 < V R.1X<X1X1X1X1X>X1X1X>X1X1X1X1X>X1X1X<X1X1X1X1X1X<X-X].).].q.R 7 6 7 6 7 ",
"7 , 7 p 7 p x e 8 8 r 8 6 d Z.<X1X1X1X1X1X1X1X1X1X>X1X1X1X1X1X;X;X1X1X1X1X<X<X-X).).).8.| t < 6 7 7 ",
"< , 6 r r p c 8 1 w e 7 7 , U %X1X;X1X1X1X1X1X1X1X1X1X>X1X1X>X1X1X1X;X1X1X1X<X|.).[.(.8.4.G 6 , 7 6 ",
"7 , < 8 p p p 7 w w r 7 e 9 U %X1X1X1X1X>X1X>X1X1X1X1X>X1X1X1X1X1X1X<X<X1X<X-X[.).)._.8.9.} g 9 6 < ",
"< 6 7 8 r x r 7 7 7 e 8 u 9 [ 2X1X>X1X1X1X;X1X1X>X1X1X1X1X1X1X1X<X<X1X1X1X;X}.).).]._.7.7.5.I 3 7 < ",
"< 7 8 r e e r 7 < 8 8 r e 6 V L.-X1X1X1X1X1X1X1X1X>X1X1X;X1X>X1X;X1X1X<X1X;X{.).`.(.;.:.8.9.<.j 6 7 ",
", 7 7 r w w e e < 1 7 r 8 8 8 D +.$X%X<X1X1X1X1X1X1X1X1X<X>X1X1X1X1X1X1X<X-X[.).[.S.k S :.1.3.P < w ",
"8 8 8 r w w w e 7 6 7 e 8 7 i a a T %X4X1X1X1X1X1X1X1X1X<X1X1X1X<X<X1X1X1X}.).[.U.Y 7 7 f F A k 6 e ",
"e 7 r r w u 1 e 7 7 7 8 8 7 i i a z T.<X1X1X1X1X;X1X1X1X1X<X1X-X<X<X<X>X|.[.[.(.] e 7 6 w a r 8 6 e ",
"e 6 r e , r e e 6 7 < 8 1 8 i i i y E T.%X1X1X1X1X1X1X1X1X1X<X<X<X<X-X}.[.[.[.;.g 0 7 < e i r 8 < e ",
"e 8 e 7 : 8 r r e 6 7 8 7 7 w i 8 8 0 z +.}.|.%X1X1X<X1X;X&X-X<X<X-X}.).Y._.P.R 2 8 8 7 8 8 r 7 < w ",
"8 8 8 < , < e p e , 7 7 7 8 8 p 7 6 8 8 H /.`.{.K.A.A.E.).5.J.*X|.P. .U ` 7.7.R < e e < 8 w i 1 1 7 ",
"1 8 8 : 1 7 7 x i < e 8 7 r 8 r 8 8 8 6 C P.[.(.Y e u } 8.,. .`.].G.f 0 P 4.7.I 6 i e < e w e 7 8 9 ",
"< 1 7 < 7 7 1 r p 7 7 i e e 8 p 7 8 r 0 B H.[.(.T q y ` 9.1.O.(.].2.f y G 3.7.I 8 p e < 7 7 8 e r 6 ",
", 1 < < 8 1 7 r r w w c p r r 8 1 w r 0 d ;.]./.J 7 7 ~ 9.<.Q U.].C.5 0 j ,.7.I r x w < 1 w 1 8 r : ",
"1 8 7 7 < 8 7 r r e 1 x p p r 8 7 7 r e 8 ] ]./.J 7 t Q 7.3.O.P.}.;.d q u :.9.R u b r 1 8 r 1 e r < ",
"r e w e 6 w 7 r r r 1 x x r 7 e 7 7 r w q ~ )./.K r r K 4.5...H.{.V.s 0 y | 8.:.a b b w w r e x r e ",
"w 7 w e 7 6 7 e x w 1 r r e 7 p w r e 7 q Y /./.J r p M 3.7. .C.[.;.s 0 7 | 8.1.m u r 1 w x r p r e ",
"< 7 8 i 8 < 8 8 p 1 w e e w w x p a 8 7 0 J P.).K i x j 1.8.`  .].S.d 2 0 ' 9.1.j y e 1 w c c x p < ",
"7 7 6 r e 6 6 e p e w 8 r w e p p w 6 6 7 A P.].[ a a 3 $ & 4 ..].H.B 0 1 % & # , r w 7 w x x p 8 < ",
"r 6 6 8 8 8 8 r r e e < e 8 8 p e 7 1 8 7 g S.{.C.h u 3 o X > ~ ].P.A q w @ . o , r w w r p x r 7 7 ",
"p 8 6 7 7 7 e e r p 8 < w < r i 7 8 8 y 7 0 C.{.H.u w r y , 0 Y ).].R y e 0 t 2 1 e w r r r p e 7 8 ",
"p i : 6 6 7 e 7 8 r 8 < 7 < 8 e 6 7 8 e 9 2 { 0.-.t 6 i e < q H 6.7.G u 0 < u , 7 7 7 r r e e w 6 7 ",
"8 r 9 6 7 7 e 7 6 e q 6 7 7 7 7 7 7 7 e < 2 .   O 9 7 r 7 6 7 >     > i 1 < w < 8 7 7 r w w w w q 6 ",
"7 y 7 q y e y 0 0 0 8 q 0 0 q 9 q q q e 7 1 + O + 7 7 8 7 6 8 > O @ 3 < 6 6 0 7 6 6 8 r e 7 3 w 6 6 ",
"6 t 6 q d 6 y t 0 6 0 q 8 7 e 8 7 y t y 0 t g 0 6 6 < 6 6 6 8 e e y 6 < , 9 q 9 6 8 8 8 e 0 t w 0 e ",
"< 0 0 0 2 0 s q 0 0 < t 8 0 0 y 0 i y q 0 0 g q < 9 0 9 0 7 q 8 6 y t 0 0 0 0 9 t q 7 8 q 0 t t q a ",
", ; 0 < ; < 9 7 7 9 : 6 0 0 0 9 y 8 i d t t q 9 0 0 9 0 ; : 9 7 0 d t q 0 t y t q d q d 0 0 t t q 8 "
};
