/* XPM */
static char *result[] = {
/* columns rows colors chars-per-pixel */
"50 50 225 2 ",
"   c #37382B",
".  c #3B3733",
"X  c #4A2A1D",
"o  c #592B18",
"O  c #533015",
"+  c #682C0F",
"@  c #653819",
"#  c #6D3D1C",
"$  c #75381B",
"%  c #462B25",
"&  c #48382C",
"*  c #583824",
"=  c #59362F",
"-  c #533C2C",
";  c #473937",
":  c #673C26",
">  c #773B23",
",  c #344812",
"<  c #3F6119",
"1  c #3E462C",
"2  c #4C450B",
"3  c #43451C",
"4  c #575A18",
"5  c #76401E",
"6  c #4E6A11",
"7  c #736719",
"8  c #47482E",
"9  c #53532D",
"0  c #4D433A",
"q  c #564637",
"w  c #664327",
"e  c #734123",
"r  c #7C4726",
"t  c #73522C",
"y  c #694935",
"u  c #744836",
"i  c #695738",
"p  c #755938",
"a  c #566725",
"s  c #5C6F36",
"d  c #7D6838",
"f  c #6C7431",
"g  c #4B3F40",
"h  c #494445",
"j  c #4A4649",
"k  c #4F4C4D",
"l  c #534B45",
"z  c #534748",
"x  c #595445",
"c  c #5C514C",
"v  c #534E53",
"b  c #4E5156",
"n  c #545354",
"m  c #5B5455",
"M  c #53565A",
"N  c #56595E",
"B  c #5D5B5D",
"V  c #685747",
"C  c #6A5249",
"Z  c #775C44",
"A  c #645C5A",
"S  c #6C624C",
"D  c #7B6646",
"F  c #777A47",
"G  c #786557",
"H  c #6C785A",
"J  c #757558",
"K  c #5C5E62",
"L  c #676666",
"P  c #776966",
"I  c #6E7262",
"U  c #777869",
"Y  c #6C6E74",
"T  c #766D72",
"R  c #6E7275",
"E  c #747474",
"W  c #7C7775",
"Q  c #737579",
"!  c #73797D",
"~  c #7C7C7E",
"^  c #8F3D0E",
"/  c #873915",
"(  c #97420D",
")  c #8D4A14",
"_  c #88451D",
"`  c #974717",
"'  c #9A5A1D",
"]  c #A2480E",
"[  c #B84F0F",
"{  c #BA510D",
"}  c #A84D16",
"|  c #B44E12",
" . c #AE5117",
".. c #B75417",
"X. c #BC5614",
"o. c #BB721C",
"O. c #864727",
"+. c #924823",
"@. c #8C532A",
"#. c #975C27",
"$. c #8C4E31",
"%. c #885838",
"&. c #955A37",
"*. c #A34C22",
"=. c #B05B2B",
"-. c #AC5832",
";. c #8E6825",
":. c #996135",
">. c #A36426",
",. c #A56738",
"<. c #B96F30",
"1. c #AB7238",
"2. c #C75507",
"3. c #C4560D",
"4. c #C25712",
"5. c #C25914",
"6. c #C65916",
"7. c #C6761E",
"8. c #C77724",
"9. c #945F41",
"0. c #866A48",
"q. c #92654A",
"w. c #966849",
"e. c #877447",
"r. c #8C6B56",
"t. c #966C52",
"y. c #9C7256",
"u. c #A66945",
"i. c #A87445",
"p. c #B67947",
"a. c #AB7D58",
"s. c #B97E53",
"d. c #827A72",
"f. c #C47D59",
"g. c #3E9300",
"h. c #48890A",
"j. c #5C8805",
"k. c #419600",
"l. c #4B9606",
"z. c #459B01",
"x. c #499E02",
"c. c #4E930C",
"v. c #4D9C0A",
"b. c #589D0B",
"n. c #4C8C13",
"m. c #578A1B",
"M. c #589716",
"N. c #638C16",
"B. c #4DA203",
"V. c #4EA309",
"C. c #51A604",
"Z. c #54AA05",
"A. c #59AE06",
"S. c #52A609",
"D. c #5FA30C",
"F. c #55AB0A",
"G. c #59AE0B",
"H. c #5CB206",
"J. c #5CB20C",
"K. c #57A416",
"L. c #5AA514",
"P. c #5AAD12",
"I. c #5DB211",
"U. c #61A90C",
"Y. c #60B506",
"T. c #61B60C",
"R. c #63B90C",
"E. c #63AA19",
"W. c #63AD1A",
"Q. c #61B612",
"!. c #64B913",
"~. c #69BA14",
"^. c #5A8A22",
"/. c #5D9524",
"(. c #748C2F",
"). c #679A26",
"_. c #678C39",
"`. c #6B9D3C",
"'. c #6DA32F",
"]. c #6AC10D",
"[. c #6AC013",
"{. c #75914D",
"}. c #7DAF42",
"|. c #768265",
" X c #888A3C",
".X c #858747",
"XX c #97874D",
"oX c #869A4E",
"OX c #AC865C",
"+X c #B4835D",
"@X c #BC875A",
"#X c #9F8E7B",
"$X c #B98A63",
"%X c #AD926E",
"&X c #BF936A",
"*X c #BF9C76",
"=X c #98A577",
"-X c #ADA165",
";X c #CD874D",
":X c #C98957",
">X c #C38C5B",
",X c #D48D54",
"<X c #CB905A",
"1X c #D4935B",
"2X c #DA955A",
"3X c #E29B5B",
"4X c #E7A25D",
"5X c #C88A61",
"6X c #C99666",
"7X c #D79A67",
"8X c #DB9B61",
"9X c #E29E65",
"0X c #C4A26B",
"qX c #DEA468",
"wX c #D1AB77",
"eX c #E5A264",
"rX c #E5A36B",
"tX c #E1B678",
"yX c #7C7D81",
"uX c #7E8184",
"iX c #858688",
"pX c #8A8F94",
"aX c #929599",
"sX c #B3A38A",
"dX c #CFB583",
/* pixels */
"z.F.F.H.[.A.B.B.V.J.C.J.F.B.B.G.C.!.G.C.C.k.F.C.x.Q.T.C.k.S.T.Z.C.C.Z.B.x.Z.B.Z.B.Z.!.Z.B.g.B.H.[.].",
"k.A.T.H.].H.B.B.x.P.C.I.B.B.x.J.C.G.T.C.x.z.I.C.x.R.Q.C.x.G.T.x.x.F.Z.x.C.F.B.G.C.Z.Q.V.B.V.B.Z.].H.",
"z.Z.H.R.J.H.z.C.z.V.V.F.V.k.z.J.C.B.T.F.z.Z.A.C.x.I.U.z.x.J.P.z.z.G.V.z.B.F.F.Z.x.Z.I.x.F.V.B.A.!.H.",
"z.C.A.R.H.H.B.F.x.V.V.V.B.k.B.J.F.x.A.Z.z.A.G.C.z.I.R.k.C.I.G.k.k.I.x.F.C.V.!.C.z.A.F.x.C.B.z.A.H.H.",
"g.B.Z.R.H.A.B.C.V.z.V.B.z.z.Z.G.J.B.C.A.C.A.A.x.k.A.Q.x.Z.A.Z.z.z.I.B.F.z.B.Q.F.z.F.C.C.C.z.C.A.Y.H.",
"g.B.C.J.A.Z.G.C.V.k.V.B.x.z.Z.A.!.F.x.A.T.A.x.A.l.G.~.A.A.C.C.S.Z.Q.F.x.k.B.F.R.A.C.B.Z.Z.g.C.A.H.H.",
"B.B.B.H.H.B.G.F.V.k.B.B.C.B.Z.A.!.A.x.F.Q.A.x.A.T.F.~.T.C.x.x.S.Z.J.V.z.x.V.B.!.R.C.C.C.J.B.C.H.R.C.",
"B.G.F.A.R.B.V.G.V.x.B.x.G.T.C.F.!.G.x.F.Q.x.C.A.T.C.T.T.C.C.C.F.F.J.V.z.B.B.Z.J.I.Z.C.Z.J.C.B.A.T.C.",
"z.I.F.B.I.Z.B.G.V.V.F.V.A.T.x.B.I.J.B.Z.P.B.C.J.Y.C.A.T.C.Z.Z.Z.Z.H.V.x.B.Z.I.Z.J.A.B.J.H.Z.z.A.H.x.",
"V.I.G.B.J.H.z.B.F.z.F.V.Z.T.z.x.A.P.B.g.G.B.B.J.C.A.H.H.C.A.G.C.B.V.B.z.Z.Z.!.B.Z.Z.x.J.F.B.z.A.T.B.",
"I.B.B.Z.S.I.B.g.F.x.z.Z.T.Y.z.z.Z.F.S.B.C.C.B.H.C.Y.H.A.x.S.G.C.B.B.z.z.Z.Z.!.Z.Z.Z.B.Z.Z.z.k.A.T.B.",
"J.B.B.B.Z.I.B.B.V.V.g.V.!.A.z.k.C.Z.S.C.B.C.H.J.A.R.C.Z.x.S.G.B.V.B.z.z.Z.R.R.B.B.B.Z.B.V.g.z.H.Y.C.",
"C.A.B.B.C.I.S.V.x.C.x.C.R.Z.C.z.B.Z.I.C.B.C.H.H.J.J.Z.Z.x.B.G.V.I.x.x.B.Z.R.H.Z.Z.C.B.H.Z.z.B.R.H.C.",
"z.Z.Z.z.V.P.F.F.x.x.C.J.R.H.U.4 B.Z.I.V.B.Z.].J.[.V.B.G.B.B.I.V.G.x.B.B.Z.R.H.J.J.x.x.J.A.B.Z.R.H.x.",
"z.Z.J.z.B.G.V.F.B.B.H.R.I.F.}. XB.P.[.V.z.A.].R.}.{.C.H.V.z.P.B.F.z.C.Z.R.R.Z.T.G.B.x.T.Z.Z.Z.R.F.z.",
"S.Z.I.B.z.V.V.V.x.G.J.J.Z.K.#XoXg.I.W.v.x.A.J.}.sX{.C.J.F.g.F.V.Z.z.Z.H.R.Z.B.T.J.x.z.T.H.H.R.J.C.z.",
"F.B.I.V.B.B.V.g.l.G.Q.A.B..X0X-Xv.P.9 , a '.Q.=X*X}.C.J.P.g.V.B.V.z.Z.R.J.B.B.R.R.B.z.R.H.Y.H.R.B.g.",
"Z.B.!.G.B.B.B.B.C.G.Q.A.v.#X0XwX{.m.L iXyXI H #XdXf z.J.J.B.z.V.V.z.Z.R.J.x.Z.Z.H.Z.B.R.H.].Z.Z.g.g.",
"Z.B.J.!.B.B.B.z.F.F.I.x.B.{.%XwXtXsXG yXpX~ B C a.f C.H.I.C.z.V.B.Z.Z.Q.Z.x.B.B.Z.I.Z.R.].Y.Z.F.g.k.",
"J.Z.A.I.Z.z.B.B.F.F.G.C.x.c.7 OX6X0Xq ; x c c ; & s H.C.I.P.z.B.x.F.H.F.Z.Z.B.B.B.H.H.H.H.H.B.V.z.x.",
"A.Z.V.R.Z.B.B.B.F.V.F.B.B.x.n.q G P K K d.Q A T yXs K.B.J.I.B.V.z.G.F.Z.Z.J.B.B.B.B.H.H.H.H.x.B.G.z.",
"Z.Z.x.J.G.B.C.z.F.x.V.z.z.l.I L L T h h ; z c C ; 0 ^.B.Z.G.B.V.z.F.V.Z.B.B.J.V.B.B.Z.Z.H.Z.B.z.F.z.",
"B.Z.x.H.J.z.F.g.V.z.V.k.l.V P z q u q.a.+X$X6X5X$XZ j.C.B.F.B.V.z.I.V.B.z.z.I.G.Z.z.Z.Z.Z.Z.B.k.V.V.",
"B.C.B.F.G.z.F.z.V.x.B.g.v.3 & y.s.s.:X,.<.p.:X9Xs.-.(.V.z.V.B.F.B.J.V.z.z.z.I.Q.Z.z.B.C.Z.Z.B.z.V.F.",
"B.C.B.V.J.k.F.x.z.x.x.g.V.6 q.$Xs.,Xp._ / / : $XO./ 7 F.z.B.z.G.B.F.F.z.z.z.B.!.H.x.B.B.H.C.B.B.G.C.",
"C.C.B.Z.I.B.F.V.x.x.z.z.K.i r w.s.rX1X&.: y q.$Xi @ N.J.z.B.z.F.V.J.V.z.x.x.x.F.I.B.B.B.H.Z.B.Z.I.B.",
"B.Z.B.Z.I.x.Z.G.x.x.V.M.y.1.:.u.:X:X,Xf.u.5X,X7X&X9.(.I.B.V.S.S.B.F.V.B.z.B.B.Z.J.Z.z.Z.F.C.B.B.I.x.",
"k.B.C.B.G.V.F.G.C.v.XX@XeX,Xu.-.=.=.-.w.%.O.O.O.O.> p G.B.G.F.v.B.V.B.z.B.V.F.F.F.Z.z.H.Z.C.B.B.Z.k.",
"k.z.F.x.V.F.I.K. X6XeXrXeX,X#...2.2.../ ` [ | +...X.+.N.F.Q.S.v.V.B.B.z.F.B.F.J.B.Z.Z.J.B.B.Z.F.Z.k.",
"x.k.B.B.B.F.).OX8XeX4XqXeX,X+.X.6.6.*.*...} ` O._ } | 9.`.E.C.z.V.B.B.k.F.B.Z.I.x.F.R.Z.B.x.F.J.x.z.",
"A.z.x.C.B.L.OXqX4XrXqXeXrX:XO.| 6. ./ +./ $ ^ | | ^ / $ 0.OXN.z.F.B.B.B.F.z.F.G.B.J.H.B.C.x.F.G.x.B.",
"A.x.x.B.V.j.s.rXeXeX4XeXeX>X> } 6.` + ^ ] X.4.6.6... .) e 6X.Xx.H.V.B.V.B.z.F.H.Z.I.B.B.F.x.F.Z.C.C.",
"G.x.v.B.x.j.<.9XrX9XeX2X1X3X+.( { | } X.3.3.3.3.3.3.3.5.` >X&XE.G.S.F.F.x.B.G.I.E.M.|.H /.V.F.Z.C.Z.",
"G.x.B.V.x.j.#.8XeX4XeX1Xu.3Xi.$ ] 3.3.X.X.2.3.3.3.3.X...$.7X>X).H.F.F.C.z.C.K.U W T yX|.U ^.C.B.B.B.",
"J.k.B.x.k.j.#.p.2X4X2Xu.i.eX,X:.$ ` { 3.5.3.6.5.5.X. ./ w.6X+X`.H.A.F.B.k.l.0 E ! ! ! R uXE n.V.B.B.",
"T.B.B.k.b.;.f.9XeXrX1X@.p.9X3X2X,.O.$ ) ( ` ] ] ` ( / u.+X>X>XM.F.G.C.x.l.F.& ~ yXR R ! ! |.W X 2 Z.",
"J.G.B.g.).>.1X7X7X6X7X,.&.<X1X9X4X,Xi.:.@.@.@.@.&.i.:X:Xt.6X2Xe.S.G.C.C.A.B.. ! Q Q Y Y K k c q X Z.",
"H.G.z.g.F %.r.d.G c C y = q.s.7X8XqXeX2X;X,X2X8X9X7Xs.p $.3X7Xr.XXe.6 h._.9 v R L m l 0 h j v j , I.",
"I.G.z.z.a z A L K v j . . @.#.i.1.1.1.,.#.,.;X1.p.i.:.y %.a.q.q.u.u o o + o z z g h v b M M N b 1 R.",
"!.H.B.z.G.j L iXiXR T B 0 >.8.8.7.7.o.8.8.<.o.o.>.:.%.# o : : q.u 0.u @ t y ; v n m M M M M M n k J.",
"R.Z.C.z.C.B yXaXpXyXyXK b w %.' ' #.' ' ' ) 5 r > # $ : y.t.%.$Xq.i.$XF P.n.& N M M M n m b M K ; G.",
"!.C.A.B.s z ! pXpXyXQ L b 0 i q - O @ 5 5 w e e e w : * p.>X%.1X$Xu Z f z.B.k M N n M M M K M M . C.",
"R.A.H.B.c.  Y uXpXyXY K n & @ e e e e : e e * w y i V i $.+Xp u G A   S.z.B.< j B K K b k k b 1 9 H.",
"H.C.I.B.z.x A E Y K A C G q # 5 5 o = - 8 - i S S S V q g v B Y uXH _.V.z.G.g.1 ; . h n , < {.W.A.!.",
"Z.l._.4 O * n k c r.>X<X6Xq.% % O 3 ^.).6 & x 9 9 q 8 q 8 . x U `.E.A.z.Z.J.B.z.S.V.n./.K.x.A.H.A.!.",
"s o $ > > @ % 0.&Xf.2Xi.9.Z D D * ).V.I.n.= i i V p V E.C.x.z.L.G.A.B.x.I.H.x.g.S.z.V.B.F.B.A.A.A.!.",
"a @ u t 6 m.6 +.<.%.f y * i p i 9 m.x.Q.v.4 i e.e.i V E.A.z.B.F.A.C.B.C.I.J.C.g.V.V.B.z.C.B.Z.B.F.I.",
"Z.D.b.v.A.A.H.b.j.L.P.4 Z d d d F h.x.P.C.^.p e.e.d 0.;.f v.C.C.H.C.B.Z.J.J.B.g.B.B.B.z.C.B.G.z.G.J.",
"Y.A.B.A.C.C.C.T.C.x.E.i d 0.e.0.D 8 v.I.V._.p e.J 0.0.r.Z J B.B.J.F.B.C.T.Z.B.B.B.V.z.k.B.V.F.z.J.G.",
"R.A.C.A.C.x.C.P.C.x.A.E.)./.^./.^.).K.P.S.K.^.oXsX=X)././.).B.B.H.C.x.C.H.Z.B.B.F.B.B.B.B.H.B.B.J.G."
};
