/* XPM */
static char *result[] = {
/* columns rows colors chars-per-pixel */
"50 50 224 2 ",
"   c #3D2C0B",
".  c #3B2E2A",
"X  c #393B29",
"o  c #3C3734",
"O  c #502F10",
"+  c #56321E",
"@  c #77350B",
"#  c #652F16",
"$  c #68381A",
"%  c #77391A",
"&  c #492E25",
"*  c #4A3527",
"=  c #553C29",
"-  c #493B37",
";  c #563C36",
":  c #683C29",
">  c #733D23",
",  c #783E24",
"<  c #574412",
"1  c #49581F",
"2  c #5A5B12",
"3  c #624E1D",
"4  c #74431F",
"5  c #5C691A",
"6  c #497310",
"7  c #577A17",
"8  c #636E0E",
"9  c #57442C",
"0  c #4B532D",
"q  c #545827",
"w  c #484738",
"e  c #584738",
"r  c #694429",
"t  c #744223",
"y  c #784728",
"u  c #68522A",
"i  c #7D552C",
"p  c #694737",
"a  c #7A4C34",
"s  c #68563A",
"d  c #77563B",
"f  c #7C543B",
"g  c #526F2D",
"h  c #587925",
"j  c #78712E",
"k  c #766237",
"l  c #453D40",
"z  c #4A4645",
"x  c #594C46",
"c  c #524D4D",
"v  c #58544B",
"b  c #4D4F51",
"n  c #554D52",
"m  c #4F5156",
"M  c #555354",
"N  c #5C5454",
"B  c #54555B",
"V  c #5A5659",
"C  c #58595C",
"Z  c #664B43",
"A  c #6A5448",
"S  c #735442",
"D  c #785B45",
"F  c #635954",
"G  c #655A5A",
"H  c #605C5C",
"J  c #7A5E56",
"K  c #6C634A",
"L  c #6A6548",
"P  c #766648",
"I  c #6F7544",
"U  c #686759",
"Y  c #786857",
"T  c #5C5F61",
"R  c #5F656B",
"E  c #676567",
"W  c #746B68",
"Q  c #777967",
"!  c #6B6E70",
"~  c #706E70",
"^  c #6E7376",
"/  c #6E767C",
"(  c #727273",
")  c #7C7576",
"_  c #72767B",
"`  c #74797D",
"'  c #7C7B7D",
"]  c #933B0E",
"[  c #853E16",
"{  c #8B3D14",
"}  c #894317",
"|  c #974618",
" . c #BD550C",
".. c #A34715",
"X. c #AC4D15",
"o. c #B45215",
"O. c #BC5513",
"+. c #B2551B",
"@. c #864B29",
"#. c #994F26",
"$. c #86532B",
"%. c #975829",
"&. c #8A4F31",
"*. c #8A5739",
"=. c #985B36",
"-. c #A85423",
";. c #A1572D",
":. c #87673D",
">. c #9B6335",
",. c #9D633D",
"<. c #AA6A2D",
"1. c #A56837",
"2. c #C3560D",
"3. c #C6580F",
"4. c #C35613",
"5. c #C35818",
"6. c #875C44",
"7. c #905E44",
"8. c #8D6143",
"9. c #836B43",
"0. c #88684B",
"q. c #986846",
"w. c #887248",
"e. c #98734F",
"r. c #897255",
"t. c #9B7458",
"y. c #A86B45",
"u. c #AE734C",
"i. c #B77847",
"p. c #B5764A",
"a. c #BC7C4A",
"s. c #A87A57",
"d. c #8C7B6C",
"f. c #827D7D",
"g. c #C37E49",
"h. c #3F8302",
"j. c #3D9300",
"k. c #5B8508",
"l. c #419601",
"z. c #459B01",
"x. c #499E02",
"c. c #4C9709",
"v. c #539C0A",
"b. c #478510",
"n. c #588619",
"m. c #539C11",
"M. c #57951A",
"N. c #679615",
"B. c #4DA203",
"V. c #4EA409",
"C. c #51A604",
"Z. c #54AA05",
"A. c #59AE06",
"S. c #52A50A",
"D. c #55AB0A",
"F. c #59AE0B",
"G. c #5CB206",
"H. c #5DB20B",
"J. c #5AA515",
"K. c #59AD10",
"L. c #5EB311",
"P. c #60B506",
"I. c #61B60C",
"U. c #63B90C",
"Y. c #63A618",
"T. c #61B612",
"R. c #65BA12",
"E. c #69BE12",
"W. c #67B519",
"Q. c #5A882D",
"!. c #5A9224",
"~. c #628427",
"^. c #649B27",
"/. c #6E8F37",
"(. c #68A426",
"). c #6CB226",
"_. c #6BA334",
"`. c #75AD32",
"'. c #72A937",
"]. c #6AC10D",
"[. c #6AC013",
"{. c #768B4D",
"}. c #7CB042",
"|. c #87914D",
" X c #988756",
".X c #AC8557",
"XX c #BC8255",
"oX c #B9885B",
"OX c #8FA74A",
"+X c #968F6A",
"@X c #828779",
"#X c #AC8967",
"$X c #B88864",
"%X c #B19B75",
"&X c #9AAE78",
"*X c #B0A37C",
"=X c #C68149",
"-X c #C78958",
";X c #D68F50",
":X c #CE925E",
">X c #D79256",
",X c #D3945C",
"<X c #DC995B",
"1X c #E59F5F",
"2X c #E4A25E",
"3X c #EBA35C",
"4X c #CB9467",
"5X c #D69662",
"6X c #D69B68",
"7X c #E19F64",
"8X c #DEA368",
"9X c #CBA97B",
"0X c #D6A974",
"qX c #E3A263",
"wX c #E8A567",
"eX c #E5A36A",
"rX c #7A7E81",
"tX c #7B8188",
"yX c #868484",
"uX c #888D93",
"iX c #929296",
"pX c #9398A0",
"aX c #BFB7AB",
"sX c #DCBA83",
/* pixels */
"z.D.D.G.[.A.B.B.V.H.Z.H.D.C.B.F.C.W.H.B.x.z.F.C.x.W.K.Z.l.C.T.C.C.C.Z.B.B.C.B.F.B.C.R.D.z.x.x.A.E.E.",
"l.A.I.G.].G.B.B.x.K.V.H.C.x.x.H.C.F.U.C.x.x.H.C.x.I.T.C.x.F.I.C.B.D.D.z.C.D.B.A.C.C.R.B.x.S.x.G.E.I.",
"z.Z.G.U.U.G.z.C.z.V.V.D.B.z.z.F.V.B.U.Z.x.Z.I.C.B.T.I.z.x.I.K.z.z.D.V.x.C.D.F.D.x.S.T.z.D.S.z.A.U.P.",
"z.C.A.U.G.G.B.D.x.V.V.V.x.l.B.H.D.x.D.Z.z.Z.Z.x.l.F.I.l.C.F.F.l.z.D.B.S.V.B.R.B.z.A.F.z.Z.x.x.A.P.P.",
"j.B.Z.U.G.G.B.V.V.z.V.B.z.z.Z.F.H.B.B.A.C.A.C.C.j.P.R.x.S.F.Z.x.x.L.B.D.j.B.L.F.x.Z.C.x.C.z.C.A.P.P.",
"j.B.C.H.Z.C.A.C.B.l.V.B.x.z.D.A.R.D.B.F.H.A.C.Z.x.F.W.Z.Z.Z.C.C.Z.L.D.x.z.C.A.L.A.C.C.Z.Z.l.C.A.G.A.",
"B.B.B.G.G.B.F.D.V.l.B.x.C.C.Z.A.R.A.x.Z.R.Z.B.A.I.Z.E.H.C.x.x.S.D.H.D.j.B.B.B.R.U.C.C.C.F.x.C.G.P.C.",
"B.F.D.A.U.B.C.K.V.x.V.x.F.I.C.D.R.F.x.F.T.x.C.A.I.C.I.I.C.C.C.D.D.H.V.z.B.B.Z.L.T.Z.C.Z.I.C.C.Z.P.v.",
"z.L.D.B.L.Z.B.K.V.V.D.x.A.I.B.B.T.I.x.C.L.B.B.H.P.Z.A.I.C.Z.Z.C.Z.F.C.z.B.C.H.C.P.Z.x.F.F.C.z.A.I.x.",
"C.L.D.B.F.G.z.B.D.z.V.D.Z.P.z.z.F.K.B.z.F.B.B.H.Z.Z.G.G.C.A.H.C.B.V.B.B.D.C.[.C.D.A.x.F.D.C.z.A.P.x.",
"L.B.C.C.Z.L.B.j.D.x.x.D.I.I.z.z.C.D.D.z.C.B.B.H.C.I.A.A.C.S.H.v.B.B.z.z.A.A.U.B.C.Z.C.D.Z.z.z.A.I.C.",
"F.B.C.B.F.L.B.B.V.B.l.B.U.D.z.l.C.Z.D.C.x.D.Z.H.A.U.C.Z.x.B.F.B.V.B.z.z.Z.H.L.Z.C.C.C.C.C.l.x.A.P.C.",
"C.F.C.B.C.L.V.V.x.V.x.V.R.Z.C.x.x.D.L.D.B.B.U.G.L.F.C.A.x.B.H.x.D.B.B.B.Z.U.G.Z.Z.C.B.A.D.z.B.I.H.C.",
"z.Z.Z.z.V.K.S.K.x.x.!.{.).G.U.C.x.Z.W.C.B.A.U.U.R.B.C.A.B.x.L.V.L.B.B.B.G.U.G.H.F.x.x.P.A.B.Z.I.H.x.",
"j.Z.F.z.B.F.V.D.B.x.{.OXH.D.E.C.z.H.R.S.{.Y.].H.K.B.C.A.V.z.K.V.D.j.B.G.G.U.Z.L.G.B.x.T.Z.A.G.U.A.x.",
"F.Z.H.B.z.V.V.B.x._.%XOXZ.C.U.D.z.L.L.^.%X`.H.H.B.B.D.H.D.j.D.V.B.B.A.G.G.F.B.H.H.z.c.I.A.G.I.H.x.x.",
"D.B.L.V.z.z.B.B.x./.9X*Xv.Z.n.g l.^._.*X9XN.F.C.B.C.B.H.K.j.V.B.V.l.A.G.G.Z.B.H.U.V.B.H.G.U.G.G.x.j.",
"D.B.T.H.B.B.B.B.S. X9X0X.X9 ) iXiX( w +X9X XF.B.C.D.B.F.H.B.V.x.V.z.A.L.F.B.C.Z.H.Z.B.U.G.U.Z.A.l.j.",
"Z.B.H.T.V.B.B.B.Z.j .X9X0XsXA ~ ^ ! V e 0.d.W.B.D.H.B.F.R.B.z.V.B.Z.F.H.Z.B.B.B.Z.U.A.G.].P.C.D.j.l.",
"F.A.A.T.Z.z.B.B.D.J.w.t.#X Xe c G F F F Z W ).B.C.L.H.C.L.K.z.B.x.D.A.A.Z.Z.B.B.C.G.G.G.G.G.B.V.V.z.",
"A.A.B.U.F.B.B.j.D.V.g - W f.E E ) W M E ) B L c.B.L.G.B.F.L.B.B.x.D.D.D.D.F.C.B.B.B.H.A.G.A.B.B.D.z.",
"C.Z.x.H.F.B.B.B.K.I ) T C n ; x Z S J A x e q c.x.L.U.C.Z.D.B.D.B.D.V.Z.x.J.J.m.m.B.A.Z.G.Z.B.z.D.z.",
"B.Z.B.G.H.z.V.z.M.; F z J *.s.$X$X5X8X6X4Xq.{.z.z.H.R.C.B.D.x.V.x.K.v._.@X@X' ) ' Q.S.Z.Z.Z.B.l.V.V.",
"B.C.B.D.F.z.D.j.m.9 6.oXg.g.p.#.<.=.p.6Xy.-.j z.z.D.[.Z.z.V.x.K.x.D.M.Q f.f._ ` ` yXQ C.Z.C.C.z.V.D.",
"B.B.B.D.H.z.D.z.z.6 e.s.=X5Xp.@.[ > , s.$ % j Z.C.C.R.D.z.B.x.D.V.S.E f.` _ _ ( / rXtXI F.C.C.V.D.V.",
"C.C.B.Z.L.z.D.V.h i @.7.$XeX,X1.> 7.$X%Xt.a +XV.Z.C.H.H.x.B.x.D.V.H.F _ _ _ ` _ / rXrX{.U c.B.V.H.V.",
"x.Z.C.B.L.B.(./.a.a.,.1.-Xg.g.-Xy.a.XX-Xs.7.+XS.G.B.A.L.B.V.V.D.B.M.l ! _ _ _ _ / / ` ` yXL c.V.D.V.",
"z.B.C.B.Y.|..X6XeX-X<.-.+.o.-.=.&.[ } | | } : _.A.Z.C.G.B.K.D.x.V.D.0 c _ ` _ _ / / ^ T c z b.V.D.z.",
"l.B.v./.-X0XeX1X1Xg.|  .5.2.o.| -.5.+.#.+.5...q.|.K.B.D.V.L.D.x.C.B.c.e V / ^ _ ^ C c l z M 0 K.Z.l.",
"B.B.:.6XeXeX7X1X1Xa.|  .3.o.@.-.X.] { { [ | -.=.$X.Xv.D.H.L.V.V.v.c./.; - ! ^ E n - z M B B C b.x.z.",
"C.n.:XqX1XqXqXqX1Xp.[ O.5...% { @ [ ..4.o.| } # i 4X#XS.F.H.7  Xy * > > * c N z z M B B m B C m z.B.",
"F.8 -X3XqX2X2XqX1Xa., X.5.{ [ ..X.2.4.2.4.O.2.X.[ $X-Xv.H.m.u q.&.Z : 3 7 L o n C B B B B B B C o Z.",
"F.h g.3XqXeXqX<X=X-X&.] 4.o. .2.2.2.2.2.O.2.2.5.| oX:X^.J.q : 0.D $X6.^.j.m.w M B B B B B B T n X D.",
"F.M.>.>XqXqXqX-X1.5Xy.% | O.2.2.4.4.O.2.2.2.3.X.#.6XoXD e : *.oX6.y..Xn.B.B.F.X C B B B B b z 1 m.B.",
"H.2 1.g.<XqX-X&.p.2X,X1.t } X.O. .O.4.4.O.o..., t.8.> : 8.#X&.g.$Xf a B.j.C.F.g l T B m o 0 h.B.B.x.",
"(.*.;X2X2X2X>X>.*.8X<X;Xg.&.% [ { ] } ] } @.y @.t @ 4 # *.:X$X*.q.8.9 l.B.V.D.C.h.w 0 1 M.K.B.x.V.D.",
"k.>.1XwX7XqX<X1.: t.-X,X1X>X-Xi.y.,.,.y.s.*.y t $ t : & ; 8.6.r : ; & Q.D.B.V.B.z.m.V.B.D.K.B.z.D.F.",
"k.%.6XeXqX4X0.- - p d e.:X:X,X5X:Xa.p.s.i > t r + t.Y c c - & . c M - c.D.B.B.B.x.D.z.B.V.L.B.z.D.L.",
"N.;.s.6X-XJ n z z v - * f ,.>.1.>.a + $ , : 4 %.#.-XD c H E ~ ' ' z g x.D.D.B.F.V.D.B.x.B.D.Z.z.D.R.",
"(.7.7.s.Y B V ~ / E T v e u $.$.4 t y t $ @.<.<.$.u.f c ( uXpXiXE g S.z.D.S.j.V.K.B.B.z.z.Z.A.B.G.G.",
"U.8 =.D E C yXtX_ _ / E c A S + r t r + r i $.y r %.1.f N E yXQ _.L.Z.D.F.B.z.l.L.V.z.z.j.V.Z.A.U.Z.",
"E.D.k Z F ^ pXiXyX` ` H S 6X:X7.> 9 s K K K U K s j q.0.M.B./.J.K.G.Z.U.x.B.x.z.L.V.V.x.j.B.B.G.U.Z.",
"U.Z.(.= . E rXuXpXuX/ x s.5X5Xa.p A L P K K Y s 7 C.v.F.T.S.B.B.K.D.G.A.z.C.B.z.D.D.D.B.j.B.C.U.G.G.",
"P.C.I.C.X l E ( ' tXR A 6X5Xt.A * 9 L L L L s 1 D.C.B.I.T.D.j.C.I.H.U.B.x.D.B.z.D.B.D.B.j.z.Z.U.A.T.",
"Z.Z.U.x.c.h ; x T E m 0.,X:Xq.{.n.  0 w * * . h I.Z.Z.I.G.C.j.Z.R.H.A.z.V.F.x.z.V.V.Z.x.B.z.A.H.Z.[.",
"C.I.H.z.l.5 t : * l - d XXy k.K.B.O d P Y 9.k Y.Z.C.G.P.Z.B.B.Z.G.A.B.x.H.F.B.z.D.x.D.x.Z.B.Z.A.Z.[.",
"Z.R.C.l.O @ > r p s = : p /.R.V.C.6 9 9.:.u s I ~.C.U.G.B.B.B.Z.G.B.B.C.I.I.x.z.V.x.V.x.Z.B.Z.B.D.T.",
"A.U.x.C.< t S p d 9.9.P s 5 H.z.D.h.< e.w.:.:.w.w.2 W.G.Z.B.C.C.G.Z.B.Z.U.G.V.z.x.x.x.z.B.B.A.x.G.L.",
"I.G.C.Z.S.~.(.A P P k P D q c.z.x.z.q 0.r.P 9.w.r.P `.Z.G.Z.B.B.H.V.B.C.U.Z.B.B.B.B.x.z.B.V.D.z.H.F.",
"U.Z.v.H.C.x.B.`.'._.'.}.}.(.x.B.x.x.J.'._.&XaX&X_.).G.C.H.H.B.B.F.Z.x.Z.G.Z.x.B.D.B.B.B.B.D.B.B.H.D."
};
