/* XPM */
static char *result[] = {
/* columns rows colors chars-per-pixel */
"50 50 228 2 ",
"   c #393414",
".  c #3A2C26",
"X  c #3A392D",
"o  c #3F3A3A",
"O  c #47391B",
"+  c #503116",
"@  c #5E361A",
"#  c #692612",
"$  c #6A351A",
"%  c #783818",
"&  c #512D25",
"*  c #473529",
"=  c #593929",
"-  c #4E3A32",
";  c #483C39",
":  c #543E34",
">  c #683A26",
",  c #783D23",
"<  c #673A34",
"1  c #3D7011",
"2  c #3D442C",
"3  c #3F4333",
"4  c #53440D",
"5  c #505314",
"6  c #6E411F",
"7  c #7A421A",
"8  c #6A5E1E",
"9  c #436F09",
"0  c #576A16",
"q  c #497915",
"w  c #527C15",
"e  c #6D781E",
"r  c #494A2F",
"t  c #584729",
"y  c #494636",
"u  c #574638",
"i  c #5A503E",
"p  c #674628",
"a  c #774527",
"s  c #7D4424",
"d  c #684B36",
"f  c #764936",
"g  c #695539",
"h  c #79583B",
"j  c #506C2F",
"k  c #4F7723",
"l  c #676623",
"z  c #696537",
"x  c #6F7030",
"c  c #483E41",
"v  c #4C4242",
"b  c #4A4549",
"n  c #514545",
"m  c #5B4B44",
"M  c #544D4B",
"N  c #5C5549",
"B  c #4D4A51",
"V  c #524E53",
"C  c #4E5559",
"Z  c #545355",
"A  c #5B5354",
"S  c #5B5853",
"D  c #53565C",
"F  c #58585A",
"G  c #5D5B5B",
"H  c #634E40",
"J  c #685747",
"K  c #7A5943",
"L  c #635B59",
"P  c #5C6454",
"I  c #6C6B47",
"U  c #7C6845",
"Y  c #6A735F",
"T  c #727052",
"R  c #595D62",
"E  c #615D60",
"W  c #5E666C",
"Q  c #63636A",
"!  c #686768",
"~  c #756C68",
"^  c #777863",
"/  c #6A6B72",
"(  c #6E7175",
")  c #6E757A",
"_  c #6F797D",
"`  c #747576",
"'  c #7A7775",
"]  c #72767A",
"[  c #72797D",
"{  c #7E7C7D",
"}  c #863C16",
"|  c #94430C",
" . c #8A4219",
".. c #964719",
"X. c #AF4C0E",
"o. c #BB530C",
"O. c #A44B16",
"+. c #AC511B",
"@. c #BC5513",
"#. c #BB5819",
"$. c #854823",
"%. c #964821",
"&. c #975529",
"*. c #835234",
"=. c #885131",
"-. c #87593A",
";. c #935C3B",
":. c #A85624",
">. c #A75927",
",. c #846B3A",
"<. c #9A6338",
"1. c #B56924",
"2. c #A86A3A",
"3. c #C2550C",
"4. c #C6570F",
"5. c #C45612",
"6. c #C35813",
"7. c #875C44",
"8. c #915C46",
"9. c #836C44",
"0. c #986745",
"q. c #857344",
"w. c #89764B",
"e. c #8B6D53",
"r. c #966D54",
"t. c #8B7557",
"y. c #987459",
"u. c #A66B43",
"i. c #A87249",
"p. c #B57848",
"a. c #AA7955",
"s. c #B47B54",
"d. c #8F7967",
"f. c #847E79",
"g. c #AB7E60",
"h. c #C07F46",
"j. c #3B8B00",
"k. c #3D9300",
"l. c #458A05",
"z. c #419600",
"x. c #459B01",
"c. c #499E02",
"v. c #49930C",
"b. c #4D9C0B",
"n. c #53990A",
"m. c #539B0B",
"M. c #4A8B11",
"N. c #588712",
"B. c #589918",
"V. c #63931D",
"C. c #4DA203",
"Z. c #4EA409",
"A. c #4FAA0C",
"S. c #51A604",
"D. c #54AA05",
"F. c #59AE06",
"G. c #52A60A",
"H. c #58A60F",
"J. c #55AB0A",
"K. c #59AE0B",
"L. c #5DB206",
"P. c #5CB20C",
"I. c #5AA814",
"U. c #5EB311",
"Y. c #60B506",
"T. c #61B60C",
"R. c #63B90C",
"E. c #61AB15",
"W. c #61A418",
"Q. c #62B612",
"!. c #64B913",
"~. c #69BD12",
"^. c #588727",
"/. c #5E902F",
"(. c #698C2A",
"). c #78832F",
"_. c #659927",
"`. c #678937",
"'. c #739631",
"]. c #5CA723",
"[. c #71B02E",
"{. c #6BA133",
"}. c #6EA439",
"|. c #76A83B",
" X c #6AC10D",
".X c #6AC013",
"XX c #698D41",
"oX c #799448",
"OX c #778452",
"+X c #788171",
"@X c #D98124",
"#X c #8E9051",
"$X c #B9854E",
"%X c #AF825B",
"&X c #BB935C",
"*X c #88AB4F",
"=X c #888573",
"-X c #A78564",
";X c #B38664",
":X c #BB9566",
">X c #AF9973",
",X c #97A165",
"<X c #B9A07B",
"1X c #C68249",
"2X c #C68959",
"3X c #D38A51",
"4X c #C8925D",
"5X c #D5955C",
"6X c #DA985A",
"7X c #E19B5D",
"8X c #E4A45F",
"9X c #E9A05F",
"0X c #C68C66",
"qX c #CA9466",
"wX c #D79966",
"eX c #E79F65",
"rX c #DEA367",
"tX c #D3AE79",
"yX c #E4A364",
"uX c #E7A569",
"iX c #787C83",
"pX c #7C8085",
"aX c #7F858B",
"sX c #838383",
"dX c #85878A",
"fX c #8B9096",
"gX c #949496",
"hX c #D4B383",
/* pixels */
"x.J.D.P..XL.C.C.Z.P.D.U.G.S.C.K.D.!.K.S.c.x.K.S.c.Q.K.G.x.S.Q.S.S.S.D.S.x.D.C.K.C.S.Q.D.x.x.S.F.~.~.",
"z.F.P.L. XL.C.C.c.K.Z.P.C.C.x.P.S.K.R.S.c.c.P.S.c.Q.Q.S.c.J.T.S.x.K.D.x.S.J.C.K.C.D.!.S.c.G.c.D.~.R.",
"x.D.L.R.P.L.x.S.z.Z.Z.J.C.z.x.P.S.C.R.D.x.D.P.S.c.E.T.x.C.T.K.x.x.K.C.c.S.J.K.G.c.J.Q.x.K.G.x.F.R.Y.",
"x.S.F.R.L.L.C.J.Z.Z.Z.Z.C.z.C.P.J.x.J.J.x.D.F.S.x.P.T.x.S.K.H.x.k.K.Z.J.S.C.!.S.x.K.J.x.D.x.c.F.Y.Y.",
"k.C.D.R.L.F.C.A.C.c.Z.C.c.x.D.P.T.C.S.F.S.F.D.S.z.K.Q.c.D.K.D.x.x.P.S.H.x.c.Q.J.c.D.S.c.D.z.S.F.Y.Y.",
"k.C.D.P.F.D.D.S.Z.z.Z.x.c.x.D.K.!.D.c.K.T.F.c.D.c.K.~.D.D.D.m.S.G.Q.K.x.z.S.J.Q.F.D.S.S.D.z.S.F.Y.D.",
"C.C.S.L.L.C.P.A.Z.z.C.C.S.m.D.D.!.J.c.K.Q.D.c.K.T.J.~.P.S.C.x.J.J.P.G.x.c.Z.C.!.T.S.S.S.P.c.S.Y.Y.S.",
"C.K.A.L.P.C.S.K.Z.x.S.x.F.T.S.D.!.K.c.J.Q.c.S.L.R.S.R.T.S.S.C.J.J.K.S.c.x.C.S.R.Q.D.S.D.T.S.m.D.R.S.",
"z.U.G.C.U.D.C.P.A.Z.J.C.D.R.c.S.Q.K.x.D.Q.c.S.K.L.D.F.T.S.D.D.B.^ ' =X/.B.Z.Q.S.L.D.C.L.K.S.x.F.P.c.",
"D.U.K.C.P.L.k.C.A.x.A.Z.D.Y.x.x.K.Q.c.x.K.Z.c.L.S.D.L.Y.S.D.V.Y f.{ iX=X^ XX!.S.K.F.x.K.D.S.x.F.Y.c.",
"U.C.C.D.K.U.c.x.J.c.C.S.T.T.x.x.D.G.J.x.G.C.C.P.D.T.F.F.c.].^ =X] ] [ _ pX+X' `.I l C.D.G.x.x.F.R.c.",
"P.C.C.C.G.U.C.c.Z.Z.k.C.~.D.x.z.S.D.K.S.x.D.F.L.F.R.S.S.H.+XpXiX) ) ] [ ) _ aX' J < * S.D.z.x.L.T.S.",
"S.K.S.x.J.Q.G.C.C.C.m.B.R.D.S.x.c.D.Q.D.C.S.R.L.Q.P.D.D.x +XaX) ) ] ] [ iX) iXiXiXsX! XXI.z.C.P.Y.S.",
"x.D.D.x.Z.K.A.I.x.C.`.V.R.L.R.S.C.D.Q.G.x.D.R.R.!.C.C.J.[ pX] [ _ ] _ ) ( ( ) ` iXiXiXiXOXB.G.R.P.c.",
"x.D.P.x.c.K.Z.J.C.n.d.|.U.D..XD.C.P.!.b.B.*X~.Q.K.C.D.n.m ] [ [ ] ] ) ) ) ) ] ` ' ] ` ) ! M q I.H.c.",
"G.D.P.x.c.G.Z.C.Z.OX<X|.D.D.I.K.k.P.U.B.-X*XR.P.x.C.A.K.r v L ` ] ] ] _ ) ` ( ] iX] ( G c B B b y x.",
"J.C.U.Z.x.c.Z.c.B.-XhX#Xc.D.r J 1 I.I.{.>X,XK.D.x.J.S.P.I.j.n v R ( [ [ ` [ ] ] ] ( L v n A D R M k.",
"S.C.!.P.C.C.C.C.b.-XtXhXT r ~ dXdXY P =XhX-XW.C.C.K.x.P.U.C.Z.j 2 B ! ( ] ] ] ] ) Q b v V D Z S j k.",
"J.C.P.!.A.C.C.x.I.U :XtXhX<XA { sX{ Q u y.d.E.c.J.P.C.K.Q.A.C.C.m.I c Z ! ( _ _ ! M c Z C Z D 3 j.k.",
"P.D.F.U.S.x.C.C.A.(.w.:X0X-X- m A V R J : H W.S.S.Q.P.S.U.K.x.C.C.0 & = . v W / G ; V D D R b j C.k.",
"F.D.C.P.K.x.C.c.G.].N m ~ ~ ! E f.~ A ~ f.L k c.C.!.L.C.K.K.B.V.1 @ , @ n.^.2 B o n D D F Z v.b.J.c.",
"D.D.C.U.P.c.D.x.G.I ` P Q L B H J J A J J H 0 M.C.U.P.S.S.{.r.g.K 7.= z c.G.W.b.* ; D R S D.C.x.A.C.",
"C.D.C.L.P.x.S.z.C.m L ; K 7.y.0.u.;XqXwX0X0.w c.C.P.~.S.m.B.a 0.7.a.;Xx x.x.U.K.G.v.Z.y q D.C.z.Z.C.",
"C.D.C.A.K.x.J.x.Z.  7.%Xh.1X0X .:.>.p.0Xu...z c.k.A..XC.x.m.d f r.0.0.4 b.x.U.U.J.C.C.B.J.S.S.x.Z.A.",
"C.S.C.D.U.k.J.x.z.+ %Xs.2X3Xh.&.s % , 8.$.# z D.D.C.!.K.x.^.* d i.qX8.6 k.x.S.!.A.C.C.S.D.D.C.C.K.C.",
"C.S.C.D.U.C.K.Z.8 f -.<.4XuX5Xu.*.-.i.;Xa.< 9.G.D.S.P.P.x.  t.a.0.-.K O x.C.x.K.U.C.C.C.P.D.C.A.U.C.",
"C.D.S.C.K.x._.#Xs.p.;.s.3X3X2X2Xu.s.2X4XqXr.9.G.L.S.D.U.+ $ h h.qXK u l.C.C.c.C.P.D.C.S.F.D.C.C.P.c.",
"x.C.S.m.#X#X&XrX7Xp.>.:.:.o.:.<.=. . ...} $.$ 0 K.I.G.z $ f & p @ . n 1 C.C.K.K.F.D.x.K.S.S.C.C.J.x.",
"x.c.'.$XwXuXuXyX7Xu.X.3.#.5.X.} +.o.@.:.O.#.:.*.d.#Xz > $.> ; ; u ! F j A.C.A.P.C.F.S.P.S.C.D.D.J.k.",
"x.V.qX8XyXyX8XrX7X<.O.3.3.#...+.#.O.} %  ...+.:.s.a.$ s > u W pXdX+XX M.K.C.A.U.C.A.P.D.C.C.J.P.C.z.",
"S.2.uXrXyXyXyXyX6X=.} 3.5.%.% } } % | o.o.O. ., < > a $ : R ] gXfX` 3 C.D.C.A.L.C.P.L.D.S.x.J.K.C.C.",
"N.2.9XrX8XyXyXyXs.-.} @.@.} % ..X.3.5.5.@.3.@.%.# a 7 a u Q dXgXaXC k D.S.k.F.F.A.P.C.C.A.C.A.D.S.C.",
"n.%.6XuXyXyXyXuXu.;.% O.6.o.@.#.3.4.@.o.3.3.#.% % $.$ 2.$XK ~ d.T d J.J.x.C.K.F.P.D.x.C.K.A.D.S.D.D.",
"L.8 i.6X7X8XyX6X&.*.*.% O.o.5.6.3.4.4.3.3.#.%.$ 7 % -.5X8X6X5X4X2Xx K.S.x.C.K.K.D.C.x.x.A.A.S.C.S.C.",
"P.z.p i.5X8XuX6Xh.u.-.*.% %.O.@.4.4.3.@.@.O.$ 7 6 $ p.uXuXyX8XrXw.I.S.C.z.C.K.D.C.C.C.x.A.A.C.C.C.C.",
"T.S.z $X7XyXyXyXuXs.*.f ;.$.% } }  ... . .$ p $.> f s.qXqXqX&Xx K.P.C.C.C.S.A.D.C.C.C.C.K.K.C.C.C.A.",
"T.D.N.u.uXyXuXeXa.K - . : K a.p.0.<.&.<.$ 6 7 s 0.#X|.'.V.)._.C.S.K.C.S.G.C.G.x.C.A.x.C.D.P.C.C.J.P.",
"T.J.l.&.s.7XwXy.L c V G D B J i.$Xp.u.0.$ a $ *.0.oXL.F.C.x.G.c.C.K.C.c.K.C.C.C.x.A.x.C.D.P.C.k.G.U.",
"R.J.c.8 0.0.e.! M Q ] ] / Q V c * *.*.+ 7 6 s 2..._.F.F.C.C.D.C.C.L.C.c.J.K.C.D.C.J.C.C.C.A.D.C.K.R.",
"T.K.S.9 -.7.L R ~ gXaXiX' ] / V g 7.& a a p 1.@X1.oXD.F.S.x.c.S.S.R.D.x.G.G.k.A.K.C.C.k.C.D.D.C.T.L.",
"R.D.D.M.= < m b iXfXgXfXpX_ Q H 0XrXa.a f 7.a <.7 n.S.S.D.x.x.C.D.L.F.A.A.C.C.x.U.C.C.k.k.D.D.D.R.D.",
"~.D.D.S.O H - y / iXaXgXdX( m %XuX3X4Xs.f g J I t m.S.D.K.C.x.x.P.L.F.U.C.C.C.k.K.A.C.c.k.Z.C.L.R.S.",
"T.D.P.C.0 J L i v L / [ ) D K wX6XqXi.a d J T i z G.C.L.U.D.C.C.P.K.L.F.C.C.C.k.J.A.J.C.k.C.S.R.L.L.",
"T.S.U.C.x.y J N y ; c A P b y.rXs.i.-.u N g J   P.D.C.P.R.J.x.S.U.P.L.C.C.A.C.C.J.Z.J.C.k.x.D.R.L.!.",
"D.D.Q.c.C.q * t = t t t y - *.$X;XK . - = u X ^.P.D.D.P.L.S.x.S. XP.L.x.S.K.C.x.G.C.A.C.C.C.S.P.D.~.",
"S.Y.T.x.C.F.t 9.U U U h 5 q O > & p -.U 9.q.g _.F.S.P.L.F.x.C.S.F.F.C.C.P.P.C.k.G.x.A.C.D.C.D.L.D..X",
"S.Q.S.x.D.D.5 i g g t t M.A.1 U j 9 t U g t t z (.D. XL.S.C.C.D.F.C.C.C.P.R.C.x.C.C.C.x.D.C.D.C.J.U.",
"F.R.S.c.D.C.C.h ,.,.,.h 8 v.A.].U.z.t w.,.,.,.q.U 5 U.L.S.C.S.C.P.D.C.D.U.P.C.k.C.C.C.x.C.C.D.C.K.P.",
"T.L.C.D.D.c.N.T t.e e w.z q K.*X*XoXP w.w.q.w.w.t.g U.D.L.D.C.C.P.D.C.C.P.D.C.C.C.S.C.k.C.C.A.C.K.K.",
"R.F.m.P.S.S.W.|.{.I.E.|.[.J.C.|.|.}.}.|.}.}.{.{.{.[.P.C.P.P.C.C.K.D.C.D.L.D.C.C.A.C.C.C.C.K.Z.C.P.D."
};
