/* XPM */
static char *result[] = {
/* columns rows colors chars-per-pixel */
"50 50 232 2 ",
"   c #3A3817",
".  c #3F2D28",
"X  c #3C3528",
"o  c #3A3634",
"O  c #513217",
"+  c #59331A",
"@  c #672D14",
"#  c #62341E",
"$  c #693618",
"%  c #793718",
"&  c #753C1B",
"*  c #502D27",
"=  c #493629",
"-  c #4C3C2B",
";  c #593A29",
":  c #473A37",
">  c #5A3D37",
",  c #683B25",
"<  c #62372B",
"1  c #783A26",
"2  c #38500C",
"3  c #3D6405",
"4  c #324523",
"5  c #4E5310",
"6  c #7C431D",
"7  c #6D571F",
"8  c #4B7410",
"9  c #487716",
"0  c #64741B",
"q  c #727F15",
"w  c #46432E",
"e  c #574329",
"r  c #555229",
"t  c #4B4B3B",
"y  c #574736",
"u  c #5A553A",
"i  c #644829",
"p  c #7D4423",
"a  c #78472A",
"s  c #715A20",
"d  c #674B38",
"f  c #724734",
"g  c #794D34",
"h  c #6A573B",
"j  c #7A5538",
"k  c #4E7C23",
"l  c #587A25",
"z  c #596B35",
"x  c #597836",
"c  c #666729",
"v  c #6B7827",
"b  c #6E6E33",
"n  c #7B663C",
"m  c #454145",
"M  c #4C4747",
"N  c #564946",
"B  c #515349",
"V  c #5D544D",
"C  c #534D52",
"Z  c #535155",
"A  c #595254",
"S  c #55555A",
"D  c #5A555A",
"F  c #5B5A5C",
"G  c #635B43",
"H  c #6D5C43",
"J  c #655749",
"K  c #69554B",
"L  c #755743",
"P  c #635C59",
"I  c #6A6747",
"U  c #6B624A",
"Y  c #7D6543",
"T  c #786646",
"R  c #6F764E",
"E  c #666758",
"W  c #736C51",
"Q  c #786A5D",
"!  c #5D5F66",
"~  c #635F60",
"^  c #5F676D",
"/  c #6A6463",
"(  c #696769",
")  c #66696C",
"_  c #726A67",
"`  c #75706B",
"'  c #686C71",
"]  c #6C7176",
"[  c #6E767B",
"{  c #6E797B",
"}  c #777674",
"|  c #73767A",
" . c #74787C",
".. c #7B7B7D",
"X. c #8A3B0F",
"o. c #863A14",
"O. c #8B431D",
"+. c #98461B",
"@. c #A44D19",
"#. c #B25416",
"$. c #B85717",
"%. c #884926",
"&. c #894C2C",
"*. c #934B25",
"=. c #885729",
"-. c #96562B",
";. c #824E34",
":. c #875839",
">. c #985C37",
",. c #A85524",
"<. c #A95727",
"1. c #83693E",
"2. c #996339",
"3. c #967234",
"4. c #AB662E",
"5. c #B7692C",
"6. c #A66635",
"7. c #AC6B3B",
"8. c #B87239",
"9. c #C5560C",
"0. c #C35814",
"q. c #C6731E",
"w. c #8C5B42",
"e. c #896948",
"r. c #8D6D4F",
"t. c #986747",
"y. c #8A7754",
"u. c #997557",
"i. c #A46C46",
"p. c #A3764F",
"a. c #B7794A",
"s. c #A77956",
"d. c #BA7E52",
"f. c #8E7E72",
"g. c #C67D44",
"h. c #3E9300",
"j. c #4A8B0A",
"k. c #419600",
"l. c #459B01",
"z. c #499E02",
"x. c #4A9609",
"c. c #539C0B",
"v. c #528412",
"b. c #528C16",
"n. c #579818",
"m. c #4CA203",
"M. c #4EA409",
"N. c #4EAA0B",
"B. c #51A604",
"V. c #54AA05",
"C. c #59AE06",
"Z. c #52A609",
"A. c #58A50D",
"S. c #55AA0A",
"D. c #59AE0B",
"F. c #5CB206",
"G. c #5CB20B",
"H. c #5CA313",
"J. c #5AA813",
"K. c #5EB311",
"L. c #60AF0E",
"P. c #60B506",
"I. c #61B60C",
"U. c #63B90C",
"Y. c #64A91A",
"T. c #61B612",
"R. c #68B717",
"E. c #64B912",
"W. c #5A8726",
"Q. c #568C29",
"!. c #599823",
"~. c #658A29",
"^. c #738D2C",
"/. c #659A29",
"(. c #648836",
"). c #699A37",
"_. c #65A624",
"`. c #6CA134",
"'. c #77AB3A",
"]. c #6AC10D",
"[. c #6AC013",
"{. c #6E9843",
"}. c #799350",
"|. c #7F8673",
" X c #87863A",
".X c #A88B3D",
"XX c #918848",
"oX c #B08155",
"OX c #B88559",
"+X c #938C6A",
"@X c #89837E",
"#X c #A78664",
"$X c #A5966B",
"%X c #B99466",
"&X c #B69473",
"*X c #8FA768",
"=X c #C4824B",
"-X c #D38A46",
";X c #C88755",
":X c #CB8D5D",
">X c #D78B52",
",X c #CF945D",
"<X c #D49359",
"1X c #D9975A",
"2X c #E19653",
"3X c #E4A25D",
"4X c #E9A35D",
"5X c #C38D68",
"6X c #CA9566",
"7X c #D59A64",
"8X c #DC9C64",
"9X c #D39B6B",
"0X c #D89A68",
"qX c #E69F65",
"wX c #DEA468",
"eX c #C6A87D",
"rX c #D6AE76",
"tX c #E4A363",
"yX c #E9A466",
"uX c #E3A46A",
"iX c #6D7B81",
"pX c #777C81",
"aX c #7F8386",
"sX c #838284",
"dX c #888587",
"fX c #83858A",
"gX c #8B8A8E",
"hX c #8F9085",
"jX c #898C92",
"kX c #8E949A",
"lX c #929497",
"zX c #D9B580",
/* pixels */
"l.S.V.F.[.C.m.m.N.G.B.K.V.m.z.D.Z.R.G.m.x.k.D.B.z.T.G.V.k.M.K.B.B.B.V.B.z.B.m.D.m.B.E.Z.l.z.m.C.E.[.",
"k.C.I.F.].G.m.m.z.S.Z.K.B.z.z.I.B.D.U.B.h.R dXdXdX@XhX{.!.(.M > ; 8 /.n.Z.S.m.D.B.Z.E.B.m.M.z.C.U.I.",
"l.V.F.U.U.F.l.B.l.M.M.S.m.k.l.D.B.m.U.V.E dXpXiX......aX|.sXdXfXsX} {.!.H.b.9 b.x n.L.z.D.M.k.F.U.P.",
"l.B.C.U.F.F.m.S.z.M.M.M.z.l.m.G.S.z.S.Z.E gX| | | | [ | pX| { { | } ..pX| C M A S Z A.z.V.l.m.V.U.P.",
"h.m.C.G.F.F.m.N.M.l.M.m.z.l.V.D.G.m.m.J./ jX[ | | | [ [ [ | | | | | | ] ( o M S S S b.m.B.l.m.F.P.P.",
"h.m.B.F.S.B.C.m.M.h.M.m.l.z.V.C.R.V.N.}. .aX{ | | | | pX| | | | | | | | P : S S S S B B.S.h.B.F.P.V.",
"m.m.B.F.F.m.D.S.M.k.m.z.B.c.V.C.R.S.m.R fXaX{ [ | | | | | | | | | | | | D : S S D x X B.G.m.B.F.U.B.",
"m.D.N.F.K.m.B.D.M.z.m.m.C.I.Z.V.E.C.z.z gXsX{ { [ | | | | | | | | } | | C m S S D A.B.S.G.B.m.C.I.B.",
"l.K.S.m.U.B.m.D.M.M.S.m.V.U.z.z.T.G.z.k P _ ] ] | | | | | | | |  .| | ] M M S S D Q.z.D.C.B.l.C.I.z.",
"V.K.S.m.D.G.h.N.N.l.S.M.V.I.z.z.S.G.m.l.k E t : o o M D ! ( ( ) ^ ^ ] ) m N D S D S j.C.S.B.l.C.C.z.",
"K.m.m.V.S.U.m.k.S.l.m.B.I.I.z.l.V.S.S.l.Z.c.x.F.B.G.).}.y - y M 4 4 M Z : : Z C N o x V.Z.z.l.C.I.B.",
"G.m.m.m.S.K.z.m.M.N.h.m.U.Z.l.k.B.Z.S.m.m.B.C.F.C.U.m.V.3 < , 5 M.z./.).(.l v.8 m.c.B.B.Z.h.z.C.P.B.",
"B.C.B.z.Z.K.N.m.m.m.z.Z.U.C.B.z.m.V.G.S.z.V.U.F.E._.n./.e & # 3 K.z.z.m.V.U.G.V.V.B.m.D.S.l.m.I.F.B.",
"l.S.V.l.m.K.N.J.l.m.c.!.I.C.U.B.z.S.E.Z.z.V.U.U.`.$X%Xt.< j j c Y.z.m.m.C.U.F.G.C.z.z.F.C.m.V.U.F.z.",
"l.V.G.l.z.J.B.S.m.m./.+XY.C.E.Z.l.D.R.M.z.C.Y.*X+XOX0Xt.g OX:Xu.: u m.S.G.U.B.U.F.m.z.T.S.V.F.U.D.z.",
"Z.S.G.z.z.M.M.m.m.n.XX$Xn.V.U.Y.l.K.T.z.z.Y.$X}.c.7 s.g ; p.p.j y A t T.F.C.m.T.G.z.l.I.F.F.G.G.c.z.",
"S.m.G.N.h.m.m.m.m.0 %XzX(.S.Q.J 9 M.).n.J.$XeXl N.x.5 j t.<X<Xu.V } Z D.I.B.m.G.I.m.z.I.F.U.F.F.m.h.",
"N.m.E.D.m.m.m.m.B.v &XrXeXn = ( gXdX@XE E &XzXXX!.N.b.j r.i.>.; F jXfXK.C.z.V.V.G.C.m.U.F.U.C.C.h.h.",
"V.m.F.E.N.m.m.m.S.c oXwXrXrX&XP pXaX|.` P N u.e.b.N.x u.p.7X5Xy / fXkXdXc.l.m.m.S.U.S.P.].P.B.S.h.h.",
"F.S.S.G.N.m.m.m.D.!.R #X%X%X#X> N A J A D C : K Q.N.j.e :.>.j N ` aXkXlX@Xv.m.m.m.G.F.F.F.F.m.M.m.m.",
"F.V.B.G.S.m.m.h.D.m.(.M K _ Q E ( / dXP P _ @XK 4 b.b.O 1 O : ~ [ [ aXkXkX..V z.m.m.F.F.F.C.m.m.N.z.",
"B.S.m.F.D.m.B.m.S.z.} _ ~ ( P M A N K K K L N N : I u , a ; > A ) {  .gXlXf.N B.m.m.C.V.F.V.m.l.S.z.",
"m.B.m.F.G.l.S.h.c.v.R M m P L s.t.t.OX5X7X9XOXr.* b.5 $ & L ` o N / / _ Q t.u.H.B.l.B.V.V.V.m.h.M.m.",
"m.B.m.S.D.l.S.l.x.y > i.g.g.g.0X-.+.<.6.d.5X6.<.$ Z.5 1 & d s.s.p.w.g 6.oX3XwX^.V.z.m.B.V.B.B.l.M.N.",
"m.B.m.S.G.k.S.l.x.l r.OXs.g.>X:X>.&.o.o.1 w.% % i A.5 %.@ &.8XyXuXuX,X1XyXtXyXoXJ.m.m.B.F.B.m.m.D.m.",
"B.B.m.V.K.m.D.M.W.g %.w.t.6XyX1Xa.&.d w.s.&Xr.f e.v.+ p @ >.qXqXuX3X4X3XtXtXuX#XY.m.m.m.D.B.m.B.K.m.",
"m.B.B.m.K.m._. Xd.g.6.>.d.;X;Xd.g.g.i.5Xg.9X5Xt.u.z % p , 7.qXwXtXwX1X3XtXqXoXn.G.N.l.N.D.m.m.m.G.m.",
"k.B.B.m.J.XXOX9X4X2Xi.-.5.$.$.#.<.w.% %.O.&.% O.a * % 6 , 7.-X<X;XoX5XuX1X XH.S.F.V.l.F.V.B.m.N.D.h.",
"h.z.H. X%X1XyXuXuX>X-.,.9.0.0.0.<.o.@.$.$.+.+.$.+.+ 6 O.a i.4.>.t.OXwX:Xv m.S.G.N.V.m.G.B.m.V.S.S.k.",
"m.k.XX8X4X3XyXuXuXg.*.,.9.9.0.0.+.@.0.@.X.$ % @.+.+ 6 , + :.i.5XrX9XoX~.F.m.N.K.m.V.K.V.m.m.S.F.m.k.",
"V.0 6XuXwXyXtXwX0X;X&.+.0.9.0.0.o.*.o.% +.,.@.X.$ ; %.$ &.5.g.7X.X3.n.z.A.z.N.F.m.F.F.B.B.l.N.C.m.m.",
"G.s g.wXwXyXtXtXqXqX>.o.+.#.0.0.o.@ o.@.$.$.@.%.< @ 1 , g 1.q ~.S.Z.Z.B.m.z.N.D.C.K.m.m.N.m.S.S.B.m.",
"G.l.>.>X3X4X4XyX3XwX=Xd.i.&.%.O.* * a ;.1 1 # w.r.t.t.1 1 n.B.V.C.A.S.S.l.m.D.S.G.V.l.m.G.N.V.B.S.B.",
"G.l.8 t.8.=X>X1X3X4X4XtXqXe.o * N S Z B A C d 7XqXuX0Xs.r c.V.V.F.V.D.B.l.m.F.D.S.m.l.l.N.N.B.m.B.m.",
"F.l.B.j.i t.6.;XtXqXqXyX:XL m M ` ] ' _ ] S j uX<X;Xd.w.v.B.C.m.D.D.B.m.k.m.S.S.m.m.m.l.N.N.m.m.m.m.",
"I.z.m.z.< 2.8.>X8XtXtXuXs.C m ( | iXpX| | ( y 6XqX7X7Xd.v.m.m.m.D.C.B.m.m.B.V.S.m.m.m.m.D.D.m.m.m.Z.",
"G.C.z.x.w.;.-.a.a.d.9XuXs./ C pXgXfXjXjXaX] N r.9XOXa.t.(.l.M.z.B.C.m.m.S.m.S.l.l.N.h.m.S.G.m.m.S.D.",
"G.S.k.k.c t.g ;.7.7.t.s.e._ D pXlXlXlXjXfX{ D u OX<X:Xu.(.l.S.m.m.C.m.z.S.m.m.l.m.N.m.m.V.G.N.h.S.T.",
"E.C.z.l.~.2.4.4.-.>.i.7.>.K D m ] | [ ' ' ^ S M > ;.;.+ m.m.m.m.m.I.m.z.D.S.l.S.m.S.m.m.m.D.B.m.S.U.",
"E.C.m.l.n.6.q.q.q.<.-.>.w.1 > : y V N N d h i ; ; @ a s B.m.m.m.Z.I.B.z.S.Z.l.S.S.m.m.l.l.B.V.m.I.F.",
"U.V.B.l.z.+ =.g =.-.=.=.j j f d d d a j g =.g @ p a $ r B.l.l.m.S.G.C.S.S.N.m.h.K.m.z.h.h.Z.B.S.U.V.",
"U.S.V.m.B.  T H I h H H H L H n I H h h H U L ; e e * W.S.m.l.m.G.F.C.G.m.m.m.l.K.N.m.z.h.N.m.F.U.V.",
"U.C.G.m.B.  R W W W W W I I V u 5 y y u W W W U I h r D.K.V.m.m.G.C.F.C.l.m.m.h.S.S.S.m.h.m.V.U.F.F.",
"F.B.K.M.z.5 u V u I G G y = . ~.B.2 = I U u G H h y x.G.E.S.l.B.K.F.F.m.m.S.m.m.S.m.S.m.h.z.V.U.F.E.",
"V.C.I.z.z.b.- e - e w - e w v.D.B.m.2 = - - - - -   m.F.F.N.l.B.[.G.C.l.N.D.m.l.S.m.N.m.m.m.V.G.V.U.",
"Z.I.D.z.B.c.e e.Y n n e.h d `.V.B.m.3 i Y T Y Y T 5 F.F.B.m.l.S.D.F.m.m.G.G.m.h.S.l.S.l.m.m.V.C.S.[.",
"Z.U.Z.l.B.B.= e h r i e = R R.B.N.m.3 = h n n ; O e '.Y.B.m.m.S.F.m.m.m.G.G.m.h.m.m.m.l.S.m.C.m.S.K.",
"V.U.z.B.V.B.v.d Y e.1.n j W n.z.N.l.N.O e.3.b h j 1.e.0 B.m.B.B.F.B.m.V.U.G.B.h.z.M.m.l.B.m.C.l.D.K.",
"U.F.z.C.V.c.B.c y.y.y.y.y.b z.z.z.l.m.8 n T e.y.R y.y.T F.V.m.m.G.N.m.m.G.V.m.m.m.N.l.k.m.m.S.m.D.D.",
"U.V.B.F.V.z.m.T.`.`.'.'.'._.z.m.z.z.c.D._.`.`.`.).'.'._.G.F.m.m.F.S.m.B.F.C.m.m.S.m.m.m.m.D.m.m.G.S."
};
