/* XPM */
static char *result[] = {
/* columns rows colors chars-per-pixel */
"50 50 225 2 ",
"   c #38371F",
".  c #373A2D",
"X  c #4C290F",
"o  c #5B2A1B",
"O  c #483A16",
"+  c #672913",
"@  c #753A19",
"#  c #7B3D1C",
"$  c #442D2B",
"%  c #493627",
"&  c #593927",
"*  c #4A3739",
"=  c #553F37",
"-  c #643A22",
";  c #633A26",
":  c #763E25",
">  c #2C4907",
",  c #334D0B",
"<  c #3D5B0C",
"1  c #354918",
"2  c #3D5912",
"3  c #3F4028",
"4  c #495709",
"5  c #4A481F",
"6  c #4A5115",
"7  c #6E491C",
"8  c #517410",
"9  c #726C1A",
"0  c #697B14",
"q  c #4E462D",
"w  c #56472A",
"e  c #495B23",
"r  c #5D592C",
"t  c #4C4539",
"y  c #5D4B33",
"u  c #574539",
"i  c #5D5437",
"p  c #65462B",
"a  c #794426",
"s  c #685727",
"d  c #664C37",
"f  c #784B34",
"g  c #6A5436",
"h  c #65533D",
"j  c #7A5738",
"k  c #577624",
"l  c #546A34",
"z  c #676F30",
"x  c #77613A",
"c  c #4B4847",
"v  c #564A49",
"b  c #5A5745",
"n  c #564E53",
"m  c #555254",
"M  c #5B5455",
"N  c #5B565A",
"B  c #5E595D",
"V  c #665946",
"C  c #775744",
"Z  c #665A5A",
"A  c #5C7242",
"S  c #6B6349",
"D  c #78664B",
"F  c #667A4A",
"G  c #756955",
"H  c #6E7255",
"J  c #5C5B61",
"K  c #615E62",
"L  c #6A6562",
"P  c #656469",
"I  c #756964",
"U  c #767669",
"Y  c #6C6D72",
"T  c #766E73",
"R  c #6F7679",
"E  c #737576",
"W  c #7B7674",
"Q  c #72767A",
"!  c #74797B",
"~  c #7C797C",
"^  c #873A18",
"/  c #803E21",
"(  c #99460E",
")  c #86421D",
"_  c #994618",
"`  c #8F5719",
"'  c #AB4C0C",
"]  c #BE580E",
"[  c #A74A17",
"{  c #B34E12",
"}  c #AC5318",
"|  c #B55114",
" . c #BC5414",
".. c #BA5B1B",
"X. c #864925",
"o. c #8B4E2A",
"O. c #8C512A",
"+. c #955029",
"@. c #81543B",
"#. c #985934",
"$. c #925B3B",
"%. c #AA5525",
"&. c #B65723",
"*. c #84683C",
"=. c #96623A",
"-. c #A96A3A",
";. c #AE733C",
":. c #C3570C",
">. c #C35612",
",. c #C15915",
"<. c #825D46",
"1. c #935744",
"2. c #866C46",
"3. c #9C6A46",
"4. c #976748",
"5. c #867445",
"6. c #96704F",
"7. c #886F58",
"8. c #9A7855",
"9. c #A26B44",
"0. c #A66B49",
"q. c #A97348",
"w. c #B37748",
"e. c #A47452",
"r. c #A87A54",
"t. c #B27D56",
"y. c #977A66",
"u. c #827B79",
"i. c #C27C48",
"p. c #C47F53",
"a. c #3F9401",
"s. c #4A8503",
"d. c #55870D",
"f. c #439602",
"g. c #4B9403",
"h. c #469B02",
"j. c #499E02",
"k. c #4A970A",
"l. c #509107",
"z. c #549D0B",
"x. c #4E8516",
"c. c #558A16",
"v. c #4F9314",
"b. c #599918",
"n. c #688C1B",
"m. c #669619",
"M. c #4DA203",
"N. c #4EA408",
"B. c #51A604",
"V. c #54AA05",
"C. c #59AE06",
"Z. c #51A609",
"A. c #55AB0A",
"S. c #59AE0B",
"D. c #5DB206",
"F. c #5DB20B",
"G. c #59A313",
"H. c #5BAE11",
"J. c #5AA618",
"K. c #5EB311",
"L. c #61B60C",
"P. c #63B90C",
"I. c #68BF0C",
"U. c #62A716",
"Y. c #61B611",
"T. c #66BA12",
"R. c #5B8926",
"E. c #5B9425",
"W. c #6B8E23",
"Q. c #669829",
"!. c #76962F",
"~. c #618A37",
"^. c #7B843E",
"/. c #6D9D35",
"(. c #64A523",
"). c #6CB525",
"_. c #6CA134",
"`. c #6EA834",
"'. c #75A939",
"]. c #758C46",
"[. c #6E8253",
"{. c #7DB141",
"}. c #798962",
"|. c #8D8A2F",
" X c #A4903D",
".X c #8C9457",
"XX c #BC864B",
"oX c #AF8B59",
"OX c #B78458",
"+X c #8FA450",
"@X c #9C8970",
"#X c #A98D6A",
"$X c #BE8C63",
"%X c #B89466",
"&X c #C8844B",
"*X c #D2874C",
"=X c #C48654",
"-X c #C78954",
";X c #CB8C5B",
":X c #D18E52",
">X c #CD935B",
",X c #D5945B",
"<X c #D8975B",
"1X c #E09D5D",
"2X c #E6A55E",
"3X c #C48F64",
"4X c #CB9466",
"5X c #D89B66",
"6X c #DC9B64",
"7X c #E29E65",
"8X c #DFA462",
"9X c #C9A87A",
"0X c #D6AA75",
"qX c #E3A264",
"wX c #E6A566",
"eX c #E5A971",
"rX c #6A7882",
"tX c #747B82",
"yX c #7B7D81",
"uX c #7D8184",
"iX c #86878A",
"pX c #909397",
"aX c #AB9682",
"sX c #C4AB87",
"dX c #D5B580",
/* pixels */
"h.A.C.D.T.D.M.M.N.A.A.K.V.M.M.A.A.K.F.B.M.a.V.Z.M.K.S.A.h.B.S.V.B.B.V.M.M.M.M.C.N.B.K.C.M.h.M.C.I.T.",
"h.C.D.L.I.D.M.M.M.A.A.S.M.M.h.F.A.F.P.B.h.M.S.B.B.K.F.N.M.Z.F.M.M.N.V.j.N.A.M.V.M.V.K.Z.M.B.M.B.I.F.",
"h.V.D.L.P.D.M.M.h.N.N.Z.M.h.h.A.N.M.L.V.M.B.D.B.M.S.F.M.M.S.F.h.h.A.N.j.M.A.A.A.M.A.K.M.Z.N.M.C.P.L.",
"h.B.C.L.D.D.M.Z.j.N.N.N.M.h.M.F.A.M.A.V.M.A.C.M.M.A.K.M.M.F.A.h.h.A.N.N.M.B.P.A.M.C.A.M.B.h.M.B.D.L.",
"a.M.V.D.D.C.B.B.N.h.N.N.h.h.V.F.F.B.M.C.B.C.B.M.f.S.Y.M.Z.C.Z.j.j.A.Z.A.M.M.K.A.M.B.B.B.B.a.B.C.L.D.",
"h.M.B.S.C.B.V.B.j.h.j.M.j.j.B.S.Y.V.M.C.S.C.M.B.M.C.Y.C.V.V.B.B.V.F.A.j.h.M.V.F.S.B.B.B.B.h.B.C.D.C.",
"M.M.B.D.D.B.A.A.N.h.j.M.B.B.V.A.Y.C.M.A.K.C.M.C.S.S.P.F.B.B.M.Z.A.S.A.h.h.M.B.L.K.B.B.B.C.B.B.D.L.V.",
"M.A.A.C.F.B.Z.A.N.M.M.M.V.F.V.V.K.S.j.V.S.N.B.D.L.B.F.L.B.B.M.A.A.A.N.h.M.M.V.K.F.C.B.C.S.B.B.B.L.B.",
"M.K.Z.N.K.B.M.A.N.N.N.M.C.F.M.M.K.F.h.B.C.M.B.S.C.V.C.L.B.V.V.B.B.A.B.h.M.B.K.A.S.C.M.C.C.V.j.C.D.B.",
"B.S.A.B.S.C.M.M.Z.N.N.Z.A.F.h.j.Z.F.M.M.A.z.B.V.V.C.C.L.B.V.S.B.M.A.M.M.V.V.Y.V.V.V.M.A.V.B.h.V.D.M.",
"S.M.B.B.A.K.M.M.Z.h.M.V.D.D.j.h.B.Z.Z.M.B.M.B.S.V.L.C.C.M.B.S.B.M.M.j.h.V.S.I.V.B.V.B.V.V.h.h.C.L.B.",
"S.M.B.B.B.K.M.N.N.M.h.N.L.C.h.a.B.B.C.B.M.8 z.S.C.P.B.B.j.z.S.B.M.M.h.j.B.D.K.B.M.B.B.N.V.a.h.C.L.B.",
"B.A.M.M.B.K.Z.N.M.M.M.B.L.A.B.j.M.B.K.A.Q.H U.L.K.S.B.V.j.M.C.N.A.N.j.M.V.F.D.V.V.M.M.C.V.h.M.F.D.B.",
"M.A.B.M.N.S.Z.Z.j.M.M.F.L.D.D.B.M.C.T.Q.#X].I.P.P.B.B.A.M.M.A.N.A.M.j.M.C.P.D.D.C.M.M.C.C.M.V.D.D.M.",
"h.A.A.M.M.Z.Z.Z.j.B.C.P.K.S.I.V.M.F.`.@XsX{.T.K.S.M.B.C.N.N.Z.N.A.j.B.C.D.P.C.F.S.M.M.C.S.C.D.D.V.j.",
"B.B.F.M.M.N.N.N.j.S.F.D.V.V.L.V.M.F.W.%XsX{.Q.s.a.M.B.K.Q.k.Z.N.M.j.V.D.D.A.M.F.S.N.h.S.S.D.D.D.B.j.",
"A.M.K.N.h.M.M.M.j.S.K.D.M.V.D.F.j.A.W.%XdX@XZ Z 1 Z.Z.+XaXQ.N.N.M.h.V.L.D.M.M.D.D.N.M.D.D.D.D.D.M.a.",
"N.M.K.S.M.h.M.h.N.S.F.A.j.B.V.F.Z.A.n.oX0X9XG pXiXe ].sX+XN.a.N.N.M.A.L.D.M.B.V.D.A.N.D.D.I.D.V.h.a.",
"V.B.S.P.Z.M.M.M.Z.S.S.M.j.B.B.D.F.C.!.D e.r.V K yXP G 9X!.Z.M.N.M.B.V.K.A.M.M.B.V.L.C.D.I.P.V.A.a.a.",
"C.V.C.S.V.M.M.h.C.Z.C.M.j.M.M.D.C.k U Z u.I N L M M u 2.!.Z.M.M.M.B.S.S.V.V.M.M.V.S.D.D.D.D.M.M.M.h.",
"C.C.B.F.A.M.M.M.Z.Z.Z.M.j.j.M.C.k v Z v Z v N K L L L 3 m.A.N.N.M.A.A.V.V.A.M.M.M.M.D.D.D.V.M.M.Z.M.",
"B.C.B.A.S.M.M.M.Z.N.M.h.h.M.V.C.b.7 D 6.$.<.C C b v I Z ~.Z.N.Z.N.Z.N.B.M.V.A.A.M.j.V.V.D.V.M.h.Z.M.",
"M.V.M.C.C.M.N.h.N.h.N.f.h.M.M.D.W.$X8X-X,Xq.#.t.4Xr.V * < Z.M.Z.j.A.A.M.h.M.K.A.B.j.M.V.V.V.M.h.N.N.",
"M.B.M.A.S.h.N.h.N.M.M.a.N.M.N.W.s 3.q.&X5X#._ %.-X4X3.i h.Z.M.A.M.A.N.h.h.h.S.K.A.j.M.V.V.V.M.M.N.N.",
"M.B.M.V.S.h.N.h.h.j.b.^.|.|. Xw.#.$.q.qXp.9.- # e.4.^ W.j.M.j.A.N.V.B.h.h.h.M.K.S.M.M.B.C.B.B.M.A.B.",
"B.B.M.V.F.M.A.N.8 ].=X8XwX7XqX:X-.w.-X4X&X$.@.f 4.- d J.z.M.j.Z.V.S.N.h.h.M.M.A.D.M.M.M.S.V.M.B.K.M.",
"M.V.B.B.A.M.s.9 =.>XwXqX7X7XwXi.%.&...&.t.-.=X5X9Xf r K.j.Z.B.Z.M.A.N.h.M.M.M.B.S.V.j.B.C.B.M.B.S.N.",
"h.M.B.M.A.b.;.=X<XqXqX8XqX2X7X-.{  .>.| ^ X.o.#.0.1.0 S.M.A.Z.Z.N.N.N.h.M.N.B.A.A.V.j.V.V.B.M.M.A.h.",
"a.M.B.M./.#XqX7XqXqXqX8X2X<X-X) | >.| _ %.{ { [ ( # 4 C.B.S.Z.z.M.M.j.h.V.N.A.F.V.V.B.S.N.M.B.C.B.h.",
"M.a.M.M.s =XwXqXqXqX2X2X1Xi.;.X. .>._ o.[ [ +./ } } x U.S.K.N.h.V.M.j.h.N.M.V.S.M.A.D.A.M.M.V.A.M.h.",
"B.h.M.M.z i.wX8X7X6X1XqX=X-.-.)  .[ + ) ^ : y.@XO.[ $.@XH.F.M.h.N.N.j.M.N.M.V.A.B.A.S.V.B.M.N.C.M.M.",
"A.M.M.B.*.w.qX2X<X4.@.f a -.w.) } } { ] ,.| _ 1.o.@ a 8._.C.M.M.V.V.N.N.M.M.A.S.A.F.V.M.A.M.Z.B.B.B.",
"A.h.M.M.].-.:X$X7.M c $ & w.p.o.(  .]  .,.:.>.{ { | + w.oXm.B.B.C.A.A.Z.M.M.Z.A.C.A.M.M.Z.N.Z.B.B.V.",
"C.M.h.M.l.` 3.G J J K B c C ;X-.^ ' ] ] ,.>.>.>.>.>.%.t.eXXXQ.V.C.C.S.Z.M.M.A.C.V.B.h.M.A.Z.B.B.B.M.",
"A.h.M.h.h.8 u M T iX! E J n OX*X#.) _ | :.:.:.,.>.{ +.4XeX,X9 M.S.S.B.B.h.M.A.C.J.F F F [.H [.[.~.M.",
"F.M.N.h.N.v.  N iXpXuX! Y n C 5X:X;.X.^ ) ( [ ' ( ) 9.<XOXe.s b.V.C.B.j.M.B.Z.G.H P uXuXuXuXtX}.U R.",
"F.A.M.a.A.N.2 m rXpXiXtXR m * r.8X,X&Xw.#.+.o.O.=.3.-.&X6X0X3X.XG.V.B.M.B.B.Z.k.b E ! R R R R ! ! E.",
"F.A.M.h.Z.B.k.3 Y uXiXrXN <.t.r.e.3.;XqX1X,X:X*XOXj 9.9.t.y.8.<.x.C.B.j.Z.M.M.g.t Y Q Q rXR tXR ! Q.",
"F.C.M.a.S.Z.M.q n Y Y m 6.eXwXwX3Xe.4.;X<X6X,Xr.1.$.d Z T yXiXK S !.G.j.Z.A.j.g.. R Q Q Q Q Q ! ~ Q.",
"K.D.B.M.S.S.N.X = n m 4.7X7X6XwXOX& ; @ a a a ; o.a & q = = c C t.4.c.g.z.z.k.k.. R Q ! R Q Q tX~ Q.",
"L.V.B.j.z.Y.V.6 & % y =Xw.-Xq.-X;X- 7 : @ : a @ @ : a - C C f <.f j - + 7 f j V m R Q Q Q ! Q ! T k ",
"L.C.V.j.B.L.L.Y.z g d @.f j g f j d d d y p p p p p ; - t.6.w.e.3.6.& + o o + X m R ! Q Q Q Q tXW & ",
"P.V.C.B.B.L.P.D.Q.b F V S S S h h r i i S H H D w W.c * 1.@.w.3.4.8.c.g.8 s.s.l J R Q Q ! R E tXW & ",
"D.B.F.B.j.C.L.D.D.6 i V V b i % S Z.8 t S b V y q N.E.e 4 w d 5 8 m.D.M.M.B.M.[.N ! R Q Q ! E yX~ ].",
"C.C.F.z.j.D.L.L.D.d.O h d i y O G.B.z.1 q q q % k C.V.F.D.J.E.J.Y.L.C.j.N.A.M.F K ! ! Q Q Q Q ! iX'.",
"B.L.D.j.B.C.V.C.V.g.O 5.5.2.D 4 B.B.z.6 D 2.D j d.V.D.F.C.M.h.V.S.C.M.j.C.C.M.l K Q Q Q Q Q Q ~ iX{.",
"C.L.B.j.B.V.C.V.B.j.4 w g d O z Z.M.j.e g *.h r ^.Z.F.D.V.M.N.V.C.B.M.B.F.F.M.A P ~ tX! Q tX! yX}.).",
"C.P.B.j.V.B.V.V.B.B.8 s *.2.2.D c.g.j.].@.5.*.x 5.9 E.D.V.M.M.B.D.V.M.V.F.D.M.l N P K K P P Y Q ~.F.",
"L.F.B.B.V.B.B.S.z.B.d.V 2.5.5.G 8 a.M.R.V G 5.5.5.z x.V.C.B.M.M.C.A.M.B.F.C.M.f.2 , > 1 , 2 e H c.A.",
"Y.C.z.C.V.j.B.S.B.B.U.'.'.'._._.J.N.N.Z.`.{._._./.).C.Z.F.S.B.M.C.B.M.B.D.V.M.M.B.M.j.M.M.C.N.(.S.A."
};
