/* XPM */
static char *result[] = {
/* columns rows colors chars-per-pixel */
"50 50 215 2 ",
"   c #4E1A14",
".  c #541611",
"X  c #541C16",
"o  c #571B15",
"O  c #4F150F",
"+  c #6B1A14",
"@  c #631A14",
"#  c #741E14",
"$  c #68190D",
"%  c #7D2015",
"&  c #99160C",
"*  c #8A1D13",
"=  c #9B1D11",
"-  c #A5180F",
";  c #A21B11",
":  c #AC1C11",
">  c #B11E12",
",  c #8B2416",
"<  c #932315",
"1  c #9B2314",
"2  c #9E2919",
"3  c #962519",
"4  c #A22515",
"5  c #A42A1A",
"6  c #AA2C1A",
"7  c #A82716",
"8  c #B52E1C",
"9  c #BA2E1A",
"0  c #B82415",
"q  c #A5351D",
"w  c #B6311D",
"e  c #BD321D",
"r  c #BA3A1A",
"t  c #933423",
"y  c #B62C21",
"u  c #AB3825",
"i  c #BC3521",
"p  c #BD3A25",
"a  c #B23723",
"s  c #C22717",
"d  c #C2341E",
"f  c #C6341D",
"g  c #C23621",
"h  c #C93621",
"j  c #C43923",
"k  c #CC3B25",
"l  c #C23D28",
"z  c #CD3F29",
"x  c #D43D25",
"c  c #D83F26",
"v  c #D33F28",
"b  c #B14D17",
"n  c #956B11",
"m  c #9C442E",
"M  c #93493A",
"N  c #AC472C",
"B  c #BF4129",
"V  c #AA4B3A",
"C  c #A94531",
"Z  c #B55337",
"A  c #C4412B",
"S  c #CD422B",
"D  c #C54020",
"F  c #D84027",
"G  c #D4432B",
"H  c #DA4129",
"J  c #D4482F",
"K  c #D74529",
"L  c #CD4931",
"P  c #D54A31",
"I  c #CB5836",
"U  c #C8653A",
"Y  c #9D5241",
"T  c #AC5343",
"R  c #A95847",
"E  c #B85A46",
"W  c #B85E50",
"Q  c #B45E50",
"!  c #AB6649",
"~  c #AB6856",
"^  c #B26556",
"/  c #B76855",
"(  c #B86F55",
")  c #8F7461",
"_  c #AF7D69",
"`  c #B97764",
"'  c #8E6753",
"]  c #CB6E44",
"[  c #D97C46",
"{  c #D17546",
"}  c #3C9302",
"|  c #409601",
" . c #459B02",
".. c #499F02",
"X. c #459A0A",
"o. c #489D09",
"O. c #539E1C",
"+. c #4DA302",
"@. c #4DA409",
"#. c #51A604",
"$. c #54AA04",
"%. c #59AE04",
"&. c #51A609",
"*. c #55AA0A",
"=. c #59AE0B",
"-. c #5DB203",
";. c #5DB20B",
":. c #56A910",
">. c #5BAC12",
",. c #5BAA1A",
"<. c #5EB212",
"1. c #61B504",
"2. c #62B50B",
"3. c #65B90B",
"4. c #64B905",
"5. c #64AE15",
"6. c #66B617",
"7. c #6BB212",
"8. c #5DA427",
"9. c #65AD29",
"0. c #66AD26",
"q. c #6CB32B",
"w. c #6CB223",
"e. c #75BC25",
"r. c #75BA2B",
"t. c #67A932",
"y. c #76B734",
"u. c #78C129",
"i. c #7BB942",
"p. c #7CB644",
"a. c #82BB3C",
"s. c #85BB4A",
"d. c #88B955",
"f. c #95BD5D",
"g. c #B9826C",
"h. c #B78873",
"j. c #AE8F7B",
"k. c #9ABA6B",
"l. c #89BA68",
"z. c #A6BE72",
"x. c #DD994D",
"c. c #EDAE59",
"v. c #C28B72",
"b. c #C0937D",
"n. c #EB944D",
"m. c #88C048",
"M. c #95C45C",
"N. c #89C051",
"B. c #9AC567",
"V. c #9EC372",
"C. c #A2C36C",
"Z. c #AAC679",
"A. c #B4C77F",
"S. c #FAC666",
"D. c #AD9684",
"F. c #B29C8B",
"G. c #BE9681",
"H. c #B8A28D",
"J. c #B7A392",
"K. c #B9A694",
"L. c #BBA999",
"P. c #BBAA94",
"I. c #C39A84",
"U. c #C3A28D",
"Y. c #C6A995",
"T. c #CAB39C",
"R. c #C5B69D",
"E. c #CCB6A1",
"W. c #CCBBA6",
"Q. c #D2BCA5",
"!. c #CBBFB0",
"~. c #ABC786",
"^. c #B8C688",
"/. c #B0D18C",
"(. c #BCCC96",
"). c #B9D497",
"_. c #BED5A4",
"`. c #C4C998",
"'. c #CCCDA4",
"]. c #CCCFAB",
"[. c #CAC9A6",
"{. c #D5C3AD",
"}. c #D4CAAA",
"|. c #C5D5AC",
" X c #CDD4AB",
".X c #CCD7A9",
"XX c #D3D3AC",
"oX c #CCC3B5",
"OX c #CFCEB7",
"+X c #D3C5B3",
"@X c #D6C9B2",
"#X c #DACBB5",
"$X c #D0C6B9",
"%X c #D4CABA",
"&X c #DCCDBA",
"*X c #D8C5B2",
"=X c #CDD8B5",
"-X c #D2D2B2",
";X c #DCD1B5",
":X c #DDD3BB",
">X c #DADABB",
",X c #D5DABB",
"<X c #E1D3BC",
"1X c #DDD6C6",
"2X c #DEDBD5",
"3X c #E4D5C3",
"4X c #E5D9C5",
"5X c #E8DBC6",
"6X c #E5D7C9",
"7X c #E6DBCB",
"8X c #E9DDCB",
"9X c #E1DDD5",
"0X c #E6DFD3",
"qX c #EBE2D3",
"wX c #E8E0CF",
/* pixels */
"+.+.;.-.=.+...@.&.$.%.1.$.%.;.$.2.%.3.1.#.*.<.*.+.+.+.;.%.#.;.+.#.;.%.3.=.+.$.@.+.@.*.%.;.$.#.#.3.4.",
"$.+.%.%.2.+...+.=.%.$.2.$.-.-.-.2.%.-.;.#.$.*.#. .+.+.;.;.#.<.*.$.-.*.6.:.+.>.*.=.*.=.;.<.&.*.#.4.4.",
"i.0.w.e.r.6.0.q.q.w.0.y.e.r.u.u.u.w.r.r.q.q.q.9.9.q.i.B.B.B.Z./.).).)..X|._.).).).).(./.Z.V.B.6.-.-.",
"(.'.|.'. X.XXX,X,X>X1X>X>X>XXX.X X X@X-X-X;X>X:X,X,X:X1X7X1X1XwX7X7X1X3X1X:X<X>X:X:X:X@X#X@X[.B.-.-.",
"|.>X<X<X;X;X<X<X<X<X<X<X<X<X;X;X:X:X<X<X<X<X<X<X<X<X<X:X>X<X;X<X;X#X{.&X:X;X<X<X<X<X<X<X<X*XR.M.-.$.",
"|.XX;X;X<X3X<X<X<X4X5X4X5X8X5X5X5X8X8X8X5X6X7X7X8X8X8X7X8X8X5X5X7X3X&X<X8XE.&X<X<X<X<X<X<X;X Xy.%.#.",
"s.d.P./.^.{.E.{.{.J.j.D.F.F.D.F.F.F.J.F.J.H.J.H.K.K.L.L.P.P.K.K.L.K.L.L.L.j.H.{.}.W.{.`.`.Z.s.5.$.+.",
"#.+.5.r.C.R.R.Q.W.)   . O O . . . . @ $ + # + + + + @ @ X X         X X X   ' Q.P.H.R.C.w.>.#.%.*.#.",
"$.#.*.;.N.`.<X<X;Xj.@ @ $ + # # % , 2 2 2 2 5 5 2 5 5 5 5 q 2 , , < , , * # h.+X#X#XA.r.%.+.+.&.*.#.",
"#.+.*.;.u.`.<X<X;XU.t * 1 1 1 6 w 8 w w e e y i i r e i i e i 9 6 1 < = = * G.<X<X#XM.5.=.#.| @.#.+.",
"#.+.+.;.3.A.<X<X;XY.m = 4 1 7 8 w e e i i i i i i i i i i i i 8 8 2 < 4 < * Y.3X<X;Xy.$.*.#.X.o.+. .",
"#.#.} *.4.C.}.E.@XR.m = 7 6 w 8 e e e e e e e 9 d 9 e e e 9 e 9 e 6 5 4 1 3 Q.3X<X'.w.*.%.+...| }  .",
"&.@.+.+.4.M.}.H.{.W.M = 6 9 i 8 e e e e d d e d e d d e e e e e e i a 2 1 t {.3X4X`.5.;.*.+.*.#.@.#.",
"*.$.#.$.-.s.'.[.&X+XY & 8 e i e d d d d e d d g g d e g d d e d e i y 7 1 m &X3X4X^.:.;.#.+.*.*.#.*.",
"%.;.#.-.4.a.'.<X4X#XR ; 8 e p e d j d d d d d r r g d d d d d d e p i 6 & R 3X3X<XZ.*.*.+. .@.#.+.=.",
"-.-.+.%.4.e.`.<X5X&X! 1 e e A i d d e d d h b ;.n d g d d d g d e l i a & ~ 4X3X3Xf.$.&. ...+.@.+.;.",
"-.$.+.+.4.e.^.<X4X:X~ 5 d g l i e d j d d g B n b f d d j d j d e A i i = _ 7X3X<Xs.#.#. . .+.@.#.3.",
"%.#.&.+.4.6.Z.<X4X1X~ 5 i i l i e g j d d d f f f f f d d d d d e A j d ; _ W.<X#Xp.#.%. .+.+.+.+.<.",
"$.$.*.@.-.4.C.:X6X1X_ 6 d e l j d f x k z c x v x x x k j f d j e A i d = Y.1X<XXXt.&.*.#.+.@.o.@.=.",
"#.#.*.@.%.2.B.<X6X7Xh.a d d A k x c F F F c c H x c x F F F k j g A e e 5 Y.qX4X`.8.&.*.@. .@. .#.+.",
"+.+.=.$.$.;.f.:X4XwXj.a f c G v x F c c c F H c F F F F F F F x k p d d u Q.qX4X`.,.&.-.*.@. . .#.+.",
"#.+.;.$.+.=.d.;X3XwXb.p f c z z x c c G v c H c v c v F F c x k z S k 9 u *X8X4X`.,.#.*.=.$. .+.*.#.",
"&...=.=.+.=.a.XX4XwXU.A f c z k z S G P P P P P G P P P K S v z h S x 9 V 1X7X3X^.:.#.=.*.+. .@.+.+.",
"@.| #.<.@.1.e.`.3XqXY.B k P v c F F F G G K K K G G G G F v v v x x c f E 3X5X<Xk.&.+.$.%... . .+.+.",
"..| ..%.$.1.6.^.3XqXT.I n.c.I x x v c H H H H H K P H H H F G k c F F f W wX4X<XB.*.#.*.$. .+.| +.+.",
"+.| ..#.%.1.2.C.<XqXE.] c.S.U j S v P P P P P P P P P P G G z S S F S e ` wX4X:XN.*.+.*.*. .#.+.+.+.",
"....+.#.%.-.;.f.<XqXQ.E [ [ Z l P v H H H H H c H H H H H F c P G F x r v.qX#X;Xi.#...*.$...*.#.+.+.",
"..#.#.=.$.%.%.s.3XqXQ.E ] W { j P c H H H H H H H H H H F H F L G F f 8 b.8XT.;Xq.@.+.*.+.#.*.+. .+.",
"..+.+.%.#.#.#.q.<X8X#XE [ x.x.y S v G J P P P P P P G S G z z S v c h 8 Y.7X@X X6...@.$. .*.*.+. .+.",
"#.+.$.%.$.#.#.w.@X8X#X/ D I L g v v v v v G v H G G F G G v x c c c h y Q.wX1X/.<.+.#.+.+.;.+.+.+.&.",
"&.#.%.%.&.:.#.7.^.8X#X` e h x k v v v v v G G G G G F G v c v x v c h u #X8X1XM.*.#.+...+.<.$.+.+.*.",
"#...%.$...*.#.:.Z.5X;X` d h x k z k z J J J L P J P L G G S z j v c d C &X8X7Xi.#.+.+.+.&.=.%.+.+.*.",
"#.+.$.+.| $.=.>.Z.:XR.g.s k x k k x x c c c x c c x x c x x k z k v d Z 1X4X3Xi.+.$.&.+.*.@.=.+.} #.",
"+.#.$.| | ..*.;.C.3X6Xv.d g x S k x x c c c c x x c x c x x x S v x 0 ! 4X3X1Xi. .&.#.+.#.&.<.+.+.+.",
"o.#.+.| ..@.+.;.B.5X3Xv.e k x S k x x x x x x x x c c x x x k L k v 0 ` 7X3X1Xy.+.;.*.+.*.*.*.@.&.+.",
"o.......@.@.+.%.s.<X4Xb.9 h z k k x x x x x x x x x x x x x v L x k ; g.8X3X].q.$.=.+. .+.#.@.#.:.+.",
"o..... .@.o.#.=.r.'.5XH.w h v A k k x x x x x k x x x x x x z L x h : I.7X3X~.#.-.-.+. .+.&.+.#.;. .",
"o.#.......&.o.%.5.`.5XU.u f x z k k x x x x x x x x x h x x S z k e 7 U.7X3Xl. .-.-.-.+.+.*.+.%.=.+.",
"=.=.#.=. .$...$.=.`.6XY.u 9 x j k x x h h x x x x x x x x h v k h 9 6 T.7X<Xf.+.%.-.;.+.#.-.%.-.#.*.",
"&.#.$.=.#.o.+.%.%.^.6XY.N > k k h x h x x x x x x h x x x h z j d 8 q Q.8X#Xi.+.$.;.;.+.+.;.%.-.;.#.",
"| +.#.=.#...+.$.1.^.4XT.V : i h g h k k k k k k k k k k k k j 9 e 8 N *X3X].y.#.#.=.=...#.3.3.1.;.+.",
"#.+.@.;.*.| +.=.1.A.3XT.T - y 9 d j k k S k z k z k k k k g 8 9 e 7 V #X<X[.0.&.#.>.$...#.2.3.-.@. .",
"%.+.+.$.*.+.#.$.%.z.3XE.T - 6 e i k v z z k v k k x x k g i s i w ; R &X<X|.,.@.@.=.$.=.$.-.-.%.+.+.",
";.+...#.+.@.%.$.=.f.&XT.R & ; ; : > 0 s s s s s s > > > > > > > ; & ^ &X<X|.9.@...$...=.%.-.%.$.+.@.",
"=.*...+. ...$.+.=.k.P.T.h.^ ~ Q ^ ^ ^ / / W W W W W W T T T T T V V _ E.E.1XV.| ..#.+.:.=.$.$.#.@.+.",
"@.%.+.+.@.&.&.&.y.'.1X4X7X0XwXqXqXqXqXqXqXqXqXqX0X0X0X0X0X8X8X6X6X3X3X<X&XqX.X9.@.+.+.=.$.#.#.#.+.+.",
"$.*.+. .@.@.9.k.}.3X3X4X4X7X6X7X4X4X5X8X8X8X8X8X8X8X8X7X8X8X6X6X8X8X3X3X5X3X&X(.0.o.#.=.$.+...#.+.+.",
" .+.|  . .@.d.%X&X&X&X;X#X#X;X#X#X*X#X#X*X#X#X*X*X#X#X#X*X&X&X1X#X&X&X&X&X&X&XOX9.#.#.#.$.+.| +.+.*.",
" . .X.X.X.p._.2X1X1X!.1X!.!.1X!.!.oX$XoXoX!.oXoXoXoXoXoXoXoXoXoX!.oXoX$X$X$X1X1X~.8.} X.@.} } } +.*.",
"@.} X.} 8.1X9X2X2X2X2X2X2X2X2X2X2X2X2X2X2X2X2X2X2X2X2X2X2X2X2X2X2X2X2X2X2X2X2X1X=Xl.} } @.X.} } +.#."
};
