/* XPM */
static char *result[] = {
/* columns rows colors chars-per-pixel */
"50 50 227 2 ",
"   c #991D13",
".  c #A91D12",
"X  c #98241A",
"o  c #A82716",
"O  c #B62B18",
"+  c #BC321E",
"@  c #B7341F",
"#  c #A72D23",
"$  c #BD3521",
"%  c #BB3924",
"&  c #AC382B",
"*  c #9D2C23",
"=  c #C4341D",
"-  c #CB341C",
";  c #C42E19",
":  c #C43621",
">  c #CA3621",
",  c #C53A24",
"<  c #CB3A23",
"1  c #C53E29",
"2  c #CB3E29",
"3  c #D43D25",
"4  c #D93E25",
"5  c #D83F29",
"6  c #BD412B",
"7  c #B84B36",
"8  c #B8543D",
"9  c #A54738",
"0  c #CD432D",
"q  c #C6432C",
"w  c #D84027",
"e  c #D5432C",
"r  c #DB432B",
"t  c #DA4429",
"y  c #D64A32",
"u  c #D84C33",
"i  c #CA563C",
"p  c #D9553B",
"a  c #C24B36",
"s  c #E15933",
"d  c #DE623C",
"f  c #C96839",
"g  c #E1633E",
"h  c #AF5545",
"j  c #B76954",
"k  c #B86951",
"l  c #B57665",
"z  c #9B4C44",
"x  c #D85B43",
"c  c #DA6B49",
"v  c #E46845",
"b  c #E6734D",
"n  c #E77549",
"m  c #EA7A54",
"M  c #E77754",
"N  c #C37A67",
"B  c #3B9400",
"V  c #3E9801",
"C  c #419703",
"Z  c #449B02",
"A  c #499E02",
"S  c #499D0A",
"D  c #4DA202",
"F  c #4DA309",
"G  c #51A603",
"H  c #55AA04",
"J  c #59AE04",
"K  c #52A60A",
"L  c #55AA0A",
"P  c #59AE0B",
"I  c #5DB204",
"U  c #5DB20C",
"Y  c #5BAC12",
"T  c #57A915",
"R  c #5CB112",
"E  c #61B504",
"W  c #61B50B",
"Q  c #66BA0B",
"!  c #65B904",
"~  c #64B416",
"^  c #64AD25",
"/  c #6BB526",
"(  c #74B82C",
")  c #76B537",
"_  c #70AE36",
"`  c #7EB745",
"'  c #81C434",
"]  c #84B84B",
"[  c #8CBB57",
"{  c #92B859",
"}  c #B68A75",
"|  c #B0896B",
" . c #9ABD65",
".. c #9DAA60",
"X. c #A09F76",
"o. c #DA9151",
"O. c #E68A55",
"+. c #CB8C76",
"@. c #EAA05B",
"#. c #89C34C",
"$. c #8CC254",
"%. c #93C458",
"&. c #9BC566",
"*. c #97C36A",
"=. c #A0C56C",
"-. c #A6C676",
";. c #F1D17F",
":. c #2C659B",
">. c #095FAA",
",. c #0B62AC",
"<. c #1465AC",
"1. c #1C6DB1",
"2. c #1E77B7",
"3. c #2D79B6",
"4. c #2373B4",
"5. c #2C77B5",
"6. c #756987",
"7. c #747493",
"8. c #587DA5",
"9. c #42648E",
"0. c #3A86BC",
"q. c #3783BB",
"w. c #2885BE",
"e. c #438BBF",
"r. c #5C84A8",
"t. c #768FA5",
"y. c #3191C5",
"u. c #4996C5",
"i. c #549EC8",
"p. c #438FC1",
"a. c #5CA5CC",
"s. c #57A3CC",
"d. c #52A6CE",
"f. c #66AACD",
"g. c #65ADD1",
"h. c #6BB1D2",
"j. c #74B5D4",
"k. c #7BB9D6",
"l. c #7CB0C8",
"z. c #91979F",
"x. c #BB9887",
"c. c #BBAB9D",
"v. c #B9A595",
"b. c #B1B091",
"n. c #9196A2",
"m. c #B8B7B7",
"M. c #AFACAA",
"N. c #9FA0A4",
"B. c #C69985",
"V. c #DA9C88",
"C. c #C4AA97",
"Z. c #C8B39C",
"A. c #D1A590",
"S. c #C1AEA6",
"D. c #CBBAA4",
"F. c #C9B9A7",
"G. c #D5B9A6",
"H. c #C9B6B1",
"J. c #D5BBB1",
"K. c #E3B9A8",
"L. c #E09E87",
"P. c #B4C989",
"I. c #B9CC95",
"U. c #B7D398",
"Y. c #AECA87",
"T. c #B9D2A8",
"R. c #C4CC9D",
"E. c #C4D29C",
"W. c #CAC9A5",
"Q. c #D4C1AD",
"!. c #D4CCAD",
"~. c #CDD3AB",
"^. c #C4D6A5",
"/. c #CEC5B9",
"(. c #CEC3B5",
"). c #D5C5B2",
"_. c #DBC3B4",
"`. c #D9C9B6",
"'. c #D3CABD",
"]. c #DBCDBB",
"[. c #D2C7B9",
"{. c #CED9B2",
"}. c #DDD2BC",
"|. c #D6D4B5",
" X c #D1D2A9",
".X c #E1D3BE",
"XX c #E2C2B0",
"oX c #85BDD8",
"OX c #81BCD7",
"+X c #8EB6C8",
"@X c #A7BFC6",
"#X c #8CC2DB",
"$X c #94C6DC",
"%X c #98C9DE",
"&X c #99CCE1",
"*X c #A4CEE2",
"=X c #A8CFE2",
"-X c #ACD3E5",
";X c #B2D6E6",
":X c #BADBEA",
">X c #B7D9E8",
",X c #DCD6C5",
"<X c #D5D1CA",
"1X c #E4D6C3",
"2X c #E6D8C6",
"3X c #E8D9C6",
"4X c #E6DBCA",
"5X c #E9DCCB",
"6X c #E5D7C7",
"7X c #E2DDD5",
"8X c #E2DFD9",
"9X c #E9DFD0",
"0X c #E9E0CF",
"qX c #EBE3D3",
"wX c #E3E1DA",
"eX c #EAE6DC",
"rX c #E3E1D6",
"tX c #F0E8DB",
"yX c #C1DEEB",
"uX c #C5E1EC",
"iX c #CBE4EE",
"pX c #D9E5E9",
"aX c #DBECF3",
"sX c #D5EAF2",
"dX c #CBE6F1",
"fX c #E3EBEB",
"gX c #DAE1C7",
/* pixels */
"D D U I P D D F K H I ! J I P H I I W U D Y R L -.V.N } [ / R D G I U ~ P D G D D F L J U H D H Q ! ",
"K D I U U D D D H H D I J I I I W I Q W P U P L ..p 6   z | -.` L U D Q P D Y L R K L P R L H G Q ! ",
"G H / %.$.^ ^ / / / ^ ( / ' ( ' ' #.&.U.U.U.U.T.Q.d 7 X   X z | b.{ ) &.U.T.{.^.^.U.Y.=.&.$.` ] %.=.",
"G G P.,X,X}.{.~.{.{.|.}.,X,X0XqX0X0X0X4X7X4X4X9XXXg a   # # O o 7 l D.6X4X2X5X3X0X2X,XgX.X X X X^.R.",
"J D #.rX4X6X.X.X1X1X.X1X1X1X1X.X.X.X.X3X3X.X1X1XK.v a   o o : , = O # j C.).2X,X.X.X2X1X1X3X.X3XZ.P.",
"P D / 4X,X.X1X2X6X3X6X2X5X4X0X4X0X0X0X0X5X0X9XqXG.c i o o @ $ $ : : = O   9 B.'.W.0X2X1X1X1X.X.X|.E.",
"K D Y #.{ R.R. X_.D.`.W.v.v.c.c.c.c.c.c.Z.Z.c.c.+.n a o O = $ % , $ : : % . X z j F.'.Q.!._.D.R.-.] ",
"D D H J J ^ / Y.F.D.).c.| 9.:.:.:.:.:.:.:.:.:.:.6.b i o $ : : : % , % % % O o   * v.).v.Z.I.[ / ~ K ",
"H G L U H J W =.)..X.XJ.x.8.,.,.>.>.>.>.>.>.<.<.6.b x . $ : = : : : : % , $ o   # Z.}..X].-.T K H G ",
"H F G W J E W [ W.1X3X`.C.8.,.,.,.,.<.<.,.<.<.<.6.b x O $ : : : : = : : + + o o 9 Q.3X1X}. .F S D D ",
"H D D U E E Q _ E.3X.X.XC.r.<.1.1.1.1.1.4.1.1.1.6.b x O , : , , , : , , : = @ o h |.2X2X~.[ Z F D Z ",
"G F V K Q Q Q Y P.XXZ..XC.r.1.4.4.1.4.4.4.4.4.2.7.b a + 1 : , : < : : , , = % o k ,X2X3XW.` Z Z C Z ",
"K F A D W ! E P -.XXC.1XC.t.4.3.5.5.5.3.3.3.3.w.7.m i : 1 > > > < 2 , : , , % . l 4X2X2XI./ K D F D ",
"H H H H E E E J -.3X_.3XD.t.w.q.q.3.0.0.q.q.0.w.7.m i : 2 < , < < 8 a - - = q . } 4X.X1X*.T P K G P ",
"I J H I I E I P =.3X1X5XD.n.q.0.0.0.0.0.0.p.0.y.7.m i = 2 < < , < % q < < : 1 . x.5X3X3X .Z D K D P ",
"I J D H E E J I { 3X1X5XJ.z.e.0.e.e.e.u.p.p.p.0.t.m x : 2 > < > < - < < - 1 q O C.5X1X1X[ D D D D U ",
"I H A G ! ! I I #..X3X5X!.N.u.p.u.u.u.u.u.u.u.y.n.m x > 1 < 3 3 5 5 < < - 2 1 @ D.5X3X6X[ V D F D W ",
"J K K D I ! I G ) }.4X5XQ.N.s.u.u.i.u.i.i.i.i.u.n.m x 2 2 r r 5 r r 5 5 < 1 = 7 c.`.2X4X` D F F D U ",
"J H L D I I G D (  X4XqX].N.a.i.s.s.a.s.s.s.s.d.n.m x 5 r r r r r r r r 3 2 ; 7 ,X4X6X4X` D F D F P ",
"D K P F H I D D ^ ~.4X5X}.v.a.a.a.a.a.a.g.a.a.g.n.M c 5 r r r r r r r r r 0 ; k 1X9X2X|.) V F V H D ",
"D D U H G U D L P P.5X5X1Xv.f.g.f.f.f.f.f.g.f.g.N.m v 5 r r r r r r 5 r t w + k 4X4X3X X( D A V K D ",
"G G U K G Y H U J =.2X5X<Xc.f.g.g.g.f.h.h.h.h.j.N.m v 4 r y u u p u y r w t - l qX5X4XI./ K Z D F D ",
"K A J P A P E J J ] }.5X6Xc.l.h.j.j.j.j.j.j.j.j.N.M v t t t u r r y y t 0 t - +.eX4X3X=.J D A F D D ",
"A C K R D E W H G ( |.5X4Xc.+Xk.j.k.k.j.OXk.k.k.m.M n g O.s r r r t r t w w w B.eX3X|.] G D Z Z G D ",
"A C A J H E Q G G Y XX5X5XS.+XOXk.OXoXoXoXoXoXk.M.M M @. XO.s s p p u u r r , A.eX3X~.~ H V D V D D ",
"A Z A G I E W D G K R.5X5XF.+XoXoXoXoXoXoXoX#XoXm.M O.o.@.n t t r r r r y r q G.qX3X^.P P Z L D Z D ",
"D A D G J I U D D K P.3X9XF.+XoX$X$XoX$X&X$X$X&XM.M O.o.v r t r r r r r u 4 6 _.3X`.P.U D F L D D D ",
"A K D J J H J D A K -.4XqXD.@X&X$X$X&X$X$X$X%X%Xm.O.O.o.f r r r r r y r y 4 a ,X}.J.*.P D D J D D F ",
"D D D J G G H G Z D  .5X9XD.@X$X%X$X%X%X&X&X*X&Xm.m o.@.f w u u p y y e 3 4 h 1X3X.X] H V P K D V G ",
"D D G J H H G H D A { 4X9XG.@X*X*X*X*X*X*X*X*X*XS.b o.o.a w t y t r w r t 4 N 7X5X1X) D D R D D F D ",
"L D J J K T A H D D ] 2X9XQ.@X=X=X=X*X=X=X-X=X-XH.M x > 2 e t t r e e t w 4 l 5X9X,X_ D G U H D D H ",
"K D J G A K G H A Z ` 2X6XG.m.-X=X-X-X-X;X-X-X-XH.m p w e y y p p u y 0 w - +.eX4X|.T A L U J D D L ",
"G D H D Z D Y J G Z _ 6X`.Z.H.;X;X;X;X;X;X;X>X>XH.b x 4 w e r r r r r e e = B.qX2X{.^ D D G U D Z G ",
"D G G A C D P U H V ) 2X4X'.m.:X:X:X:X>X:X:X:X:XH.m p 4 5 r r r r r r e t = C.0X1X~.^ A F G P F D D ",
"F D D A S D K U U Z ) }.5X`.W.uX:XyXyX:XyXyXyXyXJ.b x 4 r r r t r r w y e 6 Z.tX2XE.~ D L F L D K F ",
"S Z A Z F D D P J D ^ R.5X].F.uXyXdXdXdXuXuXdXuXJ.v p 3 w r r w 4 5 5 y w 6 J.5X3X-.L Z D L D L T D ",
"S A A A F A D P J G G -.5X].H.iXdXdXdXdXdXdXsXsXJ.b x 3 3 r r w r 5 3 y 3 7 [.4X3X&.D Z D K D D Y V ",
"S G A A S K F J K J G -.3X.XF.pXsXsXsXsXsXsXaXaX_.b p 3 5 5 w w 5 5 w e 3 h }.5X.X$.J D G P D J J A ",
"H P K P A K A H J H D  .2X}.m.pXaXaXaXaXaXaXaXaXXXb p < 3 w w w w w w 0 - k 1X5X1X#.I D G I J I H P ",
"L G H H D D D H J G G ] |.1XZ.fXaXaXaXaXaXaXaXaX_.v p 3 3 5 w w 4 w 3 e = j 6X2X1X#.I D D U J I J H ",
"Z D G L G Z G H W D G ) |.1XD.wXaXaXaXaXaXaXaXaX_.v u 3 3 5 e w w w w q ; } 6X1X{.#.H D D Q Q I U D ",
"F D D P L D D H U H H ) !.1XD.pXpXaXaXaXaXaXaXaX_.c y 3 3 5 5 5 3 w < = O } 1X1X^.( D D G W Q E K A ",
"J D D L F D D P J P K _ !.1XC.pXaXaXaXaXaXaXaXfX_.g q < 3 3 3 < q 0 q = O +.6X6XU.R G P J I I I D D ",
"U D D D F G H H J J D ] ).`.c.8XaXaXaXaXaXaXaXfXJ.d q - < 2 0 0 e < = + & C.1X1X^.K D Y J J J H D G ",
"U L D D D A G D D U ( I.D.Z.Q.rXeXeXeXeXeXeXeXfXK.v q ; , 2 2 3 w > ; . h Z.Z._.^.Y A L J H H G F D ",
"G P D D F K F D D ` ^.5X0X5XqXqXtXtXeXeXtXtXtXtXK.g % + < 3 5 3 ; o & B.6XqX6X5XqX^.` U H G G D F A ",
"F L Z D F L L Z F Y.'.1X3X6X2X6X4X5X5X4X5X5X5X5XK.x 6 O , < ; + 7 N J.5X3X5X4X3X6X.XW.U J D A D D D ",
"D F D V Z S T C T T.1X.X}.}.].].`.].`.`.`.].`.].A.g % o O o 8 } H.1X].].].]..X].1X].T.~ D A Z D A J ",
"V V V S V V T ` U.<X<X<X/.'.<X/.'./././././././.V.s : # k x.D.J././././././.[.[.<X[.<XU.^ S B Z Z P ",
"D B V V B V _ gX8X8X8X8XrXwX8XwXwXwX8XrX8X8XrXwX].+.+.J.<X7X7X7X8X8X7X8X8X8X8X8XwX8X8X8XT.S B B C G "
};
