/* XPM */
static char *result[] = {
/* columns rows colors chars-per-pixel */
"50 50 25 1 ",
"  c #3E9300",
". c #419700",
"X c #459B01",
"o c #499E02",
"O c #4DA203",
"+ c #4EA409",
"@ c #51A604",
"# c #54AA05",
"$ c #59AE06",
"% c #51A709",
"& c #55AB0A",
"* c #59AE0B",
"= c #5CB206",
"- c #5CB20C",
"; c #57AD10",
": c #58AE10",
"> c #5DB311",
", c #60B606",
"< c #61B60C",
"1 c #63B90C",
"2 c #61B611",
"3 c #64BA12",
"4 c #69BE12",
"5 c #6AC10D",
"6 c #6AC013",
/* pixels */
"X&&=4=OO@-@-&@O&@>-#@.&@o2>@.@2#@@#OO@O$O#3#XXO$44",
".$<=5=oOX;%:OOO-@:-@oo<@o22@o*<OO&#XO&O*O#>O++o$4,",
"X#=11=oOX++%@ O*+O1#X#*@o><XO->.X*+X#&*&O&>O&%X$1,",
"X@$1==O&++++O O-&O$#X$#@X*2.@-*..*O&O+3O &&O#oo$,,",
" O#==$O%+X+OXX$*-OO=O$#O.-2o%*#XX:+&XO2&O#@O#.@$,,",
" O#-$@&@+ +OOX#&3#o*--O#o-3###@@&1&o.+#2$#O@#.@$=#",
"OOO==O-&+ OOOO#$3$O$2&O$-%4<@Oo%#-&XOOO3-#@#-oO=,@",
"O*&$1O@;+OOO*-@#3:o&-O@$<@<<@@O&#;%XXO#->#@#-#@$,@",
"X-&O-#O:++&O$1OO>-o@>o@-,@$<@#@##=+OO@>#-#o-*@X=>o",
"%>&O-* +&X%%$-XX*>oo:oo<#$,$@$*#OOoX##3###O-#OX=-O",
"-O@%&3oX; O@-,XX@%%o%@@$@<$$O%*@++oX#*6O##O#&XX#-o",
":O@O#>+o+@ @3$X.@@*@o@$=$1@#O+*@O+XX#,-OOO@@& X=,#",
"@*OO#>%+O@o@1#@o@@2%o@1=<>@#oO:+&+OO#1=##OO=*XO=,@",
"o##X+;%&OX@-3=,@o$3%o#113O@*oo:+;OoO$3=-=OX-*O#1-o",
"X&-Xo;%&OO=1-&6#o*3+X=4<:o#$Oo:+&XO=,1#-*OX3##=1$o",
"@#-oo++OX*--#@1#X>>+X=,-oO#-%.%++X#,,#O<-OX1*=,-@X",
"&O-+XO+OO*>*X#=1.**X@$$@o@O-:.+o+X&,=OO,1OX1#,==X.",
"+O3;OOOX+*2#X##1o**.@$$O@*o-<Xo+#X#2=O##-&O1=5#=. ",
"#@-6OOOO#&-OX#O=-->@@$<O%2O*3%XoO##2+OOO#2#,5,O&..",
"-##2#oOO&#*OOOO$1<>@O$-O@2$#2;o+X&=&##OOO==,,=O+XX",
"=#O1*XOX&O&oOXO$,<<%o#*Oo2,o&-o@O&###=OOOO====OO&O",
"@#O--X#X%++XXO#=$$$*.@%.o<2@@:O%O;+#O+;#OO##=#OX;X",
"O#o==X%.+++.OOO=$#$*O.*oo-4@O&o%X;+OXX>;+X+###O.+O",
"O@O&;X&.OX+ O+X--@@@%.%O.&4@X%o;X;#XXX;>#OO###OX+&",
"O@O#>X&XX+X.++X$<OO&>XO@@@3*XOX&+&#XXX+6=OOO=OOO&O",
"O@O#>o;+Xo.o#+O#>#O&>Oo&$@=-oOo&#;+XOXX=-OOO-#O#>O",
"O#OO>O+-OX+X&OXO-*XO;+o@$O$2o%%%O#+XXOOO-#X#=OXO-X",
"XO@O;O#&OX%OO+XX**OO;Oo&$#@*o:&o+#+XO+&&;#X-#OO#&X",
"XX&O#&>+OX&-O;OX#>#.*%X+#@@#%2%o+OXX&O=-O##=+#+&&.",
"O.OOO&2O#OO>O&O --@X%>XO@@o@:2%X+OOX&O#;X;1#OO&=OX",
"#XX+O&>XO&O---OX-%@OO-Xoo@Xo*<o.&+OX+X#;O;=#OX&=OO",
"&OXOOO>XO-@*1-@&*O#+@>@@@#@O<&@o###+#X&=#-OO&O+#OO",
";OXOOO-XO$-#==#*@%*OO:&#O*##-$@@$@;&OO&&-#XO-%%O##",
"=XO+XO*OO#,$=#=& @&XO#-&X&#$=O$#*$:OXO*$$OXX&&+OOO",
"-.OoX+#X##,####OO&%XXO*-o-$==O$O-$#OXO&#OoO.%&OOOo",
"2O+.&#OXOO==###o%;;XXoO>#=,,$OOO#*OOX%#&OX#O&-OOO&",
"=&O &+OO#X#-OOOO##*X.oX$$$,,Oo+o@*OO%O@XX#XO#=OX&;",
"=&X -OXO#O#=#oOOOO%X.oX#-$=$oo&oO-XO;OOOX&Xo#-Oo&2",
"1*X.>#X###O,&OO#@O%Xoo@>=#=$Oo@OO=@O&&X&#&OoO*&X*1",
"3*OO&>X;##+1+O#=OOOXOO#>@####oO@@-#O&%X%&+OXX&#O==",
"1@@OO3O-##==O+&;@o@.@@->X@@@@XXO&,#&;OXX>+XX @##>#",
"6##OO12-O==OOX#;@@o.+@<*o@@&*OXo-=#2OOO.;++O OO=5O",
"-#-OO15*#1#+OXO-@$ooX#1##@o$2@oO-&,#XOOX&&&X O@1==",
"=#-OO-1===o&&X+,@&%%o&<@>#@<2&X@2,,OO&OX##&+ o#1=3",
"#$>OO==,,OO*&XO*@@%;o,#@,@#1=@X#65#X+-oX&+&oOo#,#6",
"#=-XO#$$$OO-&o-#@@o:o*@@#@,,$oo&##OO--O.+X&O@O#=#6",
"#3@X###*OO#1**1O@oo2o*O@@$<=@X@&##OO>>O.O+OX#O#O&2",
"#1OO##&=OO#1=2*o%Xo:+*o@o#3$#X@@,OO#,=OXX+OXOO&X=-",
"<=o&#@@*@o$1,2@XOX@:@&o+@$<@$&@O-&OO,#OOOOXXO+#X-;",
"1$@=@O@>@o#12%Xoooo*%&X+o*,@<*oO-OO#=#OO&OOOO;OO-&"
};
