/* XPM */
static char *result[] = {
/* columns rows colors chars-per-pixel */
"50 50 239 2 ",
"   c #180E08",
".  c #17120B",
"X  c #1C1919",
"o  c #161518",
"O  c #0F0701",
"+  c #330C04",
"@  c #25140C",
"#  c #2A1808",
"$  c #331B0A",
"%  c #361C09",
"&  c #2C1E15",
"*  c #241E1B",
"=  c #261C15",
"-  c #321D12",
";  c #311E1A",
":  c #2B0E0A",
">  c #1F3A04",
",  c #272B08",
"<  c #382609",
"1  c #2A3809",
"2  c #3B360C",
"3  c #2C221B",
"4  c #2A2519",
"5  c #3B2414",
"6  c #3C291D",
"7  c #372619",
"8  c #2B3718",
"9  c #363414",
"0  c #1A1E22",
"q  c #201B20",
"w  c #1D2021",
"e  c #262424",
"r  c #382923",
"t  c #3E3024",
"y  c #35342B",
"u  c #4C1C0D",
"i  c #40250C",
"p  c #4B280D",
"a  c #543609",
"s  c #432914",
"d  c #4C2A15",
"f  c #432B1A",
"g  c #4A2C1C",
"h  c #422619",
"j  c #542D13",
"k  c #512E1C",
"l  c #5B2C16",
"z  c #43321A",
"x  c #5D3316",
"c  c #54311C",
"v  c #5C351C",
"b  c #533613",
"n  c #50290C",
"m  c #63331B",
"M  c #643A1E",
"N  c #67381A",
"B  c #602E18",
"V  c #412D22",
"C  c #4A2D23",
"Z  c #4C3224",
"A  c #453528",
"S  c #543322",
"D  c #5C3923",
"F  c #5A3A29",
"G  c #5B3E33",
"H  c #643C24",
"J  c #6A3C23",
"K  c #643E2B",
"L  c #603426",
"P  c #743D28",
"I  c #294804",
"U  c #334904",
"Y  c #3A5D06",
"T  c #354613",
"R  c #3C5B13",
"E  c #365118",
"W  c #2E5503",
"Q  c #366604",
"!  c #3A7605",
"~  c #374A2A",
"^  c #454B13",
"/  c #564616",
"(  c #455612",
")  c #6D4518",
"_  c #6D4609",
"`  c #4A6806",
"'  c #4B7609",
"]  c #416819",
"[  c #487B13",
"{  c #536613",
"}  c #666D1A",
"|  c #584728",
" . c #445826",
".. c #484B36",
"X. c #524935",
"o. c #475B31",
"O. c #494A29",
"+. c #684227",
"@. c #734423",
"#. c #7A4927",
"$. c #73462C",
"%. c #7A4B2D",
"&. c #76492C",
"*. c #7D582A",
"=. c #644232",
"-. c #6C4A33",
";. c #674A37",
":. c #7C4C33",
">. c #784934",
",. c #6E5236",
"<. c #7C5233",
"1. c #7A5639",
"2. c #4A662C",
"3. c #537536",
"4. c #536C2E",
"5. c #646B31",
"6. c #1F3F64",
"7. c #194A65",
"8. c #1B607D",
"9. c #655343",
"0. c #645957",
"q. c #636D4D",
"w. c #536771",
"e. c #824C27",
"r. c #84522B",
"t. c #814E33",
"y. c #824F39",
"u. c #845334",
"i. c #85533A",
"p. c #8A563A",
"a. c #8D5A3A",
"s. c #875A36",
"d. c #925C3F",
"f. c #915736",
"g. c #A15E26",
"h. c #8D6238",
"j. c #92633B",
"k. c #92683D",
"l. c #AC6538",
"z. c #AD6B33",
"x. c #945E41",
"c. c #985F44",
"v. c #885542",
"b. c #8D6542",
"n. c #956342",
"m. c #9B6344",
"M. c #9D6A44",
"N. c #926A40",
"B. c #9A7246",
"V. c #93725E",
"C. c #A16C44",
"Z. c #A46E49",
"A. c #A76442",
"S. c #A37246",
"D. c #A6724A",
"F. c #AA754A",
"G. c #AC7A4C",
"H. c #A87847",
"J. c #B17D4D",
"K. c #B57549",
"L. c #BB7C51",
"P. c #A67350",
"I. c #C77B4E",
"U. c #C57E53",
"Y. c #3D8502",
"T. c #3B9401",
"R. c #3B9601",
"E. c #448B05",
"W. c #488807",
"Q. c #528A09",
"!. c #439402",
"~. c #449B02",
"^. c #499E02",
"/. c #459D08",
"(. c #499A09",
"). c #4A940A",
"_. c #539106",
"`. c #539E06",
"'. c #539C0A",
"]. c #56980B",
"[. c #599914",
"{. c #609B1A",
"}. c #4DA303",
"|. c #4DA409",
" X c #4FA907",
".X c #51A603",
"XX c #54AA04",
"oX c #59AE04",
"OX c #52A609",
"+X c #59A609",
"@X c #55AB0A",
"#X c #59AE0B",
"$X c #59A606",
"%X c #5DB204",
"&X c #5DB20C",
"*X c #59AE11",
"=X c #59A715",
"-X c #5BB211",
";X c #62B604",
":X c #65B904",
">X c #61B50B",
",X c #66BA0B",
"<X c #69BD09",
"1X c #62A51F",
"2X c #61B511",
"3X c #65B910",
"4X c #68B812",
"5X c #60AC09",
"6X c #5B9629",
"7X c #518725",
"8X c #63942B",
"9X c #62A625",
"0X c #68B229",
"qX c #688D45",
"wX c #6DA045",
"eX c #B3824F",
"rX c #B68350",
"tX c #BB8652",
"yX c #BC8953",
"uX c #B38959",
"iX c #B6896B",
"pX c #87AC67",
"aX c #C28555",
"sX c #C48A56",
"dX c #C78C58",
"fX c #CC8B5A",
"gX c #CD855A",
"hX c #D38D5D",
"jX c #D88D5F",
"kX c #D28558",
"lX c #D1915D",
"zX c #DC8F61",
"xX c #DD9161",
"cX c #C99573",
"vX c #E09163",
"bX c #1A6083",
"nX c #406D84",
"mX c #1A87B1",
"MX c #D19E82",
/* pixels */
"}.}.&X;X+X^.^.|.OX.XoX;XXX%X#X+X>X%X>X%X.X#X*X@X~.}..X>X&X}.&X|. X&XoX3X#X}.@X}.}.}.@XXX-X.X}..X<X:X",
"@X}.#X%X,X.X}..X&X$X#X&XXX%X;XoX,X$X>X&XXX@X@XOX~.}.}.&X#X}.-X.X X%X.X,XXX~.@X.X@XOX@XoX&X XoX}.:X:X",
"}..XXX%X;X.X^.@XXXXX^.&X5X>X;X,X:XXXoX>X@XOX.X}.|..XXX@X&XXX#X}.}..X}.4X.X^.OX@X&X#X}..X&XOX}.}.;X%X",
".X.XoX%X>XoX^.OXXXoX~.@X&X:X:X<X%XXX.X>X#X|.OX|.}.XX.XXX>XXXoXXX}..XoX2X}.^.}.@X#X.X~.$X&X#X~.XX%X%X",
"#X}.%X;X;XoX}..XoX&X}..XXX%X:X<X%XXXoX#X@X|.@X}.}..XXX.X&XoX.X&X|.XX%X%X$X.XXX.X#X}.}..XoX&X}.&X%XXX",
"#X.X%X>X%XoX&X.XoX&X@X.X$X.X;X:X%X.X&X$X&X}..X}..X.XXX}.&X&X|.#X.XoX#XoX%X,X.XXX%X}.@X.X@X&X X#X%X}.",
"|.}.XX%XXX#X.X|..XoX2XoX.X.XXX5XoX.X.X#XXX}.}.|..XXX}.~.#X&X}..X}..XXXXXoX&X}.}..X%X#XXX&XXX.X#XXX~.",
"}.^.XX&X.XXX@X}..XXX3XoX.X.XXX#XoX.X.X>XXX}.}.OX}.&X@X~.@X%X.X.X}.}..XXXXX&X}.}.XX3X&X&X&X}..X&X#X.X",
"oX.XoX&XXX%X>XOX.X%X<XoX}.}.@X@X}.}.#X#X&X}.}.&X.X>XXX}.&X.X.X.X}.XX$XXXOX#X}.}.XX,X;X%X#X}.^.OXoX.X",
" X|..X&X%XoX&X.X.X&X3XoX|.~.!.).E.(.@X}.%X}.OX#X~.&X.X}.=XW.W._.).OX#X}.#XOX|.}..X,X%X%X#X}.~.|.|.}.",
"OX}.}.&X;X;X,X.X}.oX&X%X^.1 z X.9 [ [.|. X X.X.X~.#X].8X5.z | s ` `.-XXX$X}.}.~.XX%XXX.X#X.X~./.}.~.",
"OX}.R.@X;X<X,X^.}.XX%XXX`.1 m.MXuX*.9 ! |.&X@X XXX=X( H K.cXcXP ` |.@X&X.X.XoX}.%X%X.X#X.X}.(.^./.~.",
".X|.^..X5X:X;X.X.X.X&X.X|.U >.-.v l.1.= 2.9X9X=X=X~ r l.f.c a.k ` }.XX&XXX.X&X.XXX%X}.&XXX}.@X}.}.}.",
"XXXX.X$X%X:X;X$X#X@X#X.X}.U P c # v p.L y ..9.9.O.t :.u.j   $.g ' .X&XXXXX}.#X}.XX%X}.&XXX}.@X@XOX@X",
"oX%X.XoX;X;X%X#X@XOXXXoX~.U P D # % v u.K h P J k >.#.d % $ >.g Y.@X>X}.XXXX@X^..XoX}.#X^.~.|.OX}.&X",
"%XoX}.$X:X;XoX%X}.}.@X#X~.I 3 h % $ J d.c.:.S K i.c.p.d # 5 g 4 E.#X&X.XXXXX@X~..X%X.X X~.~.}.}.}.&X",
"%XXX}.}.<X:X%X#XOX}.|.*X|.Y.8   5 # -.m.i.S @ % K n.c.c # & o ] }.%X%X$X.X.X#X}.XX%X X.XR.~.}..X`.2X",
"%X}.OX}.%X%X%X.XXX X}.OX|.}.E o K &.n.M.D X 3 * 7 &.S.p.>.C q [ oX>XoX-X}..X&X%X%XXXXX&X}.}.}.|.^.&X",
"XXXX@X}.%X%X.X}.@X XR.}.|.! 9 @ F =.x.j.g 4 ; ; * M C.u.K C = E OX#X.X>X}.OX%X&X-X}.@XXX X}.}.|..X#X",
".X X@X XXX%X}.OX X-X}.}.~.> d c & c P x s f % - f k N J A 6 L - Q.oXXXoXOXXX%X%XoX~.|.OX X~.|.~..X`.",
".X}.&X.X.X&X}.XXXX&X#X}.}.I S %.b m w.7.- k % i l 0 bX0.F =.y.g 4..X.XXX&X%X;X%X}.!.@X@X#X|.}.R..X}.",
".X}.&X.X}.#XXX&XoX#X#X}.}.! 9 s.Z.G bXnXB m S v B X.mX6.:.P.=.X 2.{.`..X.X%X%XXX}.|..X#X&X.XR.}.|..X",
"|.~.&X&X}.&X%X%XXX X-X}.}..XE u.cXV.r =.r.u.M.k.e.e.D C iXiX| e G 6 ( ].}.oX%X.X~.|.|.oXXX}.}.|.^..X",
"}.~.|.*X X&X:XXX X}.#X}.}.E.9 e A j.C.t.%.m.rXJ.a.#.f.C.:.r q =.Z.p.p ^ `.}.oX.X}.}.}.oX.X}.~.~.}.}.",
"}.R.~.oXXX;X,X}.}..X#X|.E.T 4 X X g p.c.u.s.yXG.#.d.c.$.3 o e M.jXjXK.5 ( +XXX.X|. X}..X.X~.}.R.}.}.",
"}.~.^..X%X%X&X}..X}.#XE.1 # 5 l 6 o -.G.j.*.eXS.%.H.M.A o g j.dXjXvXkX<...[.%X.X|.&X}.XX#X~.@X}.^.^.",
"^.^.}..X%X%X&X}..X}.).I 7 v H p.$.7 1.G.:.s g f c n.H.G f k.rXtXfXjXhXF.+. .$X.X}.XX^.#X}.}.@X}.}.^.",
"^.|..XoXoXXX$X.X~.}.)., :.L.U.eXG.n.;.<.>.* o o 6 v.-.<.M.yXF.F.tXsXsXG.l 4 `.}.@X|.}.@X}.|..X}.}.}.",
"}.}.}.oX.X.XXX.X~.~.W b I.xXgXG.J.tX;.G u.C 0 e F y.A N.yXyXD.M.h.s.C.n.v , (.^.oX}.}..X~.&X X}.~.|.",
"|.}..X%XXX.X.XoX}.E.# h.zXxXyXC.F.yXH.1.D c 0 3 v F b.eXyXG.m.p.H l :.x.:.# R ).#X.X}.}.}.-X X}.}.@X",
"@X}.%XXX.X=X^.XX}.!.z J.dXdXG.m.G.sXsXG.-.f & 7 C s.eXfXsXS.i.J % c p.m.c.L 9 ).XX X}.}..X&XoX}.}..X",
"|.}.oX.X~.@X.XXX}.Q s C.D.n.u.$.N.sXfXlXJ.;.. 3 1.sXhXfXJ.d.H 5 & S p.m.K.A.b ). X}.}.}.OX&XoX}.~.@X",
".X}.oX}.~.}.*X#XE., K x.d.J j 7 K j.G.gXgXH.,.1.yXfXaXC.s.@.s * ~ 4.=.m.yXI.) )..XOX|.}. X.X&X}.~..X",
"}.}.XX~.~.^.@X&X_.a l.d.d.L * 5 M $.f.G.yXsXdXdXsXrXp.x p l 6 ~ 6X6X;.Z.gXI.) +X^.@X@X}..X.X*X}.~.}.",
"}.|.}.~./.}.|.&X_._ I.K.a.7 * H p.x.D.yXfXzXhXhXjXsX#.c c d 7 3.9X3.A c.fXL.) {.}.&X@X~..X@X@X|.@X}.",
"(.^.~.}.}.|.}.&X_.N kXsXx.r 7 y.m.m.Z.aXlXhXtXsXhXL.#.s.M.t.l 7 e e Z p.rXl.v 8XXX&X}.}.}.OX|..X&X~.",
"(.^.~.~.|.}.}.@XW._ kXzXx.t k a.d.d.x.F.L.tXrXeXF.#.@.H.rXH.r.g e X.M.eXyXp.Z [.XX;X.X~.}.OX^..X*X/.",
"^.}.}.}.~.|.}.%XE.a L.gXx.V k p.u.J t.x.m.j.m.d.@.N u.eXyXtXS.G ,.rXeXsXfX<.z Q.oX;XoX^.}.#X}.oX#X^.",
"+X@XOX@X~.|.}.&XE.a J.yXn.V k a.n.@.N %.x.i.M B x x v H.yXyXS.G ,.k.<.tXrXM 9 [.%X%X>X`..X%XXX%XoX@X",
"#X.X$X#X}.}.}.XXW.< m.tXF.V - M.D.%.p x K A 4 ; 6 4 7 a.eXyXj.C A h +.tXF.i 9 ].XXoX#X.X}.&XoX;XoX.X",
"~.}. X@X.X~.}.oX).< m.fXJ.t X B.rXM.@.d $ o.wXpX8X8 6 i.C.a.) f Z :.k.H.@.< Q. X.X&X#X^..X>X,X5X&X}.",
"}.}.}.&X@X^.}.(.I p K.fXrXt X B.yXD.x.K O q.0X}.OX6XO.+.d.$.n 7 t Z f 5 i W.}.OX|.#X.X}..X>X:X;XXX~.",
"#X}.}.@X@X}..X!.# u.eXH.eXN.A B.yXD.p.N   X.1X}.=XqXA $.x.p.%.S o E Y.Y.^. X XOX}.#X.X#X$X;XoX;X}.}.",
"&X.X/.}.}.}..XY M G.k.K.eX1.r B.sXF.%.u 8 [ (.|.[...- p.Z.G.G.<.. R }.&X.X X=X}.}..X|.#X+XoXoX.X}.|.",
"@X@X}.}.^.}.}., r.u.+.F.f.% . *.C.u.s ^ W.}.~.}.(.X.#.S.rXyXyXh.@ R  X&X|.}.*X~.}.}.}.@XoX.XXX.X|.}.",
".XoX~.}.}.|.OX( n + : k i { ' / + : ^ _.}.}.~.^.).| z.lXJ.L.dXC.u ( @XOX~.}. X/.|.}.}.&XXX.X.X.X|.^.",
"|. X}.~.|.OX.X!.W U W I Q .X|.! I Q _.XX~.}..X^.^.} g.z.m e.l.t./ '  X~.~.^.}.|./.}. X#X.X}.^..X}.}.",
"}.}.}.~./.}.=X^.~.~.}.OXOX|.|.^.}.XXXX X~.}.#X~.~.(.4.o. . .q.3.[ ^.}.~.~.R.}.}.}.OX.XXX.X^.~.^.^.@X",
"~.~.~./.T./.=X}.~.~.R.OX|.~.R.@X|.OXoX XR.R.@XR.R.R.R.T./.T./.@X}.~.~./.T.T./.~.OX/.~./.|.~.R.!.~.&X",
"/.T./.T.T.T.|.|.R.R.~.}.}.R.R./.|.}.XX~.R.R.OXR.|.R.R.T.T.T.R.|.T.~.~.R./.T.R.|.|.T.T.T.|.T.T.T.~..X"
};
