/* XPM */
static char *result[] = {
/* columns rows colors chars-per-pixel */
"50 50 220 2 ",
"   c #0F0F11",
".  c #0C1316",
"X  c #1C1D1A",
"o  c #161718",
"O  c #3A1F0D",
"+  c #361A09",
"@  c #2D1D15",
"#  c #231E1B",
"$  c #251C16",
"%  c #321E13",
"&  c #301F18",
"*  c #29190D",
"=  c #1C3108",
"-  c #1C2716",
";  c #182F06",
":  c #3C210D",
">  c #223A0A",
",  c #24221C",
"<  c #2C221B",
"1  c #2A2517",
"2  c #322115",
"3  c #3D2314",
"4  c #33241A",
"5  c #3A261B",
"6  c #3D2B1E",
"7  c #24321A",
"8  c #39321E",
"9  c #3A3D1A",
"0  c #3A310F",
"q  c #1B1E21",
"w  c #161F22",
"e  c #1D2122",
"r  c #232222",
"t  c #2D2623",
"y  c #3B2C24",
"u  c #342822",
"i  c #393725",
"p  c #2F3721",
"a  c #47240E",
"s  c #412614",
"d  c #4C2B13",
"f  c #452C1D",
"g  c #4C2E1B",
"h  c #522D13",
"j  c #572F14",
"k  c #4B301D",
"l  c #5A3213",
"z  c #54321C",
"x  c #5C361E",
"c  c #583519",
"v  c #63391B",
"b  c #693C1B",
"n  c #623718",
"m  c #443529",
"M  c #4D3322",
"N  c #593622",
"B  c #533B2C",
"V  c #563824",
"C  c #4A2E20",
"Z  c #613B25",
"A  c #643B27",
"S  c #1E4116",
"D  c #2F5E0E",
"F  c #294616",
"G  c #34451B",
"H  c #334E1A",
"J  c #364917",
"K  c #34521A",
"L  c #3B541B",
"P  c #395B18",
"I  c #2A4E09",
"U  c #396709",
"Y  c #376808",
"T  c #3A7606",
"R  c #346414",
"E  c #3E6A1A",
"W  c #376219",
"Q  c #2B4B22",
"!  c #3B452C",
"~  c #3C4B2D",
"^  c #394625",
"/  c #295723",
"(  c #375228",
")  c #3F602B",
"_  c #48591A",
"`  c #427F0A",
"'  c #407C06",
"]  c #45681A",
"[  c #457815",
"{  c #4A4A28",
"}  c #53482A",
"|  c #425B23",
" . c #44582C",
".. c #544133",
"X. c #425A31",
"o. c #4C513F",
"O. c #545E30",
"+. c #6B4223",
"@. c #6E492C",
"#. c #69422A",
"$. c #734B2D",
"%. c #7B4B2C",
"&. c #714426",
"*. c #6B4532",
"=. c #6D4835",
"-. c #664632",
";. c #7C4C32",
":. c #7D5433",
">. c #785638",
",. c #7A522C",
"<. c #47632D",
"1. c #4B652E",
"2. c #4B6B2C",
"3. c #466A25",
"4. c #4B722B",
"5. c #497727",
"6. c #537B2D",
"7. c #547432",
"8. c #53652D",
"9. c #82552E",
"0. c #814F32",
"q. c #835234",
"w. c #825238",
"e. c #8B563A",
"r. c #815E3D",
"t. c #8E593D",
"y. c #8A5A35",
"u. c #925C3E",
"i. c #905836",
"p. c #8A633C",
"a. c #93643B",
"s. c #9A643D",
"d. c #986B3F",
"f. c #946029",
"g. c #965E42",
"h. c #985F43",
"j. c #896540",
"k. c #976242",
"l. c #9A6244",
"z. c #9C6B43",
"x. c #966C43",
"c. c #9B7045",
"v. c #926A51",
"b. c #A26D47",
"n. c #A46D48",
"m. c #A66A45",
"M. c #A57446",
"N. c #A67249",
"B. c #AA754B",
"V. c #AD7B4C",
"C. c #B17E4E",
"Z. c #B7764C",
"A. c #B87B52",
"S. c #C07C53",
"D. c #3A8E03",
"F. c #3C9501",
"G. c #3F9802",
"H. c #379300",
"J. c #47890A",
"K. c #449403",
"L. c #449B02",
"P. c #499D02",
"I. c #4B920C",
"U. c #449C08",
"Y. c #4A9D09",
"T. c #489409",
"R. c #539C0F",
"E. c #498414",
"W. c #488717",
"Q. c #509611",
"!. c #569D1C",
"~. c #4D9811",
"^. c #4DA303",
"/. c #4DA409",
"(. c #47A001",
"). c #51A603",
"_. c #54AA04",
"`. c #59AE04",
"'. c #52A609",
"]. c #59A60C",
"[. c #54AB0A",
"{. c #59AE0B",
"}. c #59A604",
"|. c #5DB204",
" X c #5DB20C",
".X c #56A414",
"XX c #56AB10",
"oX c #59AC10",
"OX c #5CA616",
"+X c #5DB212",
"@X c #61B505",
"#X c #66B903",
"$X c #61B60C",
"%X c #65B90B",
"&X c #69BB03",
"*X c #65B911",
"=X c #64B516",
"-X c #55882B",
";X c #579228",
":X c #609E26",
">X c #63A225",
",X c #B3814E",
"<X c #B78650",
"1X c #B98751",
"2X c #BA8952",
"3X c #AF8F69",
"4X c #C38A56",
"5X c #CD8459",
"6X c #C98B58",
"7X c #C68757",
"8X c #D58C5D",
"9X c #D98E5F",
"0X c #D7905F",
"qX c #D98F61",
"wX c #C0916F",
"eX c #D79B79",
"rX c #C78660",
"tX c #649081",
"yX c #88B09A",
"uX c #DFAF93",
/* pixels */
"^.^. X X`.).P././.).`.@X}.|.U X I D.r ^ J.{.+X[.L.^.).$X{.). X/._. X`.*X{.^.)./.^./.{.`.$X).^._.%X&X",
"[.^.{.|.@XP.P.).{.`.{. X`.`.U - 1 = B 3X8.Q.{.].L.^.^. X{.). X).).`.).*X_.P.[./.{.)._.`.+X^.[.^.#X#X",
"^.)._.|.@X).).'.`._.^. X`.%XU $ q . B uX3XO.J.P.Y.).)._. X).{.^.^.[.).*X).P.).[.oX_.P._. X[.(.^.@X@X",
").).|.|.%X`.P.'._._.L.[.{.%XU   e o f n.uXv._ E.).[._._.+X`.`._.^.^.`.%X/.P.).[.{._.L.[. X{.L.`.@X_.",
"[.^.`.@X@X`.^.).`. X/.).).J.= - q t d ;.eX5X;.J K._.).). X`.).{.^._.|. X}._.).)._.^.(.).`. X^. X@X).",
"{.).@X$X|.`.[._.`. X{.).' = X y u y h h Z.qXi.% U )._.^. X X^.{._._.{.}.|.$X_._.`.).[.). X X^. X_.).",
").^.`.@X_._.[.^.^.`. X' ;     3 j z A c g.S.i.s _ T.).L.[.+X^._.).).`.).|. X^.^.`.{.`.`. X_.^.{._.P.",
").P.). X)._.{./.).`.].I 1 B $.,.9.0.u.0.g.Z.m.b d ] [.L.[.`.).^.^.).)._._. X^.P._.*X X X+X^.). X{.).",
"_._.{. X`.`. X'._.|.I.> h f.Z.,Xd.t.h.h.g.l.V.i.M ] _.P. X_._.).^.[._.).).{.^.^.`.%X@X@X{.^.P.[.`.).",
"^.^._.$X|.`.$X).P.T.> # k >.o.k +.;.h.h.g.k.,Xn.=.2.T.).$XP.)./.(./. X/.'.'.^.^._.$X@X_.{.^.P.Y./.^.",
"/.^.P. X@X@X{.T = - , # 4 yXtXb x.t.g.g.g.l.,XN.;.V W '.{.P.^.).^.(.+X^.[.).^.P.).|.`.).{.^.U.Y.(.P.",
")./.K.'.|.E.F - # f z s A wX3Xa.b.l.g.g.l.C.,XM.u.-.L '.^.)._.[.L./.[. X_.)._.^.|.|.^.[.`.^.L.L.U.L.",
"^.'.P.).[ 8 e w m a.+.l &.u.Z.Z.5XA.g.h.Z.6X4X,Xn.=.<.'.^._._.[.L.^.).*X_.). X)._.|.). X[.^.[.^.^.^.",
"_.[.)._.W r o m x.b.t.z.b.s.M.6X6X4XV.C.6Xm.M.2XB.;.} 5.[.[.'.^.^._. X`._.^. X^._._.^. X^.^.{.'.'.{.",
"`.|._.`.~.H m c.,Xb.l.a.y.$.,.i.a.C.1X2X4X%.c.2XB.0.N <.XX).).(.^.{.$X)._._.[.L._.`.).{.P.P./.[.^.{.",
"|.`.^.}.@XR.3.p.p.=.-.g a a l +.w.l.V.B.a.9.B.2XB.0.M ~ ;X[.'.(.^.}.{.).).).'.L._.|.).).L.L.^.^.^. X",
"|._.^.^.$X#X~.( f e w q M N z #.w.t.g.0.;.x.<X<Xz.e.A o i -X;XK.).|.|.}.)._. X(.`.|._.).P.L.^.[.).$X",
"|.^.[.^.@X#X XK.F S S F H ( ~ e 4 A ;.;.g.B.V.b.g.g.;.M B ..i [ _.$X`. X^._. X`. X_._.[.(.(.^./.P. X",
"_.).[./.|.|._.^.[./.U.P./.T.2.u % # u w.g.g.h.h.g.0.%.h.m.h.-.p ;X_.). X(.[.`.|. X/.[.[.'.(.^.U.Y.{.",
")._.{.^._.|.(./.).+X(.P.U.D 8 s : % s A g.h.g.h.0.w.g.Z.qXqXrXA ! W._. X[.[.|.|._.U./._.).P./.L.).'.",
"^.^. X)._. X^.[.). X{.(.K.H C v n A e.t.g.g.h.h.N.,X,X2XqXqXqXl...5.^.^. X`.|.|.^.K.'.{.`.^.(.L.'.^.",
").^. X_.^. X[. X[. X{.^.P.H -.u.u.h.l.h.h.h.k.B.,X2X2X2X7XqX9XA.-.7 ` ^.[.|.|._./.^.).{.{.[.(.L.'.^.",
").L.{.{.^. X|.|._._. X).P.H >.<XC.C.C.C.V.C.V.<X2X2X1X,X2X4X6X1X,.@ E (.).[.|._.P.[./.`.[.).L./.P.).",
"Y.L./.+X). X|._.^._.{.^.L.H j.2X2X2X2X1X2X2X2X1X2X2X,Xn.B.,X2X,Xa.V G W.(.)._._.P.^.^._._.P.L.(.).^.",
"P.K.^.`.).#X%X^.).).{.P.Y.K >.2X<X2X2X<X2X<X,X1X,X2X,Xa.0.N.1X2XV.#.# 3.^.^.[.).)./.^._._.L.(.L.^.^.",
"^.L.P.).|.|.%X^.P.^.{./.'.L p.2X2X2X,X2X<X<X6X6X2X2X2Xz.f *.N.1X<X,.2 3.).^.`.)./.{.^._.[.L.[.(.^.L.",
"P./.^.).|.|. X^.^.^.'.'..X .-.V.2X<X<X2X4X6X9X9X6X,XV.x.@ & q.C.2Xa.B 5._.^._.^.).[.^.[.^./.[.^.^.P.",
"L.).^.{._._.`.^.P.^.).[.!.X.X :.,X2X,X1X7X7XS.B.V.M.u.$.8 G x M.<XV.=.5._._._.).[.^.^.[.^.)._.^.^./.",
"^.^.^.`.).).`.).L.^.^.Q.X.r o B c.2X4X4Xn.m.w.&.e.h.e.g G E.} q.,X2Xp.6.{.`._.(.[.(.^._.L.[.[.^.L.).",
").^.^.`._.).)._.P.P.I. .t & 1 f y.2X8X8X2XC.l.t.h.h.;.@ G J.^ v M.4Xr.2.[.).^.^.{.^.^.^.^.+X).^./.).",
"[./.`.`.'.[.P._.^.P.( 5 3 O 2 5 9.<X4X8XqXm.g.h.h.h.;.4 | I.^ x M.2X:.1 E (./._.[._.).^.). X|.^.^.[.",
"/.^.`._.L.]._.).P.I.^ z a O 1 $ $.<X2X4X1Xl.g.h.g.e.N  .Q.I.{ q.C.2Xp.5 K P.)./._.^.^.(.'.{.`.^.L.).",
").^._.^.L./.{.{._.K.{ x d + < X Z B.1X,XM.h.h.h.l.%.5 <.I.8.w.V.1X1X,X>.K P._._.^.).'.(.).[.{.(.L.).",
"^.).).P.L.P.[. X_.D.~ x d O @ # 6 Z $.9.%.u.h.q.%.N r <.J.} h.C.1X6XB.V | U._.[.P.'.[.^.'.).+X^.P.^.",
"^./.^.L.P./.^. X{.K.i z s O < r # + d %.a.k.g.%.l 4 t <.E.i @.V.2X4Xs.3 _ U.^._.^. X[.^.[.'.[.^././.",
"P.P.^.L././.P.{.`.P.R 8 & & 1.1.1 d q.B.1XB.t.N 3 & ~ -XE.7 @ c.2XM.,.{ [ L.L.^._. X^.L.^.'.^.[.{.L.",
"T.P.L.L./.^.).{.`.}.T.[ K | :X-X1 x N.1X2XV.$.4 & & 4.+XJ.H 4 =.p.@.k J.[.(.L.^.`.|.).P.P.'.P.).+XU.",
"P.).P./.P././.`.`.`.P. X{.].OX8.M a.<X2XC.e.y $ : 2 7.=X^.K.P H L H T ^.'.'.L.L.`.@X`.P.).{.^.`.{.^.",
"[.{.'.[.L.[.P.`._.).).`.$X X6., +.2X2X,Xu.f # % O 2 O.>X^._.+X{.L.[././.^./.(.^.|.@X$XP.).|._.@X_.[.",
"[.).).{.^./.P._.|.).P.`.`._.4.< $.2X2XV.+.< @ : O O y 2.L.{.|.).). XP.L././.^.).).{.$XP.). X|.|.`.^.",
"(.^.).XX_.L.)._.$XP.)._.`.).5.f 9.2XC.u.f # % : : : 5 X.Y._. X^._. X^.L./.(.^.).).{.{.P.P.%X%X$X X^.",
").(.^.{.[.(.^.[.$X_.}.P.[.P.4.g y.C.z.t.u w 2 h v d : 8 7.].`.^._.|.^.(./.(.^.[._.{._.P.}.@X@X@X_.P.",
"{.(.^._.'.^.).`.{.{.P.D (  .{ #.z.C.g.#.t q , z b v h % ~ .X{.^._.|.^.)./.^.^./.Y. X_.[.}.|.|.`.^.^.",
" X_.(./.^.^._._._.{.T.J p.z.z.N.,X<Xb.v , q r 5 l b v d i <.].`. X_.(.[.[.'.XX/.P.}.^.{.].`.`.`.P.^.",
"{._.(.(.L.^._.^./.{.T.F q.,X2X2X1X2XV.;.4 # 2 % j b b v g ! I.+X X'./.{././.[.G.^.^.^.{.|.).`.)././.",
").[.(.^.^./.^.^.^._.'.Y 0 :.,X2X2X2X<Xz.y * : % h b b v g ! P.{. X^.'.'.P.^.[.P./.^.^.{._.).).^./.^.",
"^.{.^.(./.XX_.L.P.(.[.^.T f >.d.V.2X2XN.m X 4 4 f M x g p E ^.[._._.).(.^.L.^./.(.^._.{._.^.P.'.^.^.",
"^.^.L.U.U./.[.L.L.L.(.).^.T F G =.c.x.>.( / / / ( ( ( Q R U.^._.^.^.(.P.F.L.^.(././.^._.).P.L.P.L.{.",
"L.L.G.F.G.U.XX/.L.L.F././.L.G.W.K ] _ E D.L./.L.G.G.F.G.G.G././.(.L.L.K.U.G.U.L./.(.U././.G.F.L.L.{.",
"P.F./.F.F.G././.F.H.U.P.(.G.H.U.U.P.).L.D.F./.G.U.H.H.H.H.H.G./.F.U.L.H.U.F.F.P./.H.H.G./.G.H.H.L.)."
};
