/* XPM */
static char *result[] = {
/* columns rows colors chars-per-pixel */
"50 50 222 2 ",
"   c #141608",
".  c #1D1A14",
"X  c #1D1D1B",
"o  c #1A1616",
"O  c #3A1E0C",
"+  c #351D0E",
"@  c #231A15",
"#  c #2E1D14",
"$  c #241C19",
"%  c #261A15",
"&  c #311E13",
"*  c #22150D",
"=  c #1A2314",
"-  c #192F08",
";  c #3A210F",
":  c #293A0A",
">  c #31380F",
",  c #212A15",
"<  c #2B221C",
"1  c #232C1D",
"2  c #2F2818",
"3  c #352214",
"4  c #3A2314",
"5  c #33221B",
"6  c #3B261A",
"7  c #3C291B",
"8  c #322819",
"9  c #28351E",
"0  c #373818",
"q  c #1A1E20",
"w  c #241F20",
"e  c #1E2022",
"r  c #232322",
"t  c #2A2E21",
"y  c #382D24",
"u  c #2C3626",
"i  c #3A3C25",
"p  c #44260F",
"a  c #4D260E",
"s  c #442512",
"d  c #4B2A14",
"f  c #40271B",
"g  c #432A1B",
"h  c #4A2C1A",
"j  c #472914",
"k  c #542E14",
"l  c #592F1C",
"z  c #4C371C",
"x  c #5B3215",
"c  c #53321D",
"v  c #5D341B",
"b  c #5C391C",
"n  c #653A1B",
"m  c #663A19",
"M  c #412C20",
"N  c #493726",
"B  c #543A2B",
"V  c #573926",
"C  c #653C26",
"Z  c #643D2B",
"A  c #29490B",
"S  c #33480D",
"D  c #2F5A09",
"F  c #2E5708",
"G  c #365F0C",
"H  c #36550B",
"J  c #294411",
"K  c #2F491C",
"L  c #314113",
"P  c #3B441D",
"I  c #394B19",
"U  c #335213",
"Y  c #395415",
"T  c #395B17",
"R  c #346B06",
"E  c #366509",
"W  c #2F7108",
"Q  c #3A7508",
"!  c #3A6515",
"~  c #3D7111",
"^  c #395625",
"/  c #3B4D2C",
"(  c #434919",
")  c #49541A",
"_  c #425818",
"`  c #66411B",
"'  c #437B0B",
"]  c #44740B",
"[  c #476915",
"{  c #437413",
"}  c #457A14",
"|  c #45781B",
" . c #557F1E",
".. c #51621B",
"X. c #434C21",
"o. c #4E4626",
"O. c #514425",
"+. c #5B4828",
"@. c #475A32",
"#. c #4F562C",
"$. c #634325",
"%. c #6C432D",
"&. c #69462C",
"*. c #75462B",
"=. c #754C2B",
"-. c #7A4B2D",
";. c #754527",
":. c #7E5228",
">. c #684432",
",. c #744B32",
"<. c #7B4C32",
"1. c #784E3A",
"2. c #7D533B",
"3. c #795637",
"4. c #456423",
"5. c #486A2D",
"6. c #4A7C25",
"7. c #706137",
"8. c #6D6A3A",
"9. c #6C5242",
"0. c #776B4B",
"q. c #4A7F70",
"w. c #804F34",
"e. c #835234",
"r. c #855933",
"t. c #835439",
"y. c #8A553A",
"u. c #845A3B",
"i. c #8D5B3B",
"p. c #895A34",
"a. c #915A3E",
"s. c #9F5E3A",
"d. c #8B613C",
"f. c #86623F",
"g. c #94633D",
"h. c #95693E",
"j. c #965E42",
"k. c #985F44",
"l. c #956142",
"z. c #9A6443",
"x. c #966B41",
"c. c #9D6B44",
"v. c #98674A",
"b. c #9F7145",
"n. c #9D6D50",
"m. c #886441",
"M. c #A16747",
"N. c #A26B45",
"B. c #A26C48",
"V. c #AC6D46",
"C. c #A27245",
"Z. c #A5734A",
"A. c #AA754B",
"S. c #AD7A4C",
"D. c #A6794B",
"F. c #B4754B",
"G. c #B27E4E",
"H. c #BB7D4F",
"J. c #BD7B52",
"K. c #B77E51",
"L. c #C37F55",
"P. c #3E8901",
"I. c #3E9300",
"U. c #438E03",
"Y. c #4A890A",
"T. c #538F0E",
"R. c #439501",
"E. c #459B01",
"W. c #499E02",
"Q. c #4C930C",
"!. c #4B9D0A",
"~. c #4A9604",
"^. c #519E0A",
"/. c #4A8418",
"(. c #559719",
"). c #4DA302",
"_. c #4EA409",
"`. c #4FA808",
"'. c #51A603",
"]. c #54AA04",
"[. c #59AE04",
"{. c #52A60A",
"}. c #59A70C",
"|. c #55AB0A",
" X c #59AD0B",
".X c #59A705",
"XX c #5CB204",
"oX c #5CB20C",
"OX c #57B00E",
"+X c #5AAE11",
"@X c #57A611",
"#X c #5DB211",
"$X c #61B607",
"%X c #62B807",
"&X c #61B60C",
"*X c #63B90C",
"=X c #68BE0D",
"-X c #61B612",
";X c #65BA12",
":X c #69BE14",
">X c #5B922A",
",X c #4C8222",
"<X c #609431",
"1X c #6AC014",
"2X c #B3814E",
"3X c #B68651",
"4X c #B98651",
"5X c #B78850",
"6X c #BA8952",
"7X c #BD8D72",
"8X c #AB8F6D",
"9X c #C18555",
"0X c #C38B56",
"qX c #CA8C59",
"wX c #C98558",
"eX c #D48D5D",
"rX c #D98E5F",
"tX c #DA8F60",
"yX c #DB9165",
"uX c #D19977",
"iX c #E19263",
"pX c #79A08C",
/* pixels */
"E.|.].oX1X[.).)._.OX'.oX'.'.W. X].;X X'.W.R.|._.W.#X+X.XR._.&X'.`.`.`.`.).).).|.'.].-X.XE.W.'.[.;X:X",
"E.|.&X$X=XoX).).).+X{.#X_.W.W.&X'.oX&X).U.E.oX~.W.-X;X'.W. XoX'.). X].E.].]._.oXW.{.-X'.)._.W.[.=X=X",
"W.'.XX%X%XXX).`.E._._.`.).E.E.+X).).*XE - Q { = D +X-XW.).oXoXW.E. X`.E.).|. X|.!.].-XE. X{.W.[.*XXX",
"E.'.[.*XXX X).`.!._._._.W.E.). X|.).].H X , 1 9.3.,X}.E._.oX XR.I.OX).`.`.).-X).E.}.|.W.{.W.W.[.$XXX",
"I.).[.oXXX[.).]._.E.`._.E.E.].oXoX)._.D = e o n.uX0.! W.{. X'.E.).#X_.`.E.).#X|.!.[.'.).'.R.'.[.[.$X",
"I.).].XX|.].[.`.!.I._.).W.E.]. X;X].E.D r e $ *.uX7X&.[ {.|.'.'.|.#X|.).R.'.|.-X X].).].].R.].XX$X[.",
").).`.XXXX).[.]._.E.).).).'.].].;X].E e r < 7 d v.yXV.N ~ ).).{.|.+X_.E.!._.).;X&X'.'.].oX).].[.%X].",
").|.].[.oX).`.OX_.E._.).oXoX'.].-XE . o g 7 c d *.wXV.g ! '.).|.].#X).W.).).].#X;X.XW..XoX).).[.XX'.",
"E.-X@X).oX].).OX_.).`.).].oXW._.Q , 8 3 b C <.;.-.J.V.m N | .X|.`.].).).E.].-X].oX[.W. X|.{.W.[.oXW.",
"{.oX|.).XXoXE.).|.E.{.`.[.oXE.W.F f r.S.S.a.a.a.a.M.A.p.h !  X).).`.).).].].:X_.|.].W. X].'.E.[.&XW.",
"&X_.'.'.[.&XE.E.`.E._.].oX[.R.F = h :.3.*.-.y.j.k.j.Z.A.>... X'.`._.).I.|.].1X'.'.].'.].|.W.R.[.$X^.",
" XW.'.).].#X).)._.`.I._.-X~ A , q # pXq.` i.j.k.k.k.A.A.<.o.} '.`.`.I.).].oX&X'.).'.].'.|.R.W.[.&X^.",
"'. X'.W.|.#X{._.).`.I.! ^ 1 @ g 4 V 7X8Xa.N.j.j.j.N.3XA.j.>.5.).OX_.).).[.oX[.`.].'.). X].E.).$XoX^.",
"E.].|.E._. X{.|.W.E.! u e e r.w.x ;.g.A.J.wXA.j.N.9XqX3XZ.1.5.!.OX).).).XX*XXXoXoXW.W.oX}.).[.&X[.'.",
"W.].oXE.).OX_.{.).E.^ r e 3.A.g.g.C.g.S.0XqX4XS.0XF.N.6XS.e.o.~ `.I.).XXoXoX].*X XW.W.&X].[.[.&X.XW.",
"{.].oXE.)._._._.).|.>X/ 0.G.N.k.i.-.$.-.r.l.S.6X6Xs.p.6XA.y.M T _.).].XX#XXX`.#XoX_.W.%X[.$XXX&X{.W.",
"].).oX_.E.E._.).).OX#X(.8.u.>.B g s a x *.a.z.Z.g.r.B.6XS.e.h u 6.R.|.&XoX).).oX%X).E.oXXX%X$XoXE.I.",
"`.).;XOX).).E.)._.+X-X]./.#.t u u N N 7 B %.y.y.<.z.3XG.z.j.C # / @.}  X[.).{.].oX|.).%XXX%X[.].E.I.",
"|.`.OX1X`.).).E.|.|.#X).W.(.,X>X<X<X/ e o 5 N ,.a.M.B.z.l.y.<.<.<.Z i _ ] E.].).[.&X[.XX1X%X`.].I.R.",
"XX].[.#X`.).).).].|. X).W.).).XX;X;X5.$ + & . h w.k.k.k.y.<.y.c.K.J.B.2.2 R ).).`.oXXXXXXXXX)._.W.E.",
"XX].`.oX].).).).|.).|.).).E.].].%X#X4.f k k C ,.y.j.j.k.l.b.A.S.qXtXiX9X&.^ W.).).).oX[.XX[.)._.|.E.",
"`.].).XX[.).`.E.`._._.E.E.E.].[.oX X4.Z e.<.i.k.k.j.j.N.G.6X6X6X6XeXiXeXd.y } !.).).].].[.[.).I.@X).",
").].).oXOXE.].E._._._.R._._.].oX[.'.4.2.F.S.A.A.Z.A.A.G.5X3X5X6X5X9XqX0XC.6 K @X'.W.'.].|.].`.I._._.",
").].).].OX).`.I._.E.).I.).).).oXoX_.4.m.6X6X6X6X6X5X5X5X5X6XG.Z.Z.Z.F.5XS.&.0 | ].E.).].[.).).)._.`.",
").).^.].oXE.|.E.E.!.E.E.).).E.|.#XQ / m.6X5X3X5X5X3X2X5X5X6XG.z.<.Z w.K.5Xg.f / ].).).).].].).`. X).",
"'.).W.{.#X).|._.E.).E.E.]._.).].#X^ $ r.3X5X5X5X5X3X0XqX0X5X6Xc.&   f a.6XS.,.@.+X`.).`.oX].).`.#X'.",
").].W.'.#X)._.OX_.E.).E.|.).).).(./ 3 l C.6X6X5XqXqXtXrXqXG.A.p.o 9 X.+.x.4Xj.P /.'.E.`.XX`.).).+X).",
"E.'..XW. X).|. X_.E._.)._.).Q ! P # ; * u.2X5X5XK.J.F.M.c.B.i.&.X T Q.A +.G.C.6 K !.E.[.].`.).). XI.",
"R.W.].W.|.|.+X_.).E.|.#XW./.+.B B Z h . B Z.0XqX2XB.i.;.t.k.<.7 u } ).W y g.2X3.K '.].oX].`.`.].|.I.",
"W.R._._.). X#X).)._.).-X^.) 1.y.*.j.C @ 6 g.qXtXrX4XB.k.k.z.,.5 ^ !.).R + :.5XC.0 } oX.X).).].oX).E.",
"'.E.E.).).|.#XE.).oX).&X.X) t.a.m C c $ @ =.A.qXeXF.j.j.k.j.C 0 } ).U.G $.h.2X2X3.( ^.].).E.|. X).).",
"}.).).).).`.#XE.W.&X).oX}.) Z ;.m k & r < ; g.6X3Xc.j.k.z.w.f Y {..XQ z C.6X0X6Xd.( R.).|.).`.].`.).",
"].).)._.).).OXE.).].XX]..XI c m m j > Y 9 * $.h.c.a.k.a.e.n # U |.|.Q 0 d.3X0XH.x L P.).OX`.].].].].",
"oXE.)._.).).|.).).].XX[.XX] z v c ( Q.!.Y % d =.a.z.a.*.p + 5 U }.|.Q   V 2X3Xg.z E R.).|.|.)._.].).",
"oXI._._.I.`.`.E.].).&X[.[.'.R F H Q.'.U.L f u.G.G.g.*.j + O # U  X].~.: 7 r.u.N E R.'.E.|.|.).).).E.",
";X)._.I.|.`.).E.].).XXXX].].'.R.).|.}.F 4 3.G.6X3Xp.p ; d s & L Q.oX).U.A A S R E.W.'.).|.OX).E._.|.",
"oX].).I.OX).).).[.E.].XX).).).).].`.!.J V N.6X5Xz.V $ h n v s < Y ].'.'.|.)._.E.E._.).).].oX).E.|. X",
"oX].E.I.oX`.E.).].].].].`.).).`.`.).E o <.G.6XN.C . # k n n x 6 Y oXW.W.@X).).).).|.E.).`.oX_.).|.-X",
"*X[.E.E.oX|.E.].].`.).oX|.).).].).).T 5 h.6X3Xt.6 q # g m m m b #.(.].W.OX|.E. X).|.).E.). X`.E. X-X",
";X X`.E.|.#X).|.].`.].;X{.).|.].).).T ,.G.3Xl.B q u I P g m m n c _ ~.W.|.|.E._. X).).E.E.].].).oX[.",
";X].'.W.).;X'. X`.].XX X.XW.|.oX'.U.I f.6XA.C o 9 ] Q.Y 2 d n n x 6 _ |. X).).E.#X_.E.E.I.`.].[.*X].",
";X]..X'.W.;X&X&X`.XX[.).!.W.'.oXU.K 7 x.6XA.<.< G W._ t 5 k m n m c ) +X).).).I.OX`.).).I._.).XX%X].",
"&X]. X'.^.*X=X X[.&X`._.).W._.^...B u.G.6X6XA.>.} ' 8 3 d m m m v c [ {.I.`.).E.|.|.|.).I.).'.%X$X[.",
"XX'.oX^.W.&X&X$XXXoX).].{.W.W._ m.3X3X6X6X6X6X3./.} # 3 3 3 d V ( [ XX).). X).).|.).].).I.W.].%XXX;X",
" X.X&XW.W.[.XX*XoX'.W.}.}.R.W.[ ,.b.D.D.D.D.v.$.T.Y.> > > > > [ @X X[.E.`. X).I.|.)._.).).W.].$X[.:X",
".X&X XW.^.[.[.[.[.).).;X XW.oX!.! P P X.( X.( ] [.'.[..X'.R.R.]. XXX).W.oXoX).E.{.).`.).'.).].[.].:X",
"'.;X'.E.'.]. X[.).).].;X XoX-X).E.I.U.@XU.^.U.'.].'.&X$X].E.).].[.'.W.].oXoX).E._.).).E.].).].).].-X",
".X=XW.).[.'.|. X).'.].&X X#X X).).E.).#X_.@XW.].W.[.*X[.].).].'.oX).).[.oXoX).E.E._.E.E.`.W.].W. X#X",
"oXXX). X].'.'.#X).).[.&X&X&X).).).E._.#X_. X).).).].&X].[.].).).oX].W.].&X[.).).).).).E.).).|.W.oX|.",
"-X X'.oX'.W._.+X).).[.&X;X|.E.).).E.).|._.].E.).).oXoX'.XXoX).).oX{.W.'.oX].).). XW.).).E.OX_.).#X]."
};
