/* XPM */
static char *result[] = {
/* columns rows colors chars-per-pixel */
"50 50 217 2 ",
"   c #18191A",
".  c #1B0F0B",
"X  c #25100F",
"o  c #241B15",
"O  c #291D19",
"+  c #331E16",
"@  c #341E0F",
"#  c #2D221C",
"$  c #26291A",
"%  c #342014",
"&  c #3C2315",
"*  c #33261A",
"=  c #3A251B",
"-  c #352B1E",
";  c #3C291A",
":  c #2B391A",
">  c #36331D",
",  c #141C21",
"<  c #211F22",
"1  c #172223",
"2  c #1C2522",
"3  c #232422",
"4  c #2A2521",
"5  c #2D2820",
"6  c #322720",
"7  c #312B25",
"8  c #3A2C22",
"9  c #2D3B22",
"0  c #2E3122",
"q  c #3B3223",
"w  c #3C3C24",
"e  c #343824",
"r  c #46260E",
"t  c #4D2A0E",
"y  c #462815",
"u  c #4B2A14",
"i  c #432619",
"p  c #452A1A",
"a  c #4B2E1B",
"s  c #452612",
"d  c #552E13",
"f  c #4A311F",
"g  c #563016",
"h  c #5E3516",
"j  c #54331D",
"k  c #5B351C",
"l  c #65391A",
"z  c #6A3D1C",
"x  c #613617",
"c  c #463123",
"v  c #4B3224",
"b  c #493925",
"n  c #523221",
"m  c #5B3621",
"M  c #5C3B24",
"N  c #5C3A2A",
"B  c #523A27",
"V  c #5C3F31",
"C  c #402921",
"Z  c #633E2B",
"A  c #673D24",
"S  c #2F4819",
"D  c #2B4715",
"F  c #364919",
"G  c #2C5218",
"H  c #335D15",
"J  c #3C551B",
"K  c #385518",
"L  c #34540D",
"P  c #37660C",
"I  c #3B6513",
"U  c #396416",
"Y  c #3E7A0D",
"T  c #374425",
"R  c #3A5324",
"E  c #365624",
"W  c #42441E",
"Q  c #47591D",
"!  c #44511D",
"~  c #6B411F",
"^  c #40780E",
"/  c #416618",
"(  c #407313",
")  c #43731D",
"_  c #4B7B1C",
"`  c #437C14",
"'  c #494927",
"]  c #5A4429",
"[  c #485722",
"{  c #4C4834",
"}  c #584A33",
"|  c #6D4224",
" . c #66422C",
".. c #6E442C",
"X. c #674426",
"o. c #734525",
"O. c #75462B",
"+. c #754B2D",
"@. c #7C4D2E",
"#. c #7D522D",
"$. c #6C4632",
"%. c #674B35",
"&. c #7C4C34",
"*. c #794E37",
"=. c #655B39",
"-. c #7E5333",
";. c #78563A",
":. c #456821",
">. c #4B7725",
",. c #496736",
"<. c #536C32",
"1. c #69783D",
"2. c #7A6A3F",
"3. c #635E41",
"4. c #83552D",
"5. c #804F32",
"6. c #855434",
"7. c #845836",
"8. c #8C5B36",
"9. c #8B553B",
"0. c #8D5B3B",
"q. c #865637",
"w. c #915A3E",
"e. c #844F23",
"r. c #87633E",
"t. c #93633C",
"y. c #99663D",
"u. c #B2713E",
"i. c #965E42",
"p. c #985F43",
"a. c #8B6641",
"s. c #956243",
"d. c #9B6444",
"f. c #9D6A44",
"g. c #9D7659",
"h. c #A16C45",
"j. c #A66B48",
"k. c #A47347",
"l. c #A6724A",
"z. c #AA754B",
"x. c #AD7B4B",
"c. c #AD7247",
"v. c #B1744D",
"b. c #B17C4E",
"n. c #BD7C53",
"m. c #B77852",
"M. c #AE7D5D",
"N. c #3C8C03",
"B. c #3D8705",
"V. c #3B9501",
"C. c #3E9901",
"Z. c #418702",
"A. c #438C05",
"S. c #458B0A",
"D. c #45850F",
"F. c #449404",
"G. c #489305",
"H. c #449C02",
"J. c #499E02",
"K. c #4B930B",
"L. c #459D08",
"P. c #4B9C09",
"I. c #46950C",
"U. c #529C0C",
"Y. c #4A8E14",
"T. c #498314",
"R. c #4D9315",
"E. c #549916",
"W. c #4CA302",
"Q. c #4FA803",
"!. c #4DA409",
"~. c #47A003",
"^. c #51A603",
"/. c #54AA04",
"(. c #59AE04",
"). c #51A509",
"_. c #55AB0A",
"`. c #59AE0B",
"'. c #5DB204",
"]. c #5CB20B",
"[. c #56AB11",
"{. c #5AAD11",
"}. c #56A611",
"|. c #5DB311",
" X c #62B504",
".X c #65B904",
"XX c #61B50B",
"oX c #65B90B",
"OX c #69BC04",
"+X c #62B611",
"@X c #65B910",
"#X c #4C8423",
"$X c #4F8728",
"%X c #558629",
"&X c #5C8B33",
"*X c #5E962E",
"=X c #619236",
"-X c #6BC009",
";X c #708D7D",
":X c #B3824E",
">X c #B68551",
",X c #B98652",
"<X c #BA8952",
"1X c #B78851",
"2X c #B68F70",
"3X c #C38456",
"4X c #C48956",
"5X c #CB855B",
"6X c #CB8C5A",
"7X c #C88557",
"8X c #D38C5D",
"9X c #D88E5F",
"0X c #DB8F61",
"qX c #D59A76",
"wX c #75A797",
"eX c #BB9A80",
"rX c #E5B698",
/* pixels */
"W.W.].(.(.J.J.!.)./.(.oX/.(.{.}. X'.XX'.^._.|._.J.J.Q.XX].W.].Q./.].'.+X_.W.).Q.W.^._.(.]./.W.^.oXOX",
"/.W.`.'.XX^.J.^._.(._.XX(.'.].'.oX'.oX].^.!.).).F.H.J.].`.W.|.Q.W.(./.oX/.J._.W._.)._.(.|.Q._.W. XOX",
"Q.^./. X X^.).).^./.J.XX(. X XoX.X/.(.+XS.D H D.K [ R._.]./._.W.W./.^.@X).J.^._.{._.J./.].).W.^. X X",
"Q.W.(.'.oX(.J.)./.(.L._.`.oXOXOX'.^.U.XXY   $ : { 2X1.I.+X(././.W.^./.+XU.J.^._._./.H./.].`.H./.'.(.",
"/.^.]. X X(.^.Q.`.XXJ.^.^. X.XOX'./.(._.^ $ <   V qX2X1.E.`./.`.W./.(. X/.^././.(.W.J.W.(.].W.].'.^.",
"_.^.(.XX'.(._.^.(.].`.^./.^.'.OX XJ.].(.^ # 3   C m.rXg.[ K.^.`.Q.(.`.(.(.]././.(.^._.Q.].]./.`.(.W.",
").W./.'.(._./.W.^./.+X(.^./.(.].'.J.(.K.K 3 1 4 a O.qX5XO.F Z./.W.^.(./.(. XW.W.(.`.(.(.]./.W.`.(.J.",
"^.W.^.XX^._.`.J.W./.oX(.^.^./.`.(.J.G.F $ 4 6 5 d s c.8X8.; I ^.W.W.^.^./.].W.J./.@X].].|.W.W.].`.^.",
"(.^._.XX(.(.XX).).'.oX(.W.W._.}.Q.B.S     @ d a A j 9.5X8.d Q G.W./.^./.).{.W.W./.oX X X`.W.J.).(.^.",
"Q.~./.XX'.(.XXW.^. X@X(.Q.!.!.!.L.L 5 v Z @.4.@.w.&.w.n.w.~ f L !.^.`.J._._.^.W./.XX X(.`.W.J.W.Q.~.",
").W.L.]. X XXXW.Q.'.].(.W.~.~.J.N.D a e.u.v.f.0.i.i.i.d.x.t.c U ^.P.`.)./.^.^.J./.'./.^.`.Q.L.L.L.L.",
"W.Q.F.).XXOXoXU.J./.'./._.!.F.B.D 3 y =.3.b o.@.i.p.p.i.x.l. .K S.W._.].^.^./.J.(.'.^._./.W.L.J.~.H.",
"^.).J.^.XX X X^.W./.].W.U.S.S $ $ O X ;XwX} y.w.i.p.i.s.x.l.&.n Q J./.XX/./.].Q./.'.W.]./.W._.W.W.W.",
"^./.^./. X.X X^.`.).`.G.D 9 2 O g y m M.2Xs.j.h.i.p.d.>X,Xl.i.%./ ^.]._./.W.`.W./.(.W.].Q.W._.).^._.",
"(.`.^.(. X X(.(.`./.K.S 3 , 1 r.4.x z 8.c.,X5X3Xd.d.b.7X3X>Xl.*.,._.XX^.^.^._.J.^.(.W._.J.J.W._.J._.",
" X(.^.(..X X(. X~.W.S.9 3 6 a.l.t.y.k.f.h.<X4X3Xb.b.7Xh.l.,Xl.&.] _ _.^.^./.).H./.'./.^.H.J.W.W.W.XX",
"'./.^.W. X.X'.(.^.^.J.) e a.1Xj.p.0.-. .o.6.8.j.,X<X3X#.f.<Xk.6.j R ).(.^.^.`.W.(.'./.W.H.H.J.).^.XX",
"'.W._.W.'..X].W._.^.~.!._ 2.9.$. .c s d h A 6.d.l.l.t.6.z.<Xl.-.p T %X`.W./.].(.'././.`.~.J.J.!.J.].",
"/.^._.~.'.'./.W./._.J.J.U.I 8 < , , - c a v $.6.w.&.5.h.,Xv.h.w.N o e #XP.).'. X].!.)._./.W.!.~.W.`.",
"W.^.`.Q./.(.W.!.Q.|.W.W.W.P.Y K J H / U R 3 O f $.6.w.c.c.h.p.9.O.A v - ) ).'.'.(.G.!./.Q.L.!.H.^.^.",
"W.W.`././.].W.`.Q.].`.W.W./.`.W.W.^./.}.:.+ @ o O ..i.p.s.i.9.O.0.m.j.&.w ` ].'.Q.F.)._.`.^.W.C.).Q.",
"/.W.]./.~.`./.]._.`.`.J.W._._.Q.J.W.(.&X8 s r y n M i.p.p.i.0.0.n.0X0X7XN 9 U.(.Q.~.^._.`./.H.~.!.^.",
"!.J.`.`.J.].'.'././.].W.W.Q.^.J.J.W.(.=XB o.o.&.i.i.i.i.i.d.x.1X4X0X0X0Xs.w T.Q.L.).Q.(._.W.J.~.W.W.",
"~.F.^.|.Q.'.XX(.W.W.].W.J.~.!.H.Q.^.'.&X%.d.d.d.d.d.h.d.d.x.<X1X1X3X8X8Xz.p T R.J.W.W._./.J.J.L.W.W.",
"W.F.J.(./. XoXW.W.^.`.~.!.J.L.J.Q.~.`.&X3.>X>X>X,X1X>X>X>X>X1X>X:X<X,X<Xb.o.{ R.W._.W._.^.C.W.C.W.W.",
"W.H.J.^.'.'.XXW.^.W.`.Q.).J.J.W.Q.W._.&X9.b.,X1X1X,X<X1X1X1X1Xx.t.h.1X<X<Xk.=.Y.W._.W.(._.J._.W.J.H.",
"J.~.W.^.(.'.].W.W.W._.!._.Q.~.!.W.J.W.&X%.j.1X1X,X<X,X<X,X,X1X>Xr.+.1X1X<X:X=.I.Q._.W.`.W.W._.W.W.W.",
"J.~.^.`.(./.(.^.H.W.Q._._.W.Q._._.~.L.&X%.j.,X1X,X,X6X8X3X1X,Xx.+.X.:X<X:X#.{ R._.W.~.`.J.Q./.W.~.~.",
"W.W.W.(.^.^.^.^.H.~.W.`.Q.Q.~.`.`.W.~.=X8 *.1X,X6X8X8X6X<Xz.h.6.g #.:X<X:Xa e Y.(.~.W.Q.H.`.).W.H.^.",
"Q.W./.(./.^.^.(.W.W.~./.!.Q././.]././.&X2 b x.>Xm.v.y.8.f.h.*.+ ] b.6X:X#.- >.L._.Q.W.W.W.|.Q.W.W.).",
"_.W./.(.)._.J.^.W.~.W.).Q.W.'./.'././.E.,.q w.7Xn.z.s.m v V C . 8.6X4Xx.i $ Y./././.W.W.Q.].(.W.W._.",
"!.W.(./.J.}.^./.~.!.~.).~.Q.'.'./.Q.!.Q.$X$ o.7X6X<Xs.n O c Z &.x.4Xk.8.e H P.Q.Q.W.W.~.!._.(.W.J./.",
"^.W./.W.H.!.`.`.^.J.W.).W.^./.'./.W.W.(.#X1 ] >X:Xr.8 +.y.c.v.b.,Xh.+.b :.P./.Q.W.Q.!.W.Q.Q.`.~.H.^.",
"W.W./.J.H.J._.]./.C.W.).W./.Q.(.Q.W.Q.W.#X  M x.x.c % k.6X0X6Xx.t...] ) ).~.Q.`.J._.).J._.Q.{.W.J.W.",
"~.W.W.J.L.W.^.].(.H.^.^.W./.Q.`.~.^./.W.>.- m d.h.b X.x.<X6X>X7.= o ,.}._.W.J.(.W.]._.J._.).`.)._.J.",
"J.L.J.J.!.!.J.`.`.W.W.`.^././.].!._.`.#Xq u | i.q.c *.k.,X:X7.+   O ,.}.W.J.H.W./.].Q.H.W.).W./.{.L.",
"K.J.J.H.!.J.W.`.(.^.^.XX]./.(.^.~.).}.<.c x @.i.A # 6 5.k.7.i = k Z =.E.!.!.H.~.(. X^.J.J.).W.W.].H.",
"J.).J.W.J.!.^.(./.^.^.XX].'./.W.W.^._ 0 y o.i.9.h = 0 7 7 4 p t.:Xz.;.G P.!.H.J.(. X(.J.W.`.W.(.`.W.",
"_.`.^._.J.!.J._././.J.(.oX].^.).~.~.:.# t o.d.9.i ' *XE 1   ..k.6X3X6.T K.!.W.W.(.'.XXJ.^.].(.'.(.`.",
"_.^./._.Q.!.W./.].^.J.(.(./.W.+X_._.:.* u O.0.A T Y.'.K.T   $.k.6X8Xf.M R I.W.W.(.`.`.^.W.'.(.'.(.).",
"H.W.Q.`.^.J.~./.].J.^.^.(.^.J.`.{.$XT y h l v W T./. X^.B.D N 8.n.8Xb.*.7 S G.^.^.`.`.J.J.oXoX X`.J.",
"W.W.W.`._.J.W.`.].(./.^.(.J.U G E w u l h r @ : G.'.(./.^.S.! a @.8.8.9.j # K P./.`.^.J./.XX.X X^.J.",
"`.W.W._.).~.W.'.(._./.J.)./ %.a.;.m x z g @ w ( J.`.^.`./.W.K.F % d z @.#.g * K S._.^._./.'.'.'.W.W.",
"].W.J.Q.W.Q././.(.`.^.J.K.> Z j.v.4.x z g * R !.^./.^.]._.J.(.K.F p h o.h.6.k * ` (.^.{.(.'.(./.W.Q.",
"(./.C.W.J.~./.W.Q.`.W.~.J.P $ Z h.y.o.l h p R P.!.^.W.`.).J.A.( K p @.y.:Xd.A q D.W.W.`.(.^./.^.!.~.",
"Q.`.J.W.W._.!.~.W.`.Q.~.J.J./ $ V *.o.l z m T J.L.W.W._.^.Z.F ] ;.7.x.<X:X7.M Q S.W.U._.^.^.^.^.!.J.",
"W.`.J.J.!.!.Q.H.J.H.).W.W./.W.P F w a j k B I J.J.~.W.^.W.G B t.1X<X1Xb.f.X.Q K.~.W./.`.^.^.J.^.W.W.",
"W.~.L.H.L.!.[.~.C.H.W.!.!.~.).!.G.Y R F S I !.J.H.L.H.W.W.P ] q.s.k.f.-.B J S.J.!.!.W././.W.G.J.~.(.",
"H.H.C.L.C.H.[.W.C.H.C._.!.H.C._.!./.(.~.V.C._.H.L.C.V.C.C.C.I T T ! ! F J B.L.H.!.!.C.!.!.V.V.H.H.`.",
"L.V.L.H.V.I.!.!.V.V.C.~.L.C.V.L.!.W./.C.V.V.!.V.C.V.V.V.V.V.C.S.B.S.N.N.G.C.C.L.!.V.V.C.L.C.V.V.C.Q."
};
