/* XPM */
static char *result[] = {
/* columns rows colors chars-per-pixel */
"50 50 224 2 ",
"   c #141515",
".  c #191B1B",
"X  c #141114",
"o  c #2F190A",
"O  c #251408",
"+  c #341B0A",
"@  c #3C1E0C",
"#  c #331809",
"$  c #2A1C15",
"%  c #291E19",
"&  c #221C17",
"*  c #331D12",
"=  c #3C210F",
"-  c #2D211A",
";  c #26251E",
":  c #342215",
">  c #33241C",
",  c #3B2B1D",
"<  c #3D2618",
"1  c #2B391C",
"2  c #3B341C",
"3  c #141E22",
"4  c #1E2521",
"5  c #2B2320",
"6  c #2E2A24",
"7  c #242723",
"8  c #382B25",
"9  c #2E3926",
"0  c #3D3123",
"q  c #373826",
"w  c #461E0B",
"e  c #45250E",
"r  c #4C2B12",
"t  c #432B1C",
"y  c #4C2E1B",
"u  c #442716",
"i  c #532E15",
"p  c #47351D",
"a  c #5C3315",
"s  c #55321E",
"d  c #5C351B",
"f  c #543017",
"g  c #65381B",
"h  c #612A1C",
"j  c #482D22",
"k  c #4E3223",
"l  c #483927",
"z  c #533524",
"x  c #5A3622",
"c  c #5D3922",
"v  c #5C3D29",
"b  c #533928",
"n  c #5A3F30",
"m  c #413F30",
"M  c #643B23",
"N  c #6A3E23",
"B  c #603F2D",
"V  c #713F25",
"C  c #374A15",
"Z  c #385D15",
"A  c #366A11",
"S  c #3A7517",
"D  c #394728",
"F  c #3D542C",
"G  c #2C4127",
"H  c #3C6327",
"J  c #477719",
"K  c #44472A",
"L  c #59442B",
"P  c #49572B",
"I  c #424D33",
"U  c #494331",
"Y  c #544231",
"T  c #5A4435",
"R  c #4B5234",
"E  c #455434",
"W  c #5A5337",
"Q  c #555736",
"!  c #5B5922",
"~  c #6E4226",
"^  c #6D432B",
"/  c #63432A",
"(  c #74452A",
")  c #75492C",
"_  c #7B4B2D",
"`  c #774528",
"'  c #7B512D",
"]  c #624332",
"[  c #684834",
"{  c #744934",
"}  c #7C4D33",
"|  c #724733",
" . c #66573B",
".. c #7D523A",
"X. c #785536",
"o. c #49672A",
"O. c #4C742C",
"+. c #547D2D",
"@. c #556938",
"#. c #4E7436",
"$. c #526D31",
"%. c #64663C",
"&. c #647534",
"*. c #686E2D",
"=. c #7E5C41",
"-. c #44685B",
";. c #796A48",
":. c #687260",
">. c #4E7D72",
",. c #84572F",
"<. c #814F33",
"1. c #845235",
"2. c #8A5634",
"3. c #84533A",
"4. c #8B563C",
"5. c #8D5A3C",
"6. c #895A34",
"7. c #925C3E",
"8. c #8D613A",
"9. c #95623C",
"0. c #98683C",
"q. c #8D5C42",
"w. c #845941",
"e. c #955E42",
"r. c #985F43",
"t. c #8D6446",
"y. c #976143",
"u. c #9A6344",
"i. c #9C6A43",
"p. c #966B46",
"a. c #9C7246",
"s. c #9E7548",
"d. c #8A734B",
"f. c #A16C46",
"g. c #A46C4A",
"h. c #AC6E49",
"j. c #A27246",
"k. c #A67249",
"l. c #AB754B",
"z. c #AC7A4B",
"x. c #B27E4E",
"c. c #B3754B",
"v. c #BA7C51",
"b. c #B37955",
"n. c #AE7554",
"m. c #C47E55",
"M. c #3B9501",
"N. c #3E9800",
"B. c #379300",
"V. c #3B8407",
"C. c #448B0C",
"Z. c #429502",
"A. c #449C02",
"S. c #499E02",
"D. c #449D09",
"F. c #4C9D0B",
"G. c #4A930E",
"H. c #529C0D",
"J. c #498817",
"K. c #538D1E",
"L. c #4E9616",
"P. c #539B16",
"I. c #549919",
"U. c #4DA303",
"Y. c #4DA409",
"T. c #49A301",
"R. c #51A603",
"E. c #54AA04",
"W. c #59AE04",
"Q. c #52A60A",
"!. c #55AB0A",
"~. c #59AE0B",
"^. c #5DB204",
"/. c #5DB20B",
"(. c #56A513",
"). c #59A514",
"_. c #55AB10",
"`. c #5AAD11",
"'. c #5BA21B",
"]. c #5DA819",
"[. c #5DB213",
"{. c #61B503",
"}. c #65B904",
"|. c #61B50B",
" X c #65B90B",
".X c #68BB0C",
"XX c #63AD1A",
"oX c #64AA17",
"OX c #66BA11",
"+X c #63B711",
"@X c #4D8222",
"#X c #548C25",
"$X c #53842C",
"%X c #548928",
"&X c #559323",
"*X c #5B9C24",
"=X c #599526",
"-X c #588B31",
";X c #648F38",
":X c #5CA521",
">X c #61A525",
",X c #63A629",
"<X c #6AB126",
"1X c #6AA832",
"2X c #B4824F",
"3X c #B68550",
"4X c #BA8651",
"5X c #B68850",
"6X c #BA8952",
"7X c #BA8560",
"8X c #C48555",
"9X c #C38A56",
"0X c #CC865A",
"qX c #CA8B59",
"wX c #C78C58",
"eX c #D48D5D",
"rX c #D88E5F",
"tX c #DC8E61",
"yX c #D99165",
"uX c #CC9B7F",
"iX c #C28A64",
"pX c #7EAF9B",
"aX c #81AF8D",
"sX c #CF9F83",
/* pixels */
"U.U.^.^.~.U.S.Y.!.R.W.}.R.~.~.E.|.^.}.^.U.~.`.!.T.S.R.+XW.R./.T.E./.W.OX~.U.!.Y.U.R.!.!./.!.U.R..X}.",
"!.U./.^.|.U.U.Y.~.W.W.|.W.W.|.W.oXW.|.`.E.~.!.Q.S.T.U.^.~.R.[.)._.XX`.OXR.S.!.R.!.R.!.W.[.R.!.U.}.}.",
"U.E.E.^.{.R.S.!.!.!.S./.^.|.{. XJ K P P ,X_.!.Y.T.R.!.!.+X`.*XQ R E Q 1XR.S.Q.!.`.W.S.!.~.Q.T.U.}.^.",
"R.U.W.^.|.W.A.!.R.W.A.~.~. X}.oX .n.uXiX;.@.=XY.Y.R.R.!.,X#.;.6XsXb.D ,XR.S.R.Q.~.R.A.E./.~.A.W.^.^.",
"~.U.W.}.}.W.R.R.W.|.S.R.E.^.}.XX .h.t.q.l.n 9 &XR.R.!.*XD n h.e.q.g.I :XW.R.E.R.W.U.T.R.!./.U./.^.E.",
"~.R.{.|.W.W.~.R.~.^.~.R.!.R.^.oX .3.u o <.4.l K &.&.&.E 8 w.2.* * 3.U ,X~.}.R.R.W.R.!.R.~.^.R.~.^.U.",
"Y.U.W.~.R.W.!.U.R.E.|.!.E.R.W.'.;.3.y o w N } k c <.c z } ~ w o r 4.U *XW.|.U.R.!.W.~.~.[.!.R.~.W.S.",
"R.T.R.|.R.!.~.S.R.!. XW.R.R.W.'.I b t @ * ( e.3.| ^ ) 3.e.^ = + t L q :XE.^.U.T.E. X^././.U.U./.~.R.",
"!.Y.~./.W.W./.Q.R.^..XW.T.Y.!.).$X4 % # # <.u.1.s O y <.u.1.+ o $ 7 O.!.E.~.U.U.E.OX{.{.~.S.S.!.!.R.",
"E.T.R.|.^.^.|.R.R.~.OXW.U.Y.Y.Y.:X9 7 x ^ u.7.z % $ & z 7.u.) v 7 I ,XU.!.Q.Y.S.E.|.^.W./.S.S.F.Y.U.",
"!.U.S./.{.{.|.R.U.W.|.W.U.U.Y.Y.$X6 5 ] ..f.<.: % - . : ' k.} [ % q ;XQ.!.U.U.S.W.^.W.R.~.R.A.D.T.A.",
"Y.T.Z.!.|.}..XR.S.W.^.R.~.Y.D.L.R k r $ $ h _ z > @ : b ` h % % e x K ,XR.E.!.R.W.W.R.!.W.U.S.A.D.A.",
"U.R.S.R.|.}.}.S.U.!.^.R.!.Y.T.L.Q | ( e   -.:.N r # e V ;.-.3 @ ( } q ,XW.R./.R.W.^.U.~.!.U.!.U.T.R.",
"R.!.R.R.{.{.{.E.~.R.^.R.Q.Q.R.(.o.l 5.5.=.aX>.w d f d w -.aXB q.p.b P _.E.U.~.U.R.W.R./.R.U.!.!.R.!.",
"W.W.R.W.{.{.^.~.(.R.!.!.S.Y.Y.!.>XD p.sXyXw.5 s 6.i.5.s 7 =.yXsXp.Q ,XR.E.R.!.S.!.W.R.!.S.S.U.!.S.~.",
"{.W.R.W.{.{.W.{.U.R.E.W.T.Y.L.I.,X9 6 v g.u.V _ k.4Xk.} ( u.g.n 8 $.].R.R.E.Q.A.R.W.E.R.A.S.U.U.T.|.",
"W.R.R.R.}.}.^.~.R.Y.Y._.Q.#XR W Q 6 .   b 5.y._ 0.9X0.' u.q.c & 9 1XXXXXQ.R.~.S.W.W.R.R.A.S.T.Y.R.|.",
"^.R.Q.T.^.}.^.R.!.R.T._.&X9 b 4.5.~ t . & ..c.,.6.5X8.6.z.3.. ; c K D D q G.^.W.|.!.!.W.T.T.S.Y.S./.",
"W.R.Y.T.^.^.R.T.!.!.T.*XD v 8XeX0Xx.6.j 5 p.k.^ < p < ^ k.p.5 k 1.( 1.q.z K '.|.~.Y.!.!.R.U.Y.Y.Y.~.",
"R.R.~.Y.^.W.U.Y.R./.Y.$XY u.rXtXrX4X2Xe.3.] 3.B .     v 3.[ ..e.l.x.0X0Xm.[ 1 H.W.Z.Y.E.T.D.Y.Z.R.R.",
"U.U.~.R.E./.U.~.E./.'.D ^ x.9X9X9X5X4X2Xi.k | { 8 3 5 ) | b u.x.5X9XrXtXtXf.l J.R.Z.Y.~.W.Y.T.N.Q.U.",
"R.R.~.~.U.~.!./.~.~.K.> ` g.u.8.2X4X5X6Xx.q.] c t 4 t c n q.x.6X5X6X9XrXtX4X) P &XR.E.~.~.E.A.S.Y.R.",
"Q.A.~.~.T./.^.^.E.E.&X0 N ` N s i.k.3X6X3X3Xp./ $ $ % v p.2X3X6X5X5X2X9X8X4X1.p $XQ.Y.W.W.U.S.Y.U.U.",
"Y.Z.R.|.R./.^.W.R.Y.P l <._ a u ( e.x.6X3X6X6Xj.B X b s.5X6X6X3X6X5Xl.7.i.l._ j $XY.U.W.E.D.A.T.U.U.",
"S.M.S.W.!.{..XR.R.G.< N u.e._ w f e.k.2X6X5X4X6Xj.X.a.6X5X5X5X5Xl.j.1.f ( 7.1.z F ).U.E.R.Z.S.A.U.S.",
"S.A.S.R.W.{.|.S.R.L.L 1.r.e.{ % % _ y.x.wX6X5X4X6X6X6X6X5X6X0X3Xy._ i = ~ 7.r.3.l S R.W.~.A.!.T.S.T.",
"S.S.R.R.W.W.^.S.U.K.[ r.e.) , 4 5 f } k.qXqXqX6X4X4X2X6XwXqXqXk.1.i : * { e.y.g. .S U.~.R.T.!.T.U.S.",
"S.R.R.!.W.W.~.R.T.#X[ r.7.( b 9 #.2 d _ 9.v.qX9X5X4X2X9X0Xv.9.} a l @X#XL 2.f.4X=.A Y.!.S.R.W.U.U.Y.",
"T.U.R.W.R.R.R.R.S.%X[ e.e.y.5. .;Xm V ) ) 9.z.6X9X9X9X4X2X0.) ` d R :X[.P ..3XrXw.A T.R.A.~.Y.U.A.R.",
"R.U.R.W.E.R.R.W.U.%X] 7.g.i.5.p.q * 4.r.e.z.9XeXrXeXrXeX9Xz.e.7.N R :XI.E ^ m.tX=.S U.U.T.[.R.U.T.R.",
"!.Y.E.W.R.(.S.R.S.$X, ,.6Xa.v 5.8 < 4.r.y.l.qXrX8X5XwXrX0Xl.y.u.w.W -XF 0 ^ v.8X .S R.U.R./.W.U.S.!.",
"R.U.W.W.S._.R.R.S.I.1 / 2Xl.x x > g q.r.r.u.l.4X4X5X6X4Xz.u.r.e.4.j 9 b 8.z.8Xc.T S U.T.!.~.^.U.A.!.",
"R.U.E.T.A.R.`.~.R.T.J.l ..i.5.{ j M q.r.4.r.u.k.3X5X3Xl.r.e.1.` 4.u 5 a.2X2XqXl.T S Q.T.R.Q.~.U.A.R.",
"U.R.R.S.Z.S.~./.!.N.Q.=XQ %.Q 6 8 3.r.r.<.<.e.r.u.u.u.r.e.3.N ` 7.d 0 p.) p.9X6.j J !.T.Q.R.~.T.T.U.",
"Y.Y.R.A.A.Y.R./.!.S.R.Q.P.P.&X4 8 7.r.u.4.N a <.e.7.e.3.g f V 7.7.M > y r p.5XX.; #X!.T.!.Q._.R.!.U.",
"A.A.S.S.Y.Y.S.~.W.U.Y.W.E.E.).9 u q.i.l.f.V r b W W Y y e g 7.0.7.g 8 { 2.z.8.Y @X~.R.A.T.R.Y.Q.).S.",
"S.S.S.A.Q.S.R.~.W.R.S.|./.E.>Xq d e.x.5Xf.5./ O.&XI.O.2 N 7.f.z.7.y 6 U U U 0 J ~.W.R.S.S.Y.T.R.~.A.",
"F.S.S.R.S.Y.S.W.E.R.R.|./.^.XXq M 9.3X4Xf.} Y #X~.R.#Xl g 2.x.z.) K J.C.C.C.V.S.W.{.W.S.U.~.U.W.~.S.",
"!.~.R.(.A.Q.S.~.W.W.R.W.|.^.I.9 y 7.2X4Xi.M 2 G.~.W.P.q i g ,.' d R L.U.Q.Y.T.U.{.{.|.S.R.{.W.^.!.W.",
"~.R.E.!.R.S.R.E.~.R.S.W.W.W.F.$XU ) x.4X5.t J R.E.!.^.C < g g a e E I.T.Y.Y.U.U.W.~.~.U.R.|.W.^.W.!.",
"T.U.Y.~.R.S.Y.E./.S.R.R.W.R.R.XXR d 6.f.5.l G.U.R.E.{.C k <.<.<.^ L O.S.T.T.U.Y.R.~.~.S.R. X X^./.S.",
"Y.T.U.~.Q.S.S.!.~.W.!.R.W.R.R.+.2 r _ e.1.l G.R.U.W.W.C g u.l.z.l.} q G.Y.T.U.E.R.~.R.S.R.|. X{.R.S.",
"W.T.U.W.!.U.R.W.|.W.R.S.!.U.I.q i N 7.y.,.p C.S.U.W.H.! 5.z.6X4X6Xg.L $XY.Y.Y.Y.S.~.R.~.E.~.^.^.U.T.",
"~.R.T.U.U.Y.E.E.!.W.R.S.Q.T.@Xj _ f.k.j.f.~ C S.R.!.H.*.j.2X4X4X6X2X5.W &XR._.Y.S.!.R.(.~.^.W.R.U.Y.",
"~.E.A.T.S.T.!.U.U.~.Y.S.T.L.K f j.8Xl.4XqX2.C L.T.R.Y.&.p.qX9Xz.9X6Xl. .&XS.`.A.Y.U.T.~.W.E.W.H.Y.Y.",
"E.~.T.S.T.!.Y.T.U.!.!.T.S.L.K c f.c.1.h.v.,.t @XD.U.U.F.&.n.i.| j.a...@.L.S.Q.T.Y.U.T.~.E.H.R.R.Y.S.",
"Y.!.T.D.Y.Y.R.S.T.T.Q.U.U.Y.H 6 z a g a a u K G.S.Y.U.R.P.&.%.@.&.%.$.P.A.S.Y.Y.S.U.E.~.R.R.S.R.T.U.",
"T.S.S.A.D.Y._.A.A.N.T.R.R.U.P.H 1 o * + : q L.S.A.D.S.T.T.Y._.).H.H.S.S.Z.A.S.T.T.Y.Y.E.R.S.A.S.T.W.",
"S.A.Z.N.D.Z._.Y.N.A.N.Y.Y.S.N.(.C.A A Z Z C.Q.Z.D.M.N.D.M.M.T.U.T.N.Z.D.D.N.D.A.Q.D.D.T.Y.Z.M.A.A.~.",
"S.M.D.Z.B.D.Y.Y.M.M.A.S.T.M.B.D.F.E.W.T.B.B.Y.N.D.B.B.B.B.N.D.Y.N.D.N.M.D.M.M.Y.Y.B.M.M.Y.N.B.M.A.Y."
};
