/* XPM */
static char *result[] = {
/* columns rows colors chars-per-pixel */
"50 50 216 2 ",
"   c #1A191A",
".  c #0F1115",
"X  c #371F0E",
"o  c #231C15",
"O  c #2C1E17",
"+  c #231E1B",
"@  c #291A17",
"#  c #321E13",
"$  c #1F2A1A",
"%  c #3C210D",
"&  c #2C241C",
"*  c #2F281E",
"=  c #25251E",
"-  c #362215",
";  c #3D2314",
":  c #34251C",
">  c #3D261B",
",  c #35291D",
"<  c #3B2B1E",
"1  c #283D16",
"2  c #363D1E",
"3  c #1C1E21",
"4  c #161B21",
"5  c #1D2123",
"6  c #1F3026",
"7  c #232322",
"8  c #2A2B25",
"9  c #342E22",
"0  c #372823",
"q  c #2D3828",
"w  c #3A3426",
"e  c #46250E",
"r  c #452816",
"t  c #4D2A12",
"y  c #432A1C",
"u  c #4B2C1A",
"i  c #452512",
"p  c #552F15",
"a  c #512E1B",
"s  c #4D311C",
"d  c #5B3316",
"f  c #54331C",
"g  c #5B341B",
"h  c #553015",
"j  c #613717",
"k  c #623718",
"l  c #663A1A",
"z  c #693C1C",
"x  c #4D2E20",
"c  c #442F24",
"v  c #483627",
"b  c #513C2A",
"n  c #573723",
"m  c #633C25",
"M  c #673D24",
"N  c #2C4514",
"B  c #2F4917",
"V  c #2F451D",
"C  c #294B16",
"Z  c #3C491C",
"A  c #36491A",
"S  c #2D5513",
"D  c #375C1B",
"F  c #3C5A1B",
"G  c #34571B",
"H  c #2C530D",
"J  c #3D760B",
"K  c #3B6817",
"L  c #3E7811",
"P  c #32620B",
"I  c #334525",
"U  c #354729",
"Y  c #3A4725",
"T  c #3A5725",
"R  c #3C6222",
"E  c #44591C",
"W  c #417E0D",
"Q  c #436C1C",
"!  c #406813",
"~  c #447715",
"^  c #457F11",
"/  c #497A1C",
"(  c #487418",
")  c #484427",
"_  c #455727",
"`  c #4F4333",
"'  c #4C4933",
"]  c #5A4632",
"[  c #505432",
"{  c #5B482E",
"}  c #63432B",
"|  c #6C462B",
" . c #6B4428",
".. c #714425",
"X. c #7C4B2C",
"o. c #754727",
"O. c #7E522D",
"+. c #694332",
"@. c #6C4A33",
"#. c #654835",
"$. c #734B36",
"%. c #7C4C32",
"&. c #754D3A",
"*. c #62533A",
"=. c #6B5B3A",
"-. c #7D5333",
";. c #735A3C",
":. c #466724",
">. c #53762D",
",. c #74603F",
"<. c #6E713C",
"1. c #525643",
"2. c #804E32",
"3. c #845333",
"4. c #835935",
"5. c #8A563A",
"6. c #8D5B3B",
"7. c #885838",
"8. c #925B3D",
"9. c #84542F",
"0. c #8C6239",
"q. c #94643C",
"w. c #9A693E",
"e. c #97683C",
"r. c #965E42",
"t. c #995F43",
"y. c #8B6549",
"u. c #956243",
"i. c #9B6444",
"p. c #9E6A44",
"a. c #926A44",
"s. c #9E7245",
"d. c #86755D",
"f. c #A46E46",
"g. c #AB6D4A",
"h. c #A76E48",
"j. c #A47446",
"k. c #A67249",
"l. c #AA754A",
"z. c #A6794B",
"x. c #AD7B4C",
"c. c #B17D4D",
"v. c #B6754D",
"b. c #B97A51",
"n. c #3C9402",
"m. c #3E9801",
"M. c #3D920B",
"N. c #3F8116",
"B. c #408206",
"V. c #44830C",
"C. c #4A8E0B",
"Z. c #458A07",
"A. c #439502",
"S. c #459C02",
"D. c #499E02",
"F. c #4A930B",
"G. c #469D0A",
"H. c #4C9D09",
"J. c #409708",
"K. c #529C0D",
"L. c #509F07",
"P. c #458310",
"I. c #498315",
"U. c #4B851D",
"Y. c #4C8A1C",
"T. c #478D12",
"R. c #538D1D",
"E. c #4D9414",
"W. c #53931C",
"Q. c #529818",
"!. c #47A003",
"~. c #4CA303",
"^. c #4DA409",
"/. c #4FA805",
"(. c #51A603",
"). c #54AA04",
"_. c #59AD04",
"`. c #51A609",
"'. c #54AA0A",
"]. c #59AE0B",
"[. c #59A50B",
"{. c #5DB204",
"}. c #5CB20B",
"|. c #55AB11",
" X c #59AF11",
".X c #56A414",
"XX c #5DB211",
"oX c #61B504",
"OX c #65B905",
"+X c #61B50B",
"@X c #65B90B",
"#X c #69BD0B",
"$X c #69BC05",
"%X c #65B911",
"&X c #62B310",
"*X c #538D20",
"=X c #4C8423",
"-X c #70804C",
";X c #608E78",
":X c #B3824F",
">X c #B68550",
",X c #B98751",
"<X c #BA8952",
"1X c #C28554",
"2X c #C38A56",
"3X c #CB8B59",
"4X c #C78159",
"5X c #D28C5C",
"6X c #D88E5F",
"7X c #D38759",
"8X c #DB8E60",
"9X c #D29471",
"0X c #BB9983",
"qX c #A7AB8F",
"wX c #C6A187",
"eX c #E0B094",
/* pixels */
"~.~.+X{.[.(.D.^.`.)._.@X(._.}.[.oX{.+X}.(.].|.].S.~.).}.}.~.].~.).{.].&X].~.).~.~.(.'._.%X/.~.).@X$X",
"'.~.]._.@XD.D.(.].'.).@X_.].OX[.+X_.+X+X_.`.].^.S.Z.m.'.].D.XX`.~.].).%X).D.'./.].^.'.). X(.(.~.OXOX",
"~.).).oXoX(.D.[.).).D.].{.+XOX#XoX)._.+X'.).(.D.H.[ I T.K N F.~.~.).(.%X).D.`.'.XX'.D.).+X'.~.~.oXoX",
"/.~._.{.@X_.S.'.)._.D.].].OXoX$XoX(.(.&X].`.`.E.<.0X' q 8 = V.'.~.~._.%XL.D.(.'.'.(.S.).}.'.S.).{._.",
"'.(._.oX@X_.~.)._.}.D.)._._.OX$X{.[._.].]./.E.<.wX9Xc   7 = V.].~.).{.oX_.).(.)._.~.S.).).XX~.}.oX(.",
"'.(.{.+X{.).'.).].{.].`.).(.oXOX{.(.}.).].C._ y.eXg.>   5 7 J ].(._.].)._.}.).)._.(.).).}.{.'.]._.~.",
").~.).+X).'.).~.(.).&X_.(.(.).+X{.L.(.{.K.E | 4X9Xo.p & 5 = C A.(.~._.(._.+X~./.)._.}.'.XX).(.].'.D.",
"(.D.(.+X).).].~.(.).%X_.(.(.).].[.(.(.+XW.w X.7Xg.a h : y 8   1 B.~.L._.).].~.S.).%X{.}.]./.~.{._.(.",
").(.'.}._._.+X`.(.{.#X}.~.~.|.'.`.L.].K.E f 2.4X8.M %.m j - @ + 1 Z.).).`.].~.~.).%XoXoX'.~.~.`.'.(.",
"/./.).+X_._.+X(.(.{.#X_.~.^.^.^.D.D.].W < ..w.l.t.5.r.6.q.h.q.} : J }.~.[.'.).~.).+XoX_.'.~.S.~.(.~.",
"/.~.G.}.oXoX@X~.).).}._.~.~./.S.A.~.+XP.w 8.c.i.t.t.r.2.-.7.0.o.< N E./.).~.~.S.).{._.(.]./.G.G.!.S.",
"(./.A.'.+XOX#XL.~.).{.~.'.~.G.~.S.(.L.E m p.c.i.r.t.r.2.-.& ;X1.o 3 V Q C./.'.~.{.{.(.).).~.S.G.G.S.",
"~.`.D.L.OXOXOXL.(.).}.~.'.(.~.~.'._.W b 2.f.c.k.u.r.r.u.f.-.qXd.; ; : 7 I K T.).)._.(.{.).~.'.~.!./.",
").).(.).oXoXOXL.|.(.].).`./.^./.].(.P.#.u.l.<X4Xl.r.t.v.b.l.v.8.d d O.v   7 I V.)._.(.XX(.~.'.'.(.'.",
"_.].(.{.oXoX{.[.].).).).~.^.~.).].D.E @.p.:X:Xv.4Xl.l.3X5X<Xf.8.0.9.a.a.w 4 7 T (._.(.].~.S.(.`.~.].",
"oX_.L.).OXoX_.oX~.~.'.].S.^.G.).+XV.< ..f.<Xj.9.1X<X<Xx.w.w.-.4.p.i.i.c.s.b q ~ )._.(.(.A.S.~.~.~.+X",
"{.).~.~.OXOX{.].(./.(.|.^.~.~.).[.:., ..i.<Xc.4.w.x.x.i.2.z h p u +.&.u.j.<.I.~._.].).(.S.S.~.`.`.&X",
"{.~.`.~.oXoX{.~.`./.~.^.'.A.J ~ :.9 y %.i.c.>Xp.%.3.r.6.$.n a f 0   3 > ) R.}.).+X(.'.).!.~.D./.D.{.",
"_.~.'.~.{.{.).~.).'.S.~.F.H : v y e g 5.t.i.x.x.r.%.%.n : 7 8 Y Z B N A ^ `.{.oX+X^.'.'./.!.~.G.(.[.",
"~.).'./.).{.~.`.(.XXG.A.G v 5.g.p.X.M X.5.t.t.t.r.%.0 o # @ q *X|.L.D.(.(.'.{.{._.A.^.)./.G.^.S.(.`.",
"~.~.}.).).}.(.'.).}.].K 7 f.6X8X5Xx.p.q.4.r.r.t.r.n u i i e v R.{./.~.).}._.OX{.(.n.'.].'./.!.S.`.~.",
").~.].).~.}.).].'.}.^.S @.b.8X6X3X>X:X,Xx.p.r.r.r.r.r.o.M M ' *X_.).~.~.).{.{.).D.H.)._.].(.S.S.^.(.",
"`.S.].].D.].{.{.).(.L o 4.3X6X3X<X,X,X,X<Xc.p.i.i.i.p.u.i.u.*.Y.~./.'.~.~.'._.).D.'.~.].'.(.S.^.~.~.",
"~.S.(.XX/.{.+X_.~.~.D y e.<X<X>Xc.>X,X>X>X<X>X>X>X,X>X>X>X>X,.U.~.S. X'.~.~._.).D.(.D.'.).D.S.!.~.~.",
"D.A.D._.).oX@X~.D.D.K +.z.<Xz.8.u.l.,X<X,X,X,X,X<X,X<X>X<X>X,.Y.!.S.'.}.~.~.)./.!.'.~.).).A.!.S.~.~.",
"~.S.S.(._.oX+X~.(.A.E 7.<X<X6.i 4.>X>X<X<X<X,X,X>X>X>X>X<X:X,.U.S.D.~.].).~._././.'.~.'.'.S.).!.D.S.",
"S.D.~.(.{._.].(.(.P 9 0.<Xx.$..  .:X>X>X1X5X5X<X<X,X,X<X:Xp.] *X!.~.`.].)./.).~./.'.~.].).~.'.~.~.D.",
"D././.]._._.].D.S.S r q.<Xw.x . b p.k.>X,X1X7X5X3X<X>X<X:X#.w =X!./.].'./.).).~.'.~.~.'.~.!.).~.~.~.",
"~.~.~.).(.(.(.(.S.S n e.<X0.9 8 < X.t.f.r.O.5.g.l.,X<X,Xp.c 5 U T./.'.).'.].~.~.'.~.~./.G.]./.~.S./.",
"/.~.).{._.(.(._.S.K +.l.c.$.F K & m t.r.r.3.6.l.>X3X5X,XO., 5 5 ~ ~.'._.}.~.(.~.'.).~.~.!.}.).~.~.'.",
"'.~._._.(.|.D.(.~.T &.x.l.+.Q L.Q #.r.t.t.t.i.>X5X6X2X<X..- O - Y V.].{.).~.`.`.)./.~.~.~.}._.~.S.).",
"/.~.).).D.[.).(.S.R y.,Xz.%.) U.*Xb %.r.t.t.i.l.1X2X<X>Xf   - h v ~ ).).!.S./././.~.~.~.'.}._.~.S.'.",
"~.~._.~.S.^.].].(.T a.<X:Xx.e.=.T * p %.u.i.r.i.:X,X:Xj.x   # g v I._.~.~.~.).).~./.^.~.).).'.~.S.(.",
"~.~.).S.S.D.].{.).D } c.2X<Xc.$.5 = % p %.r.r.r.4.6.x.| @ O i h v / ~.D.).G.~.'.S.'.'.~.^./.].~.S.~.",
"~.~.~.S.G.~.(.}._.H t w.2X1Xw.c I :.< % p %.r.8.3.2.9.r o # % t y / ~.).).~.~.).~.}.'.!.'.(.].^.'.~.",
"H.~.S.S.^.~.D.].{.N.Z  .j.:XX.  T .X>.w # p 3.l.z.k.4.r + 8 , , :.F.!.^./.S.S.~.).}./.S.~.`./.^. XG.",
"D.D.S.S.^.D.~.]._.(.n.) | -.b 2 ^ H.:.0 O # ..k.,X<Xk.s 8 :./ / K.~.S.^.^.D.S.D._.oX(.A.D.`.~.(.].S.",
"H.`.~.D.D.^.~.].).(.L.C.Q ( ! J D.J 0 X X : x 4.:X<X:Xf q Q.}.{.).!.~.~.'.`.S.S._.oX_.D.~.].(.).].~.",
"`.].).].G.`.D.].).[.~._.+X]./.(./.J : t t - + g j.,X:Xm U W.XX{.!.'.~.~.~.~.~.D._.{.+X(.(._._.{.).].",
"`.(.).].~.~.~.(.{.(.D._._._.D.XXF.D y z d - + : 3.>X>X..' W.{././.}.!.!.^.H.~./._.[.{.~.(.+X_.{.).`.",
"S.~.).}.).S.~.).+X~.(.)._.(.(.[.F < p l j t 7 + g k.>X3.' E.).~._.{.~.S./.~./.!.).[.[.D.(.@X@XoX}.~.",
"~.~.~.'.'.!.~.'.].).).~._.(.(.^ : p z l k s 7   > 7.x.j.[ E.{.~._._.~.~.~.!.~.`.(.XX(.(.(.+X@XoX).S.",
"'.~.~.'.'.~./.).+X_.(.D.).~.(.~ 0 j l l g =   5 + m x.:X#.K './.).'.S.).~.^.^.^.(.].(.].[.oX_._.~.~.",
"{.~.!.~.~.~.).(._.].~.S.(.D.(.C.Z a l z k r = 3 > O.>X>X} + Q W. X).S.].`.^.'.~.D.).~.|.[._._._.D.~.",
"].'.S.~.S.~.).~.~.}./.S.~.~.~.(./ w d j z k > 0 -.:X<X:Xj.@.=.' Y./.H.|.^.~.|.S.~.(.~.]._.(._.(.^.~.",
"/.'.~.~.~.^./.~.~.).`.~.D.~.~.~.B.B 2 y g g y 0 s.<X<X<X<X<X:X` P.~.'.).S.~.'.G.^.~.~.].(.(.~.(.^.~.",
"~.'.~.S.H.|.).!.~.S.'.!.~././.!.~.S.P.T Z Y _ T @.s.z.z.z.z.y.[ F.).(.S.S.D.~.^.D.~./.'.(.(.D.(.~.~.",
"~.~.G.S.S.^.|.S.m.S.!.^.^.~.^./.~.).(.H.n.F..XZ.C I I U U I I U.~.~.D.S.m.S.~.~.G.^./.).(.D.S.D.S.'.",
"S.S.S.n.S.S.|.^.S.m.m.^.^.S.S.|.G.).}.!.m.!.'.m.M.n.n.M.M.n.!.^.S.S.S.m.G.M.S.S.^.G.m.!.|.S.m.m.S.].",
"G.m.!.n.M.m.!.^.n.n.S.!.!.m.n.G.!.~.).S.n.n.!.n.!.n.n.n.n.n.m.!.m.S.m.m.G.n.m.!.^.n.n.M.!.n.m.m.S.(."
};
