/* XPM */
static char *result[] = {
/* columns rows colors chars-per-pixel */
"50 50 221 2 ",
"   c #1D1614",
".  c #1C1C1E",
"X  c #171517",
"o  c #391E0E",
"O  c #371E0D",
"+  c #241512",
"@  c #251A16",
"#  c #2A1E16",
"$  c #241D1B",
"%  c #2E1F18",
"&  c #321E14",
"*  c #391911",
"=  c #1B2416",
"-  c #3C210D",
";  c #24211B",
":  c #2B281B",
">  c #332215",
",  c #3C2213",
"<  c #32231B",
"1  c #342B1C",
"2  c #3A291C",
"3  c #2A351C",
"4  c #2C3E1C",
"5  c #273B18",
"6  c #35391B",
"7  c #27320B",
"8  c #1A1D20",
"9  c #201E20",
"0  c #1D2121",
"q  c #152121",
"w  c #232223",
"e  c #282822",
"r  c #392A22",
"t  c #2B3525",
"y  c #2C3528",
"u  c #3C3322",
"i  c #393A21",
"p  c #45250E",
"a  c #442613",
"s  c #4D2B14",
"d  c #432B1C",
"f  c #492C1B",
"g  c #522C16",
"h  c #49361D",
"j  c #54321C",
"k  c #5B341B",
"l  c #5A3316",
"z  c #522A0F",
"x  c #653A1B",
"c  c #693C1A",
"v  c #633818",
"b  c #422C20",
"n  c #4F2D21",
"m  c #4B3224",
"M  c #463827",
"N  c #543422",
"B  c #553A25",
"V  c #5B3925",
"C  c #5D3C2A",
"Z  c #553929",
"A  c #633C23",
"S  c #643D2A",
"D  c #683F28",
"F  c #2F4717",
"G  c #314C15",
"H  c #32431C",
"J  c #38491B",
"K  c #355B1A",
"L  c #3A5818",
"P  c #3A6E0A",
"I  c #346A0B",
"U  c #3D7809",
"Y  c #3A6412",
"T  c #3E651B",
"R  c #396815",
"E  c #3D7413",
"W  c #384727",
"Q  c #3F5121",
"!  c #3F6423",
"~  c #464A1E",
"^  c #427C0C",
"/  c #43730E",
"(  c #42631D",
")  c #456919",
"_  c #45731B",
"`  c #487D1A",
"'  c #457716",
"]  c #4B4329",
"[  c #474724",
"{  c #5D432C",
"}  c #524B29",
"|  c #45582A",
" . c #4F4C31",
".. c #6D4325",
"X. c #6D432B",
"o. c #674021",
"O. c #724424",
"+. c #74452A",
"@. c #72492C",
"#. c #7B4C2C",
"$. c #7A4727",
"%. c #6F512F",
"&. c #6B4A37",
"*. c #714731",
"=. c #764A31",
"-. c #7C4C31",
";. c #6F5133",
":. c #7C5234",
">. c #76523A",
",. c #745233",
"<. c #446B21",
"1. c #4C6E28",
"2. c #466423",
"3. c #4E7626",
"4. c #567A23",
"5. c #516A31",
"6. c #756239",
"7. c #62733B",
"8. c #505644",
"9. c #675548",
"0. c #6D6F43",
"q. c #82542E",
"w. c #8A562E",
"e. c #845434",
"r. c #8C563A",
"t. c #835B3B",
"y. c #8D5B3C",
"u. c #885638",
"i. c #925B3C",
"p. c #915D36",
"a. c #8A6139",
"s. c #94633D",
"d. c #966A3C",
"f. c #8F5841",
"g. c #965E42",
"h. c #985F44",
"j. c #896441",
"k. c #956141",
"l. c #9B6344",
"z. c #9D6A45",
"x. c #986C46",
"c. c #9D7349",
"v. c #836653",
"b. c #A16C46",
"n. c #A36C48",
"m. c #AB6B49",
"M. c #A77847",
"N. c #A47349",
"B. c #AA754B",
"V. c #AD7B4B",
"C. c #A57546",
"Z. c #B2744C",
"A. c #B17D4D",
"S. c #BF7B53",
"D. c #C07F59",
"F. c #3B9401",
"G. c #3F9802",
"H. c #448409",
"J. c #468C0C",
"K. c #4C8D0C",
"L. c #448907",
"P. c #449503",
"I. c #449B02",
"U. c #499E02",
"Y. c #4B940C",
"T. c #449C09",
"R. c #4D9B0B",
"E. c #4A9405",
"W. c #519D0A",
"Q. c #498211",
"!. c #4D8B14",
"~. c #468515",
"^. c #4C9312",
"/. c #569A18",
"(. c #47A002",
"). c #4DA303",
"_. c #4DA409",
"`. c #4EA80A",
"'. c #51A604",
"]. c #54AA04",
"[. c #59AD04",
"{. c #52A609",
"}. c #55AB0A",
"|. c #59AE0B",
" X c #58A709",
".X c #5DB204",
"XX c #5DB20C",
"oX c #53A410",
"OX c #56AB11",
"+X c #59AE11",
"@X c #5AA314",
"#X c #5CB111",
"$X c #61B504",
"%X c #65B904",
"&X c #62B50B",
"*X c #65B90B",
"=X c #68BC0A",
"-X c #65B911",
";X c #62B712",
":X c #5E8A35",
">X c #568A26",
",X c #6AC008",
"<X c #B2814F",
"1X c #B68550",
"2X c #B98751",
"3X c #BA8952",
"4X c #B8825D",
"5X c #B7937A",
"6X c #C28956",
"7X c #CC8559",
"8X c #CB8B59",
"9X c #C48656",
"0X c #D38C5C",
"qX c #DE8F61",
"wX c #DC9161",
"eX c #D99D77",
"rX c #E29362",
"tX c #709780",
"yX c #BA9780",
"uX c #87AB94",
"iX c #DEB196",
/* pixels */
").).XX.X|.'.I.R.{.'.[.%X[.[. X].$X[.&XXX].}.#X}.U.U.oX@X}.R.R.T.].XX.X-X{.'.].).'.'.}.[.;X].).].*X%X",
"].).XX.X&X).).).|.[.{.*X[.|.$X[.*X.X&X&X].{.}.}.U.Y.5.| !.R H P ).|.].-X].).{.`.}.`.].].XX].].).%X%X",
").'.]..X$X'.'.{.].'.U.XX[.&X$X=X$X]. X*X X).'.'.Y.0.5X9.t y w K ).]. X-X{.I.[.{.XX{.).}.XX`.(.'..X%X",
"'.'.[..X*X[.U.}.[.[.I. XXX*X%X=X$X'.'.&X|.{.].^.7.yXeX;.X w w Y ).'.].;XU.I.]. X|.'.I.].XX}.I.}..X.X",
"].).XX$X$X[.).].|.XX).'.'..X%X%X.X[.[.|.|.).^.| v.iXS.j X w w T ).]..X.X].].'.'.}.).U.].].XX'.|..X].",
"}.'..X&X.X].}.].[.|.|.'.].[.$X%X.X'.XX X|.E.L A S.eX:.s : 8 w H U [.|.].XXXX].].[.'.].'.XXXX'.|.].).",
"}.).].$X[.}.].).'.].;X[.'.].[.&X.XU.'.|.].` 1 q.wXZ.f z 2 1 e w 4 L.].'.[.$X'.'.].XX|.[.XX].'.|.].).",
").).'.XX].{.}.).'.[.&X[.'.'.].|. X'.].&X{.1.h $.7Xl.k ..Z j , X . 5 ^ ].].XX).(.].=XXXXX#X).).|.].].",
"].].}.XX[.[.&X{.'.[.=XXX(.).OX{.{._.}.XX~.u c p.S.h.q.r.e.q.e.-.C e G '.].OX).).].-X$X$X}.).).{.}.'.",
"].).].XX$X[.XX'.'..X=X[.)._.`._.I.).|.).~.u u.A.l.h.g.g.r.k.M.Z.w.N H H.]. X).(.].*X.X[.}.).U._.'._.",
"`.).(.XX$X$X=XU.'.].XX[.].)._.).P.'.+X_.<.Z b.A.l.g.h.g.#.A u 8.9.s = 4 ^ J.).(.[..X[.'.|.].T.T.).I.",
"_.).P.}.&X*X=XU.(.]..X].].T.T.).P.).+X>XZ >.b.A.z.h.h.g.g.b.%.tXuX* @ : : 4 ~.L.]..X'.].].).U.T.(.P.",
"'.'.U.'.&X%X%X X'.].XX'.}.).).).].].XX:X{ g.z.2X1Xb.g.g.l.b.l.S.4XX.a k b 8 e 3 Q.[.).|.}.).{.).).).",
"].].'. X$X$X$X X}.{.|.].'.`.).'..X].).:X&.b.1X4X7X1Xl.l.D.0X9XB.p.O.c #.x.u 8 8 W J.'.XX).).}.}.`.}.",
"|.|.].[.$X$X[.[.}.'.].].).`.U.}.XX).E [ =.b.3XA.s.7X2XA.3X6X3XN.k.M.N.i.n.x.M 8 t Q.'.{.U.U.).}.(.|.",
".X[.'.[.$X$X[.$X_.'.].|.U._.T.].XX_.K b #.b.3XM.#.Z.3X2XB.y.q...x @.u.h.l.2XN.] _  X].].P.U.).)._.&X",
".X]._.'.%X%X.X|.`.'.`.OX{.U.).{..XQ.t 2 $.n.3XA.r.e.z.n.l.r.c l z a 2 Z C :.6.>X X[.'.'.I.(.).'.).XX",
".X).].)..X$X$X).].).).'.{.U.'.` <.i   m r.l.B.1XB.e.-.f.e.*.m b M r w q 0 h ` [.[.[.].}.(.(.)._.).XX",
"].'.}.)..X.X].).].}.I.).R.I K t Z *.*.=.u.h.l.N.M.k.e.*.m % . 8 W E R ' Y E }.XX;XU.{.|.'.(.`.).).|.",
"'.'.}.).]..X).].'.#X(.U.I 1 >.r.m.Z.z.r.=.e.l.h.h.g.=.< X o & w T [.].[.'.`..X.X[.P.`.].`.I._.P.'.'.",
").).|.].].XX'.}.'.XX|.F.3 C 7XrXwX8XV.n.x.r.g.k.g.g.X.V g p s 2 ( '.'.].XX.X.X.X).P.{.}.XX'.(.G.{.).",
"'.).XX].).|.].}.}.|.}.E u z.0X0XwX3X2X2X1X<Xz.h.g.h.l.g.-.+.+.V <.}.).).}..X.X].{.U.'.[.}.].I.U.`.).",
"{.I.}.|._.|..X.X].]./.3 h V.0X0X3X3X3X2X2X2X1Xz.l.b.b.b.z.b.b.>.1.`.`.'.).}..X].U.{.).XX}.).I._.).).",
"_.I.'.#X'..X*X].'._.~.u +.V.3X1X1XA.A.1X2X2X2X1X1X1X1X1X2X1X1Xy.3.G.#X}.).).].].U.).).{.].).I.(.).).",
"I.P.U.[.].$X*X).).L.3 h s.1X<Xz.i.k.x.M.3X3X3X3X1X2X2X2X3X3X3Xj.1.P.{.XX).).].].'.`.'.].].G.).G.).).",
"U.I.U.'..X.X&X).).^ 1 ..A.3Xz.C , g s.1X2X2X3X3X1X3X3X2X2X2X3Xt.0 K R.+X'.).}.'.'.OX).].}.U.].).).I.",
").U.).'..X.XXX).).U h a.1XA.#.2 = + a.3X<X6X0X0X3X2X2X2X2X2XM.@.@ J W.}.'.'.[.'.'.`.).|.'.).`.).).U.",
"U._.'.[.].[.].'.U 7 N <XA.,.h >XW . =.z.B.3X7X0X0X0X3X2X1X2Xt.a > 1 2.{.).].].).].).(.OX(.'.].'.(._.",
").).).[.].'.].].P > @.<Xb.M Y  XT w Z -.l.k.q.p.B.Z.1X3X3XV.{   o o u Q ) {.'.).}.(.'.].P.+X'.).P.).",
").).].[.].'.).[.U { C.V.#.[ Y.'./.| < X.g.g.-.u.N.V.6X0X6Xs.b   N =.+.V >.) R.).}.].'.(.).#X].(.).].",
"}._.[.[.'.@X).E.G ,.3XV.x i /.[.[.1.# D l.h.h.l.V.8XwX8X3X:.+ @ X.g.=.r.f.u Y.'.].].'.(.].XX[.).(.}.",
").).].].U.}.].P B z.2X<Xs.;.4.{.[.!.W V r.g.h.h.l.7X8X3XC.A   @ g S x e.f.i J.'.`.'.(.(.`.}..X).U.}.",
").).[.).P.'.+X/ C M.3X3X3Xz.M !.].'.R r X.h.l.g.h.B.1X3X@.& $ w & a v O.=.u K.].).).`.).'.'.}.).P.'.",
").'.'.).P.U.|.E > q.8X3X<Xu.u J.).).R : N :.y.h.h.h.x.d.j @ i K 6 s c c v 1 E.}.(.}.}.).`.].+X).U.).",
").).).I.T._._.K.J O.M.2XV.f = ~.).).) < o p x r.k.g.e...o # / '.^ ~ k k B L P.].).XX{.(.}.}.}.{.}.).",
"R.T.U.U.).{.U.|.K.h ..c.r.d 4 ^.`.}.<.< o O - x r.z.<Xz.D 2 L {.'.Q.F 4 L P.I.).].XX'.I.).{.).].+XI.",
"R.U.U.P.`.(.'.|.[.L.~ } [ J !.].U.R.2.< o a , - ..V.1X1XN.S : / [.).E.K.R.).G.).[..X'.U.U.{.U.].+XI.",
"U.).).).U.`._.}.].].Y.W.oX{.'.{.).Y : o s c j # d y.1X1X1Xu.d ( U.).U.).].'.P.U.[.$X[.U.).|.).[.XX(.",
"{.|.].|.U.{.).].[. X'.[.&X.X'.{._.L < z v c v & $ b y.1X3XC.V 1 Y {._.'._._.U.).$X.XXXU.'.$X[..X].].",
"{.].].{.).(.).].[.{.U.[.[.].'.|.{.( f v c c l & . $ A V.3X2X@.@ ( |.).I.)._.).).[.|.|.'.U.XX.X.XXX).",
"(.).'.}.).U.).].&X).'.].[.'.'.|._ } v c c l d r e 8 r y.<X3XN.{ ( XX).I.).(.).'.'.|.}.W.U.*X*X$XXX).",
").).).+X}.(.).].XX'.].).].'.'.' 1 k x x l a W ^ _ t 0 m s.<X<X>.2..X).).).(.).}.{.}.].'. X&X%X$X'.U.",
"}.(.).}.}.).).|.|.[.].U.].).W.J f v x x j < t E _.` 3   :.A.3Xa.6 ^ ).'.).`.).`.U.|.'. X X.X.X[.).).",
"XX'.(.).).).[.].].XX).U.).).'.~ k c x x v s < 1 _ R.J S l.1X3Xx.n = I {.}.`.OX)._.'.).|.[.[.[.].).).",
"[.].I.(.U.T.].).).XX).U.).).)./ ~ N A v g z - > W !.~ k.2X2X3X<Xs.:.6.` R.U.+XG.).{.).}.[.[.].'.`.(.",
"].|.).(.).}.).).).`.}.).).).).).U ! [ a > % % < W J.[ x.4X4X3X3X3X3Xx.W F.).{._._.).).XX].W.'.'.`.(.",
").}.).(._.`.'.(.(.(.`.).).`.).(.).)./ G G G J G K Y._ ;.x.c.c.c.c.x.,.Y P.(.).).U.).].}.'.'.I.].).'.",
"(.).(.I.T.`.}.(.G.P.).).`.).`.).).'.].U.F.I.{.I.P.T.P.T W ! Q | | Q K P.I.P.).).T.`.).].'.U.I.U.(.}.",
"U.P.I.G.T.T.OX`.G.G.G.`._.U.G.`._.}.[.`.F.G.}.I.T.G.F.G.F.F.T._.T.F.G.P.T.G.T.G.}.T.T.T._.G.F.P.I.|.",
"(.F.T.G.F.G._._.F.F.P.).(.F.F.T._.'.[.G.F.F.(.G.T.F.F.F.F.F.G.(.G.T.P.F.T.G.F.T.`.F.F.F.).P.F.F.I.'."
};
