/* XPM */
static char *result[] = {
/* columns rows colors chars-per-pixel */
"50 50 214 2 ",
"   c #1A110F",
".  c #0F151C",
"X  c #171818",
"o  c #391E0D",
"O  c #2C1E15",
"+  c #241C1A",
"@  c #261B17",
"#  c #321E12",
"$  c #301D19",
"%  c #1A241F",
"&  c #3F220D",
"*  c #29251C",
"=  c #332216",
"-  c #3C2414",
";  c #34251C",
":  c #3B261A",
">  c #342B1D",
",  c #3B2B1C",
"<  c #2A361E",
"1  c #2B3B19",
"2  c #3A3A17",
"3  c #233C0E",
"4  c #1B1D21",
"5  c #1D2022",
"6  c #152120",
"7  c #232323",
"8  c #2C2B23",
"9  c #232B23",
"0  c #352A23",
"q  c #3A2922",
"w  c #253120",
"e  c #2A3323",
"r  c #2B3B23",
"t  c #3A3627",
"y  c #442715",
"u  c #4D2B14",
"i  c #462B1A",
"p  c #532E14",
"a  c #522E19",
"s  c #4A3419",
"d  c #573115",
"f  c #5A3215",
"g  c #52311C",
"h  c #5B351C",
"j  c #5B381E",
"k  c #4E290F",
"l  c #653A1A",
"z  c #643819",
"x  c #412E25",
"c  c #453321",
"v  c #4C3323",
"b  c #4B3828",
"n  c #543925",
"m  c #5B3A24",
"M  c #563928",
"N  c #643D26",
"B  c #6A3F24",
"V  c #623D29",
"C  c #2C4818",
"Z  c #314314",
"A  c #344B12",
"S  c #34431C",
"D  c #3F491B",
"F  c #38471B",
"G  c #3A5315",
"H  c #3C5B1C",
"J  c #395519",
"K  c #2A4B14",
"L  c #39690D",
"P  c #3C7309",
"I  c #3E780D",
"U  c #3A7806",
"Y  c #3A6D17",
"T  c #3E7212",
"R  c #354923",
"E  c #384921",
"W  c #364524",
"Q  c #3C5626",
"!  c #374B38",
"~  c #3C6622",
"^  c #43461C",
"/  c #475A1B",
"(  c #416E0C",
")  c #447B0C",
"_  c #427A07",
"`  c #446A19",
"'  c #417515",
"]  c #4A7D1A",
"[  c #467C16",
"{  c #517F1E",
"}  c #4F4520",
"|  c #474A28",
" . c #56482A",
".. c #445B29",
"X. c #495334",
"o. c #654127",
"O. c #6D4224",
"+. c #6C442A",
"@. c #6D4A28",
"#. c #724523",
"$. c #74482C",
"%. c #7B4B2E",
"&. c #774829",
"*. c #6C4632",
"=. c #674932",
"-. c #744630",
";. c #7D4D33",
":. c #744C34",
">. c #6B5433",
",. c #625633",
"<. c #785639",
"1. c #6E7558",
"2. c #81562D",
"3. c #834F32",
"4. c #835234",
"5. c #885536",
"6. c #8A5B35",
"7. c #84533B",
"8. c #8A563A",
"9. c #8E5A3B",
"0. c #835A3D",
"q. c #925C3E",
"w. c #97602F",
"e. c #8A643C",
"r. c #95633D",
"t. c #94693E",
"y. c #8A5D41",
"u. c #965D42",
"i. c #985F43",
"p. c #946142",
"a. c #9B6344",
"s. c #9D6B44",
"d. c #9D7148",
"f. c #9E7045",
"g. c #8E7D5D",
"h. c #8D6B53",
"j. c #A16B46",
"k. c #A66B48",
"l. c #A47446",
"z. c #A57449",
"x. c #AB754B",
"c. c #AC7B4B",
"v. c #A77848",
"b. c #B2754C",
"n. c #B17D4E",
"m. c #BA754B",
"M. c #BA7C51",
"N. c #B57D50",
"B. c #AE7755",
"V. c #C57E55",
"C. c #398702",
"Z. c #3C9401",
"A. c #3F9802",
"S. c #418405",
"D. c #428B04",
"F. c #438B0A",
"G. c #47870A",
"H. c #449503",
"J. c #4A9405",
"K. c #449C02",
"L. c #499E02",
"P. c #4B960A",
"I. c #459C08",
"U. c #4D9B09",
"Y. c #519D0B",
"T. c #509B06",
"R. c #488614",
"E. c #4D9513",
"W. c #529316",
"Q. c #549E14",
"!. c #57861D",
"~. c #47A002",
"^. c #4CA303",
"/. c #4DA409",
"(. c #4FA805",
"). c #51A604",
"_. c #54AA04",
"`. c #59AD04",
"'. c #52A609",
"]. c #55AB0A",
"[. c #59AD0B",
"{. c #5DB104",
"}. c #5DB20B",
"|. c #57A311",
" X c #56AB11",
".X c #58AE11",
"XX c #5BB212",
"oX c #61B504",
"OX c #65B905",
"+X c #61B50B",
"@X c #65B90A",
"#X c #69BC09",
"$X c #60A71E",
"%X c #65B911",
"&X c #63B611",
"*X c #619A2A",
"=X c #6AC008",
"-X c #92815F",
";X c #B3824F",
":X c #B78550",
">X c #B98651",
",X c #BB8952",
"<X c #C38455",
"1X c #C48A56",
"2X c #CA8B59",
"3X c #CB8258",
"4X c #D48D5D",
"5X c #D98E5F",
"6X c #DB8E61",
"7X c #DD9161",
"8X c #D99772",
"9X c #C89E87",
"0X c #D9A182",
"qX c #9FC0A3",
/* pixels */
"^.^.{.`.[.T.L./.'._.].+X_.`.[.|.oX{.+X{.).].XX].L.L.).+X[.^.}.(._.}.{.%X].^.).(.^.^.].`.+X(.(.).#XOX",
"].^.}.{.+X'.^.^.{.].].OX_.oXoX`.@X{.+X+X_.].].].L.^.^.[.{.).XX^.^.{.).@X].^.'.(.].'.].`.XX).).^.OXoX",
"^.)._.{.oX).^.]._._.T.{.{.+XoX#XoX`.`.+X].).).(.U.Y.'.).|.L.[.'.^.).'.&X'.L.'.[.XX_.L.).}.'.L.).oXoX",
"(.).`.oX+X`.L.'._._.L.].[.@XoX#X{._.).+X].'.].L.{ ..] W.E L '.).^.).`.+XU.L.'._.].].K._.}.[.K.].oX`.",
"].^.oXoX@X`.^.).`.+XU.).).oXOX#X{.`.`.[.[.T.'.` g.g.e W 7 F /.[.(.).{.+X_.).).).`.^.K.).`.}.).{.{._.",
"].).`.+X{._.[._.[.{.[.)._._.oXoX{.T.[._.].^.] -X0Xh.. 4 7 Q L.[.)._.[._.{.}.`._.`.).].].[.}.).}.`.^.",
").)._.+X_.].).(.)._.&X_._.)._.+X{.).).[._.P  .9X0X;.X 7 7 ../._.^.).`.).{.{.^.^._.{.].[.}.).).].].L.",
").^.).+X)._.].^.).`.%X`.).)._.[.`.T._.+X) s r.8XB.p , 5 7 r ' ^.^.).).`.).}.^.^._.%X+X{.}.(.^.}._.).",
"_.).].+X_.{.+X'.'.`.#X].^.(.'. X).T.[.'.F a m.6X;.o a 0 q 7 9 L L._.'.).].[.^.^._.%XoXoX].^.L.].].).",
"(.(.'.+X`.oX{.'.).{.#X{./.L.'./.L.L.].) } a m.M.B z B a k   X w T (.}.^.].'.).^.).+XoX`.[.(.K./.).^.",
"'.L.K.}.oXoX@X).^.`.{.`.(.(./.K.K.^.Y.S g 2.b.k.8.y.8.3.q.6.*.c 1 F.XX).].).^.K.`.{._.).[.).K.I./.K.",
"'.^.A.].+X@X#X).^.`.}.).)./.~.^.K.'.'.S N x.z.i.u.i.u.8.f.b.6.j 8 Y /.XX).)._.^.{.{.).].].^.L.K.K.K.",
"(.'.J.).OXOXOXY.(.).}.^.[./.^./.].).G.^ 7.b.k.p.i.u.5.%.v ! 1.b + r T W.).).}.).).{.^.}.`.^.].^./.^.",
"_.'._._.oXoXoX'.[.'.}.).(.(./.(.{.J.2 N 9.n.x.p.u.u.u.k.5.1.qX| O > * w ' R.'.^._.`.).}.'.L.].'.].).",
"`.[.).{.oXoX`.{.].'._.`.K./.L.[.{.P.| 7.s.n.,Xx.p.u.i.k.k.x.V.3.k f n 7 9 < ( K._.`.).].L.K.(.'.^.}.",
"oX`.)._.oXoX`.oX^.^._.].^./.K.).}.G. .8.n.,X<X<Xx.a.b.4X2XN.u.%.O.&.f.=.4 4 9 L _.{._.'.K.K.^.^.^.{.",
"{._.^.).OXOXoX_.).(.(. X/.L.^.].'.A N q.n.:Xe.b.1X;X>X>XN.v.q.v.v.a.a.v.=.7 e _ `.`._.).A.K.^.'.Y.+X",
"{.^.).^.{.oX{.(.).(.L.].).^._.+XW.r z 9.:X>X6.r.>X>Xc.9.&.O.g j -.y.u.c.v.,.[ '.{.]._.].~.~.^.(.L.+X",
"`.).'./.{.{._.^.].].K.^././.}.W...8 m q.n.>Xj.4.8.k.a.9.%.f d p ; 0 t o.,.!.`.+X}.U.].].(././.~.'._.",
"^.).].(.`.`.^./.(.XX~.L.K./.E.E ; - ;.u.s.n.:Xa.%.4.5.N x 0 0 , % % % 2 ( ].oXoX`.H.'._.).K./.A.'.'.",
"(.^.}.).).}.).].).}.].^.^.G.E , ;.3.3.9.u.a.j.a.u.*.x # @ 4 r ) G._ _ S.[.{.{.{.).H.'.].].).^.K.).^.",
"(.^.}._.^.}._.}._.}.[.^.Z.3 n b.V.V.q.-.9.u.i.i.;.- @ # # = S Y.).`.).^._.{.{.`.^.^.].`.}._.K.K.'.^.",
").K.[.[.L.[.{.{._.).}.(.U * e.5X7X6XM.d.a.a.u.i.7.-.B f p u E P.^./.].^.^.`.`.).L.'.).].].^.K./.^.^.",
"^.H.'.&X^.+XOX_.).).[.Z.Z b n.5X6X2X,X,Xc.a.u.i.u.i.y.5.3.-.E P.~.K..X[.~.(.`._.L./.^._._.K.K./.^.^.",
"L.H.L.`._.{.@X^.L.).].P * l :X2X2X,X:X:X:X;Xv.x.x.x.x.x.c.h.E U.K.K.[.}.^.^.(.)./.].^.)._.K.^.A.^.^.",
"^.K.L.).{.{.@X^.).).}.'  .t.:X,X:Xx.z.:X:X:X,X>X>X>X>X,X,Xd.R P.^.K.^.[.^.^.`.(.(.[.^._.[.K.(.^.L.K.",
"K.L.^.).{.{.{.^.^.^.].] >.:X:X,X;X7.s.:X,X:X:X:X:X>X>X>X:Xp.R P.K.^./.[.).(._.(.^./.^.].).^.].^.^.K.",
"L.(.).]._._.].(.K.^.(.R.=.l.:X,Xv.n d.:X,X:X<X2X,X:X:X>Xn.7.W G./.(.[.[._._._.(.[.^./.].L.(.).^.^./.",
"^.^.).`._.)._.).K.^.^.[ 0 #.>X,Xc.j $.v.n.:X2X6X2X2X<X,Xx.*.S H.(.(.].).[.{.^.^.[.~.^.(.K.].].^.K.).",
"(.^.).`._.).)._.L.^.^.R.R v z.,X>X2.u *.i.x.c.b.V.V.<X:Xp.* 1 J.^.^.].`.[.).^./.`.(.^.^.(.}.(.^.^.).",
"'.^.`.`.'.].L._.^.^./.).R.8 +.>X6X>Xs   =.7.o.#.u.k.M.n.:.e H U.(.^.[.{.(.~.'.]._.).(.~.).XX{.^.^.[.",
").^.`.).L.[.'._.K./.~.).F.e M v.>X2X4.i v 0 + <.c.2X6Xx.c ..|._.^.~.).).~.^.(.(.(.^.^.~.(.[.`.^.K.).",
").^._.^.K.^..X]._.L.L.'.L.R.D N r.:Xn.s.u.;.O.s >.>X1Xt.$ ..[.).^.^.]./.^.~.).(.^.(./.^.(.).[./.K.'.",
"^.^.).K.K.L.].+X_.H.(./.^.).R.| +.9.c.>X2X4X>X#.* e.>Xe.O ..'.'.^.).^.K.].~.(.[.L.].[.~.).(.].^.L.L.",
"L.^.^.K.I./.^.+X`.K.).).).)._.*X| i O.v.4X2X,Xe.= <.n.;.= Q '.).^.[.^.).)./.^._.^.}.].^.].'.].].]./.",
"U./.~.K./.^.^.[.}.^.^.]._.).`.$X! X @ o.x.<X>Xj.M *.a.5.u , / ).).).K.].(.K.K.^._.}.^.K.^./.(.(..XK.",
"P.L.L.K./.L.).].`.).^.{.}.`.{.E.| g ; $ +.x.v.*.0 c 3.5.z a S J.[./.K./.(.L.H.^._.oX).K.L.'.L.).}.K.",
"L.(.^.^.L./.).[._._.'.+X}.{.L...0.l.s.o.: b  .0 * u %.u.3.h , H K.^.^.^.)./.K.L.`.oX`.J.).].^.`.[.^.",
"].].'.].K.(.L._._._.^.`.{.}.G.t a.2X<Xp.x . % ~ ..y B i.8.z o 2 H.[././././.L.^.oXoXoX).'.].`.oX_.].",
"].)._.[.^./.^._.{.'.^.`.{.U.G m x.5X,Xa.b X J H.P.A n 8.8.f # E U.}.^.K.^./.^.^._.].[.).).{.{.{._.(.",
"~.^.(.[.).K.^.).+X^.)._.Y.K t 5.<X4Xb.4.b K P.^.).T./ n N l p t ` .X^.K.(.^.^.(.).[._.L.).+X#XoX}.^.",
"^.^./.[.].~.^.[.{.'.].H.J O m p.r.a.&.g / I.(.^.^.oX] * & d l d > ~ Y Y H.~.^.].'.+X).)._.+X@XoX_.K.",
"[.~.^.).].^.(._.}.[.P.G , d %.;.l u # H P././.^.^.`.J.D = y l f a *.y.<./ H././.L.[.'.]._.`.{.{.^.^.",
"}.^.^.^.^.(.`.).].{.I 0 f 8.r.l f - J Q././.~./.(.].^.) * y z z #.z.c.0.0 I  X^.L.'.).[.`.`.`.).^.^.",
"[.`.~.~.K.^.).^.^.[.' q &.k.c.6.+.> ` R.H.^.K.L.L.'.^.) > d z l 4.l.5.c Z F. XK.^.(.^.[.`.{.`.T././.",
"_.].~.^././.'.^.^.].E.D N r.:X:Xs.:.,.b L J./.^.L.^.^.P , l l B ;.:.; Z C.^.'.L./.^.^.]._.T.).)./.K.",
"^.].^.K././.).K.K.^.].F.| +.v.;X,X,Xn.4.i P ].K.K./.^.C.s j h a - | A D.K.L.^./.~./.).[._.^.L.'./.^.",
"~./.~.K././.].~.A.A.^./.F.2 V y.d.z.r.0.} _ [.L.K.K.L.L.U Z S S K J.H.K.K.K.^.~.~./.(.).).^.H.L.^._.",
"K.K.A.I.A.A. X/.A.A.A././.S.Z D ^ } ^ ^ U K.].K.I.Z.Z.A.A.Z.A.I.K.K.K.A.I.Z.K.K././.A.~./.A.Z.I.K.XX",
"L.Z.I.H.Z.I././.Z.Z.K.~.K.A.C.C.F.H.J.C.Z.Z./.Z.A.Z.Z.Z.Z.Z.A./.A.K.K.Z.I.Z.Z.I./.Z.Z.A.~.A.Z.Z.A.(."
};
