/* XPM */
static char *result[] = {
/* columns rows colors chars-per-pixel */
"50 50 215 2 ",
"   c #0D171F",
".  c #13171B",
"X  c #191919",
"o  c #391E0B",
"O  c #351C0B",
"+  c #241B15",
"@  c #2B1D15",
"#  c #241D19",
"$  c #351F11",
"%  c #1F201F",
"&  c #3F210A",
"*  c #25211E",
"=  c #2B241D",
"-  c #2D2116",
";  c #31251E",
":  c #39261B",
">  c #3D2B1D",
",  c #35261A",
"<  c #131F21",
"1  c #1F2223",
"2  c #232323",
"3  c #222C25",
"4  c #292C24",
"5  c #382B24",
"6  c #2D382A",
"7  c #3B3625",
"8  c #3B3924",
"9  c #3F3A2A",
"0  c #323729",
"q  c #44260F",
"w  c #4D2A0E",
"e  c #4A2914",
"r  c #452B19",
"t  c #4B2D1B",
"y  c #432714",
"u  c #552F1C",
"i  c #552E11",
"p  c #44301C",
"a  c #573117",
"s  c #55311B",
"d  c #5B351B",
"f  c #653A1C",
"g  c #6B3D1F",
"h  c #633716",
"j  c #442F24",
"k  c #482E22",
"l  c #4C3324",
"z  c #463A24",
"x  c #4B3B2B",
"c  c #483729",
"v  c #543623",
"b  c #593623",
"n  c #5A392B",
"m  c #533828",
"M  c #543D31",
"N  c #5B3D32",
"B  c #643C24",
"V  c #6A3E23",
"C  c #6A3F28",
"Z  c #2F5A1A",
"A  c #34432D",
"S  c #3B462A",
"D  c #3E5530",
"F  c #334E29",
"G  c #447E0E",
"H  c #40661C",
"J  c #44452D",
"K  c #424B2C",
"L  c #4A4629",
"P  c #5B4229",
"I  c #435A2D",
"U  c #41522E",
"Y  c #444031",
"T  c #4A4C31",
"R  c #5C4332",
"E  c #554C34",
"W  c #465C32",
"Q  c #575235",
"!  c #595434",
"~  c #6D4124",
"^  c #6A442B",
"/  c #654225",
"(  c #724325",
")  c #74452B",
"_  c #764A2C",
"`  c #7A4A2C",
"'  c #7C512E",
"]  c #634232",
"[  c #6D4939",
"{  c #684735",
"}  c #754B34",
"|  c #7E4D31",
" . c #7C4E3B",
".. c #714C3B",
"X. c #645C39",
"o. c #775338",
"O. c #4A662B",
"+. c #4B762C",
"@. c #4F7A2C",
"#. c #497327",
"$. c #52772D",
"%. c #527E2E",
"&. c #577829",
"*. c #426332",
"=. c #486334",
"-. c #4B6B31",
";. c #536934",
":. c #4D7130",
">. c #537D33",
",. c #517439",
"<. c #557534",
"1. c #5A6D2C",
"2. c #7F613D",
"3. c #804D32",
"4. c #845335",
"5. c #8A5537",
"6. c #835238",
"7. c #8B563A",
"8. c #8C593C",
"9. c #885B35",
"0. c #925D3E",
"q. c #88613C",
"w. c #98643D",
"e. c #885E40",
"r. c #965E42",
"t. c #985F44",
"y. c #966242",
"u. c #9A6244",
"i. c #9C6A44",
"p. c #A16B46",
"a. c #A36C48",
"s. c #A36744",
"d. c #A37146",
"f. c #A67249",
"g. c #AA754B",
"h. c #A77949",
"j. c #AD7B4C",
"k. c #B17E4E",
"l. c #B7754F",
"z. c #BB7E50",
"x. c #C27F55",
"c. c #3C9501",
"v. c #3F9801",
"b. c #379200",
"n. c #409601",
"m. c #459C02",
"M. c #499E02",
"N. c #459D08",
"B. c #499C09",
"V. c #48970B",
"C. c #488C18",
"Z. c #4F9817",
"A. c #4D921C",
"S. c #429910",
"D. c #559A1E",
"F. c #559E19",
"G. c #4DA303",
"H. c #4DA40A",
"J. c #47A205",
"K. c #51A603",
"L. c #54AA04",
"P. c #59AD05",
"I. c #52A60A",
"U. c #55AA0A",
"Y. c #59AE0B",
"T. c #5BA30E",
"R. c #5DB104",
"E. c #5DB20B",
"W. c #55A414",
"Q. c #57AB11",
"!. c #5BAC13",
"~. c #5BA41C",
"^. c #5DAA1B",
"/. c #5DB113",
"(. c #62B504",
"). c #65B905",
"_. c #61B50B",
"`. c #65B90B",
"'. c #68BC0D",
"]. c #64AD1D",
"[. c #62B412",
"{. c #65B912",
"}. c #65B41B",
"|. c #4F8529",
" X c #53822C",
".X c #558C2C",
"XX c #598323",
"oX c #4F9020",
"OX c #569523",
"+X c #569A21",
"@X c #5B9D25",
"#X c #5A942C",
"$X c #5D9A2B",
"%X c #569426",
"&X c #578532",
"*X c #598135",
"=X c #5A8B33",
"-X c #5D8E39",
";X c #619D2A",
":X c #649736",
">X c #5EA123",
",X c #62A727",
"<X c #6DB824",
"1X c #B3814F",
"2X c #B68550",
"3X c #B88751",
"4X c #BA8852",
"5X c #CB8459",
"6X c #C98B59",
"7X c #C48A56",
"8X c #D48C5D",
"9X c #D98E5F",
"0X c #D98D60",
"qX c #DD9061",
"wX c #E09163",
/* pixels */
"G.G.E.R.R.G.M.B.U.L.P.(.P.P.T.P.(.R.`.E.K.I./.U.m.G.K._.Y.K.E.J.L.Y.P.{.U.G.P.B.K.K.U.P./.L.G.L.`.).",
"U.G.Y.R._.G.G.K.U.L.P._.P.P.E.P.[.P._._.L.Y.Y.U.m.M.G.E.E.G.}.Q.Q.}.P.{.K.M.I.K.U.K.U.P.E.I.L.G.).).",
"G.L.L.R.(.K.G.I.L.P.B.E.P.).T.O.;.W <.<X!.I.K.H.G.L.K.U.}.^.<.W W =.;X}.I.M.I.I.Y.U.M.U.E.L.J.G.(.R.",
"K.G.R.R.`.P.m.U.L.P.m.U.Y.'.%.N  . .o.,.*X~.I.M.K.I.L.~.,.<... . .x &X{.G.M.I.P.U.L.m.L.E.Y.J.L.R.P.",
"L.K.E.(.).P.G.L.P._.B.K.L.E.*X[ i.j.a.] 4 -.^.I.L.Y.>X*.2 [ f.j.i.M %._.P.K.K.K.Y.K.G.L.L.E.G.E.(.L.",
"U.K.P._.R.L.U.L.P.Y.Y.L.K.P.%.[ a.3X2Xd.[ c 1.XXXXXX1.m } g.3X3Xa.M &X_.P._.L.L.P.K.U.L.E.E.K.Y.L.L.",
"U.G.L.R.P.U.U.G.K.K.[.L.L.L.$.[ g.4X3X3Xa.3.C B V V V 4.g.4X3X3Xa.M &XP.P._.G.G.K.P.Y.L.E.L.K.Y.L.G.",
"K.G.K._.K.L.Y.J.K.P._.P.K.L.+.M u.4X4X3Xk.a.u.r.t.r.u.f.k.1X4X3Xy.5 $.P.L._.G.G.L.{.E.E.Q.K.K.Y.U.K.",
"L.G.U._.P.P.E.I.K.P.'.P.G.G.=XA R k.4X2Xf.1Xf.y.t.t.f.j.f.3X3Xh.R A %XL.L.U.G.G.K.'.(.(.U.G.G.I.L.L.",
"L.H.L.E.R.R._.K.K.E.'.P.H.H.!.@.1 E h.1X1X3X2Xd.u.f.2X3X2X2Xh.c 3 =X/.G.U.U.G.G.L._.(.P.Y.G.m.H.I.G.",
"K.G.J.E.(.).`.G.G.R.E.P.K.J.W.@.X 4 ^ i.1X4X3X2X2X3X3X3X2Xi.` = 3 =X!.K.I.K.G.m.L.R.P.K.Y.K.V.M.J.m.",
"H.H.c.U._.).`.G.J.L.R.L.U.J..XY $ u 7.1X3X3X2X3X3X3X3X3X3Xj.8.r : J OX[.L.K.L.G.P.R.K.U.L.G.m.m.J.n.",
"H.K.m.K._.).(.K.K.K.R.K.U.H.#.] ) ~ i.2X3X3X3X3X3X3X3X3X3X2Xy.V _ m G [.P.L.Y.L.P.R.K.Y.L.G.U.G.G.H.",
"L.L.L.L.(.(.(.K.Y.I.Y.U.K.K.+.c ) 7.u.2X3X3X3X3X4X3X3X3X2Xa.r.( B 7 C.U.K.L.P.I.K.P.K.E.L.G.Y.I.U.L.",
"P.P.L.P.(.).R.Y.Y.K.L.L.M.I.D.I n u.u.g.3X4X3X3X3X3X3X4X1Xr.| V r -.].K.L.K.K.m.L.P.K.U.B.M.G.K.M.Y.",
"R.R.G.P.(.(.P.R.B.K.L.Y.J.H.H.|.c } 6.u.g.1X3X3X3X3X3X2Xg.0.g t z :XR.G.K.P.I.m.L.P.L.K.m.m.G.K.G._.",
"R.L.G.K.(.).R.Y.L.H.I.Q.>X X.X*.  2 v 6.r.g.2X4X3X4X3Xf.r.3.v X 3 >.].R.K.K.E.G.L.E.L.G.m.m.G.I.K._.",
"R.H.L.J.R.).R.G.L.K.H.@XF M E M c # + d 0.t.g.k.j.k.f.t.7.u @ = * = <.D.m.U.E.L.R.L.U.L.m.J.M.H.M.E.",
"L.L.U.H.R.R.L.G.L.U.%XK k e.s.s.0.~ e b e.t.t.y.t.y.t.t.8.s u ~ f t j 0 Z T.R._.E.H.I.Y.H.H.H.J.G.Y.",
"G.L.U.G.P.R.G.I.K./.U m l.0X8X6X1Xg.r.r.r.t.t.r.t.t.t.t.r.0.y.j.1Xf.u.' c H P.R.L.m.I.L.K.M.U.n.K.K.",
"G.G.E.K.L.E.G.U.U.~.T i.8X9X6X4X3X3X1Xy.y.u.r.t.t.t.t.y.t.u.2X3X4X6X8X8Xa.> #.R.G.n.U.Y.U.K.J.n.I.G.",
"L.G.E.L.G.E.L.Y.^.-./ j.7X4X4X3X3X3X2X1Xk.i.t.u.t.y.t.i.j.2X3X3X4X4X8XqX8X8.;.].K.G.K.Y.U.L.m.J.H.K.",
"K.m.Y.Y.G.E.R.R.>XY h ' u.1X4X3X3X3X3X4X3Xk.k.j.k.k.k.1X3X3X3X3X4X1X4X7X7Xd.n O.V.I.G.P.U.K.J.J.G.G.",
"G.n.H./.H.R._.L.>XT d h V u.a.k.3X3X3X3X3X4X4X4X2X2X3X3X3X2X3X3X4X2X4X2X1Xw.f A V.H.K.L.P.m.m.J.K.G.",
"M.n.m.P.L.(._.K.D.E ) V h V C 0.j.4X3X3X3X2X3X3X4X2X3X3X3X3X2X3X4Xk.w.q.i.i.} K W.U.G.U.L.n.M.v.G.M.",
"G.m.M.K.R.(._.G.D.Q e.4.d O , B w.j.4X4X2Xj.2X3X3X4X2Xj.3X3X4X3Xd.} v d w.2Xi.7  X!.G.L.Y.m.L.G.M.M.",
"M.M.G.L.P.R.E.G.OXQ 8.t.) 5 X : f 0.k.4X2Xs.j.3X2X4Xj.a.1X4X2Xh.) +   C f.4Xh.e A @XG.U.K.J.U.G.G.M.",
"M.K.K.U.P.P.P.G.OXQ 8.t.r.B @ @ y ~ 7.d.j.u.k.4X2X4Xg.i.j.p.8.6.m D 6 N w.1Xh.h J +XG.Y.M.K.L.G.G.G.",
"G.G.K.L.K.K.L.K.OXT 6.i.p.4.a @ j ~ ( ` 0.t.k.3X3X4Xg.t.0.` ( ( x &X-X! ` g.1X` T +XG.L.n./.L.J.m.K.",
"H.G.L.R.L.K.K.L.F.K > i.j.y.n X v r.0.0.r.i.k.3X3X4Xk.u.y.0.0.0.v 6 :X>.R 2X9X7XX.@XG.G.J.E.L.G.G.I.",
"U.G.R.L.U.T.M.L.G.D.S l p t ; + B t.t.t.u.j.3X3X3X3X3Xj.u.t.t.r.v # 6 A > w.8X1XX.@XG.G.L.E.P.G.M.U.",
"K.G.L.L.m.I.K.K.M.H.+XF % 4 2 : ` 7.` 0.u.k.3X3X3X3X4Xk.t.0.( V f >   n y.j.7Xj.! D.G.G.K.Y.E.G.m.L.",
"K.K.L.G.m.H.Y.E.L.m.G.F.OX$X*.] r.5.( e.u.k.4X4X3X3X4Xj.0.( f h f > X _ 4X9X6Xi.Q @XU.G.H.L.U.G.m.L.",
"G.G.L.J.n.G.U.E.L.n.H.I.K.P.$...u.7.f ~ r.a.1X4X3X4X1Xi.( a 3.5.( > m i.7X6Xz.) T >XU.m.L.H.Y.G.m.G.",
"G.H.G.m.B.H.K.E.P.m.L.L.G.L.@.[ t.0._ a C | 9.f.g.p.9.~ w a 0.t.( : o.1X4X4Xg.e A ,XI.G.U.U.U.U.U.G.",
"m.m.G.m.B.G.G.Y.Y.G.G.I.L.L.@.[ p.a.8.f w r y n ^ n e e a 3.r.t.) > P i.1X1X8.4 >.].L.M.G.L.G.H.Q.M.",
"m.M.M.m.I.M.G.Y.P.K.G.E.E.L. XR i.1Xi.` f 4 W <.;.-.W t ~ r.t.5.g ; X m 8.9.P $.[.P.L.m.m.I.m.L./.n.",
"B.H.G.B.M.H.K.Y.L.L.K._._.R.>.t 9.3X1Xr.) 9 >X}./.Y.#Xz ( r.t.V q @ 2 A W W +.W.P.(.P.M.G.E.G.L.E.J.",
"Y.Y.I.Y.m.I.M.L.P.K.G.R.(.E..XL 4.4X2Xy.8.x F.P.Y.L.%Xz V 7.5.t O o 5 >.W.W.J.G.R.(._.G.I.R.P.R.L.Y.",
"U.K.K.U.G.G.G.L.Y.K.M.P.P.L.!.>.R 2X2Xr.C 9 Z.G.L.L.,Xx f ( V e O o ; >.H.H.H.G.P.P.Y.G.G._.R.R.P.K.",
"m.G.L.U.L.m.G.L._.G.K.L.P.K.P.&X5 4.j.0.f 8 Z.G.K.L.;Xz V 7.7.V q o , +.G.J.G.H.K.Y.U.M.K._.`.(.E.M.",
"G.G.H.U.U.m.G.U.E.L.P.G.P.G.P.=X@ a ` ( B z Z.J.G.E.@Xz V r.i.r.( q ; @.G.J.G.U.G.!.L.K.K._.).(.L.M.",
"U.G.G.U.U.G.L.L.E.Y.L.M.K.K.=XL q f 4.5.4.x A.H.G.P.OXz ( k.5X5Xp.l 3 .XL.J.H.K.G.Y.I.T.P.T.P.R.K.G.",
"E.K.G.K.G.J.L.L.L.E.G.m.I.oXJ $ d 0.g.j.t.Y C.J.K.L.OX8 d g.7X7X4.5 O.,XU.I.!.J.G.I.G.Y.P.P.P.P.G.G.",
"Y.U.v.G.J.J.L.G.G.E.G.J.W.-.@ & ` k.4X3Xu.S C.H.J.I.I.$.8 { 2.2.x D Z.Y.H.B.!.m.G.G.G.Y.P.L.P.M.H.J.",
"K.P.G.G.G.H.L.G.G.U.L.J.I.-.: i 9.5X6X1X6.c A.G.M.G.G.W.|.+.+. X XW.I.I.M.M.U.M.K.G.G.!.L.K.K.K.H.G.",
"K.U.G.m.H.W.L.J.m.J.I.G.I.-.t g s.wX0Xg.^ 7 #XJ.m.H.G.L.G.G.J.L.P.K.L.J.M.M.G.H.M.H.U.U.K.K.m.I.G.G.",
"G.H.M.m.B.J.U.m.m.n.G.H.W.XXL C s.5Xx.5.d 0 $XJ.n.M.m.G.J.J.L.K.G.J.J.m.n.m.M.J.M.H.G.L.K.M.m.M.G.U.",
"m.v.v.v.N.n.Q.H.v.m.v.H.H.G.&XS n e.6.b > U >Xm.N.c.c.N.c.c.J.H.J.m.v.m.N.v.m.m.H.N.N.J.H.m.v.v.M.Y.",
"B.c.J.v.b.N.H.H.c.c.n.J.M.v.v.+.1 1 2 2 0 .XH.v.B.c.b.c.b.b.J.H.c.J.m.b.N.c.c.J.H.c.c.c.J.v.b.c.n.H."
};
