/* XPM */
static char *result[] = {
/* columns rows colors chars-per-pixel */
"50 50 203 2 ",
"   c #5C2C09",
".  c #6F3B0C",
"X  c #6A340A",
"o  c #733D0B",
"O  c #653612",
"+  c #6A3E18",
"@  c #76410C",
"#  c #7C450C",
"$  c #7D480E",
"%  c #6E421D",
"&  c #734215",
"*  c #7D4B14",
"=  c #73451B",
"-  c #7C4A1C",
";  c #794513",
":  c #7C4E24",
">  c #754A23",
",  c #7C5125",
"<  c #834B0E",
"1  c #80470C",
"2  c #8A530F",
"3  c #92540E",
"4  c #95580F",
"5  c #844D13",
"6  c #834F1C",
"7  c #855113",
"8  c #8B5514",
"9  c #8D5A15",
"0  c #84531A",
"q  c #89561B",
"w  c #8D5B1B",
"e  c #925513",
"r  c #925C15",
"t  c #9A5B12",
"y  c #925E1A",
"u  c #8F601D",
"i  c #936116",
"p  c #9B6216",
"a  c #94621C",
"s  c #9A651D",
"d  c #97681F",
"f  c #9B691E",
"g  c #A46B1E",
"h  c #A86E1E",
"j  c #A8701F",
"k  c #855524",
"l  c #8A5521",
"z  c #875A25",
"x  c #8B5C23",
"c  c #835529",
"v  c #87582B",
"b  c #915E23",
"n  c #865D32",
"m  c #895D36",
"M  c #8E622A",
"N  c #946423",
"B  c #9B6623",
"V  c #966924",
"C  c #9B6A23",
"Z  c #94642B",
"A  c #98662B",
"S  c #956A2B",
"D  c #9B6C2B",
"F  c #9E712D",
"G  c #8E6335",
"H  c #936533",
"J  c #996732",
"K  c #9B6B33",
"L  c #966B3D",
"P  c #9B6D3A",
"I  c #936B3A",
"U  c #9D7233",
"Y  c #9C713A",
"T  c #A46C22",
"R  c #A06D29",
"E  c #A97224",
"W  c #A4742D",
"Q  c #A8732A",
"!  c #A16E37",
"~  c #A47432",
"^  c #A87633",
"/  c #A57935",
"(  c #AB7B35",
")  c #A3753A",
"_  c #A9763D",
"`  c #A67D3C",
"'  c #AA7D3C",
"]  c #B27D3D",
"[  c #B07B34",
"{  c #956B41",
"}  c #9D7444",
"|  c #9F7648",
" . c #A67744",
".. c #A37A42",
"X. c #AB7B42",
"o. c #A67A4B",
"O. c #B17F45",
"+. c #AD8137",
"@. c #AC813C",
"#. c #B28237",
"$. c #B4843C",
"%. c #BB833D",
"&. c #BB883E",
"*. c #C0893C",
"=. c #AD8242",
"-. c #AC824B",
";. c #B28544",
":. c #BB8642",
">. c #B48946",
",. c #BB8B44",
"<. c #B4854B",
"1. c #B48B4B",
"2. c #BB8C4B",
"3. c #BE9147",
"4. c #BD914C",
"5. c #AC8352",
"6. c #AE8559",
"7. c #B08651",
"8. c #B58B53",
"9. c #BA8D52",
"0. c #B68C58",
"q. c #BA8F5A",
"w. c #BC9354",
"e. c #BC935B",
"r. c #BA9458",
"t. c #B48D63",
"y. c #BC9668",
"u. c #C38D43",
"i. c #C08E4B",
"p. c #C2924C",
"a. c #CA964C",
"s. c #C8984E",
"d. c #C39553",
"f. c #C59A56",
"g. c #CC9C55",
"h. c #C2965A",
"j. c #C59B5B",
"k. c #CA9D5B",
"l. c #D29F53",
"z. c #D09C5B",
"x. c #D7A14D",
"c. c #CFA157",
"v. c #CCA15C",
"b. c #D4A255",
"n. c #DAA553",
"m. c #D3A45C",
"M. c #D9A65C",
"N. c #DDAA5C",
"B. c #E2AC53",
"V. c #E3AE5A",
"C. c #E5B25E",
"Z. c #C39661",
"A. c #C49B62",
"S. c #C99E62",
"D. c #C79E68",
"F. c #CA9F6B",
"G. c #CCA363",
"H. c #CEA569",
"J. c #D2A663",
"K. c #D4A965",
"L. c #DBAC64",
"P. c #D1A669",
"I. c #D4AB6B",
"U. c #DAAE6B",
"Y. c #DDB16D",
"T. c #DEB062",
"R. c #CEAA7D",
"E. c #D1A673",
"W. c #D6AE71",
"Q. c #D9AF71",
"!. c #D6AD79",
"~. c #DCB373",
"^. c #DDB579",
"/. c #D7B07C",
"(. c #E4B366",
"). c #E4B56C",
"_. c #E7B86F",
"`. c #EAB96D",
"'. c #E8B76C",
"]. c #E1B674",
"[. c #E5BA75",
"{. c #EABC74",
"}. c #E2B779",
"|. c #E4BB7B",
" X c #E9BE7B",
".X c #EDC077",
"XX c #ECC17D",
"oX c #F0C47E",
"OX c #DFB880",
"+X c #D9B380",
"@X c #E6BE82",
"#X c #E8BF80",
"$X c #E1BA88",
"%X c #E7C083",
"&X c #EBC383",
"*X c #EDC58B",
"=X c #EFC88C",
"-X c #F1C683",
";X c #F4C986",
":X c #F3CA8B",
">X c #F0C789",
",X c #F4CE92",
"<X c #F7D297",
/* pixels */
"j.k.j.k.k.k.j.v.k.g.f.f.j.k.k.j.S.G.G.G.G.G.A.j.G.G.G.S.S.S.S.A.j.A.j.j.j.e.G G y.P.G.G.v.g.j.j.f.g.",
"/ ` ` ' @.@.` @.` ` @.@.@.` ' ' ` X.` @.=.=.@.=.=...` ` ` ` / / W ~ W U U Z + : <.1.=.@...@.@.X.@.@.",
"9 i a y y y N a b w w w 9 e 9 r y w w w w w w * * N N B s a y 8 2 2 7 7 < o   + S N w w w w w w q q ",
"Q ^ ( ( _ ' ( ( ~ ~ ~ ~ W ~ ! ( ( ] ' ] ] ` / S - Y 8.h.2.:.;._ ) P U Y K J H P P K H H A Z Z N N b ",
"B.V.C.C.(.`.`.{.[.{.[.[.[.[.{.{.[.XXXX%X*X%X%XW.7.8./.<X,X=X*X&X%X|.|.|.|.|.^.|.}.|.~.~.~.Y.U.I.U.I.",
"B.C.(.).'.[.[.[.^.XXXX|.[.[.[.[.[. XXXXX|.%X|.~.8.5.R.<X:X@X@X X|.|.|.|.}.^.|.^.^.|.^.^.^.].~.[.^.~.",
"c.c.v.G.G.I.I.I.I.I.K.G.m.J.v.k.k.v.v.v.G.v.v.r.I G t.OX/.I.P.G.G.G.v.G.G.G.G.G.G.G.G.G.G.H.H.H.P.H.",
">.,.1.4.4.4.1.1.1.w.1.;.;.;.+./ W W W ( / @.Y U , % L G.h.>.;.=.Y @.=.@.@.` =.=.=.=.=.-.=.-.@.=.=.=.",
"f C C C C C C B B C D B C f s p r 9 e 8 2 8 8 2 $ # c ' D i y r u u 9 i 9 9 w i i 9 9 9 w w w w i y ",
"3.,.2.i.p.,.2.2.2.2.w.p.p.p.i.,.,.,.:.;.;.;.=.;.,.,.2.4.2.,.,.2.>.-.=.=.=.=.;.;.;.] ` / / S z H =.X.",
"`.{.{.{.'.[.'.{.{._.{.&XXXXX X{.{.{. X.XXXXXXXXXXXXX.X.X.X XXX XXXXXXX.X X X X X X|.[.[.).d.o.e. X{.",
"'.).'.).Y.T.T.Y.(.(.'.[.[.[.[. XXXXX XXX%XXX%XXXXX%XXXXX X*X X%XXX[..X^.].|.[.|.[.].}.].].h.-.0. X*X",
"N.L.L.L.m.c.c.c.g.l.b.b.J.K.L.Y.W.W.~.Y.Q.~.~.W.W.Y.Y.I.I.I.I.K.K.J.G.K.J.K.K.v.G.v.v.K.H.>.I } Q.].",
"p.3.3.u.,.3.,.,.,.$.$.&.&.3.3.w.r.v.w.w.4.4.4.4.3.4.4.,.,.>.,.,.1.1.4.1.1.1.>.>.;.$.$.;.&.Y G n e.g.",
"a a s p s f V D D D D F F W F F U W F F C D V d V V B D D S S F K K S F F S V S S V N u u 0 > , 7.,.",
"< < 7 7 8 i i r r i r i a i i N a i a i y a i u a a x w N N w u w u u w 0 , 0 , w q * 0 * = O % H Z ",
"d.g.k.v.v.J.m.m.m.b.k.m.k.g.g.f.p.u.s.s.g.S.J.P.K.K.I.P.P.G.G.S.A.k.A.A.A.Z.A.y.y.7.| 7.8.7.8.7.8.8.",
"{.XX{.XX-X-XXX.X{. XXXXXXX&X.X{.{.{.{..X XXX&X&X&X&X%X X X X|.{.|. X XXX&X&X&X%X%XP.7.G.%XXX|.XX X X",
").).].[.|.[.].[.[.].].^.].].~.~.Q.Q.U.W.~.~.~.Y.~.~.U.Y.Q.Q.U.I.I.I.W.I.W.Q.Q.Q.W.r.| 0.^.Y.U.U.U.U.",
"v.k.v.v.G.J.H.K.H.P.G.G.G.S.G.A.G.v.j.j.j.j.j.j.j.e.j.e.w.w.h.w.0.w.w.w.0.r.r.r.r.-.G } v.h.h.j.f.j.",
"' ( [ [ #.#.$.%.&.>.&.$.$.$.$.$.@.` ' ( +.+.] ( ( / Q W W W R D D D R D D C D D F w & v 1.@.[ ] #.@.",
"t 2 3 4 t t p g h h h h E E E E E f g s s B y r r 9 r 3 8 2 7 7 5 1 1 1 # # # $ $ @ X - R s s s s a ",
"*.*.&.u.s.l.b.b.b.n.M.M.N.L.T.T.L.Y.J.2.2.S.P.A.j.h.e.9.d.9.9.9.2.;.<.<.1.8.9.0.1.r.0.e.A.h.h.j.k.G.",
"B.n.n.V.(.`.[..XXX.X.X.XXXoX-XoX-XXX[.v.h.$X<X:X:X>X>X#X X#X{.{.~.[.[.]. X X%X%X%X&X%X%X%X*X>X>X:X:X",
"b.x.b.b.M.M.Y.Y.Y.).~.~.[.].].^.].}.U.9.0.E.*X X|.^.~.^.~.~.Y.Y.I.~.~.W.~.Q.~.^.^.^.W.^.^.^.^.^.%X*X",
"u.2.u.,.3.4.4.p.f.j.j.v.v.v.G.H.H.k.d.P | Z.~.G.j.j.v.w.4.4.4.1.4.4.w.w.w.r.w.r.r.e.r.r.r.v.G.v.G.H.",
"C T C C d B f d B C D F D F F U U K l + n 5.9./ ~ U D C C V V u w N a i a S V S F S S S S U F Y Y / ",
"T C d i r 8 8 8 8 e 9 8 7 * $ # @ @ . . - H x 9 q w q w 9 w 0 0 5 5 * * 7 7 q q w w q w u M x z S V ",
"U.].].U.L.K.J.G.v.v.g.s.s.2.,.$.] ] ] %.,.4.w.j.v.H.P.P.H.H.H.G.G.A.G.A.G.G.G.G.H.H.H.P.I.H.-.5.W.^.",
"-X;X;X;X&X X X{.{.`.`.).`.'.'.).`._.{.{..X.X&X-X-X&X&X-XXXXX X X.XXX X X|.XXXXXX%X|.XX[.[.H.o.6.@X*X",
"oXoX&X&X X X{.[.[.).).~.].).[.[.[.{.].|.|.XXXXXX|.[.].~.Y.Y.Y.I.T.W.W.Q.W.~.^.~.W.Y.U.K.U.1.{ 5./.}.",
"U.U.U.I.I.K.J.J.v.m.m.J.J.K.I.K.J.J.H.H.K.H.G.G.H.G.G.c.v.v.v.v.v.c.j.v.v.v.v.v.v.c.w.w.w.Y m 5.!.I.",
"3.4.4.2.,.>.>.;.;.$.;.;.>.,.1.>.1.1.1.1.>.;.1.-.1.1.;.=.+.+.+.+.+.@.@.$.@.@.@.@.@.=.+.+.Y M , } j.1.",
"f f d s a a a s a d s d d d d d V V C d u i a a i a a i 9 i i i a i a d i u u i i u i 2 * @ O > ! b ",
"~ J A V b Z Z Z S S Z S A A Z Z A A Z Z Z M N Z Z Z Z N Z Z M Z Z M Z M M M q M , , M M , , , , x l ",
"*X#X X|.|.|.|.[.].^.^.~.~.].Y.Y.Y.).Y.U.Y.Y.U.U.~.~.].~.^. X}.|.|.^.|.|.|.^.^.^.^.~.~.~.~.~.Y.W.Q.Q.",
".X X{.[.|.[.[.[._.Y.Y.~.Y.Y.L.M.m.M.K.m.m.m.b.J.K.L.U.).].].}.|.XXXX|.XX|.|.XXXX|.|.|.|..X.X^..X{.|.",
"K.m.v.g.g.g.v.k.j.j.j.d.j.w.4.,.,.:.,.,.&.:.:.,.i.4.f.f.j.v.v.G.G.G.G.v.G.H.H.G.G.G.J.G.v.K.v.G.K.P.",
"3.,.%.#.$.+.+.#.@.+.( ` ` ( ~ W R W R C C C C C F W ~ / / ` ` @.` @.@.@.@.@.@.@.@.;.=.;.@.;.>.$.>.2.",
"E E T T h h h g g T g g s r e 8 4 8 e 8 8 < < < < < < 7 7 q 8 q w 0 q 0 , * = * 9 r r r i r u i r r ",
"z.z.z.z.z.g.a.g.p.u.u.u.u.u.:.:.:.2.2.<.<.<.O.X._ _ _  .X.O.-.7.<.8.0.8.0.6.I G  .8.<.O. .X. .X.X. .",
"-X;X:X;X;X;X;X-XXX{.{.`.`.`.{.{.{.{. X#X-X-X*X X{.{._.[.[. XXX&X&X&X*X*X*X#Xt.8.F.*X:X#X#X X X#X%X%X",
"{.{.{. X{. X X[. X{._.).(.].{.{.[. X|. X#X|.|.|.}.[.}.[.[.].^.|.|.}.[.}.|./.6.-.E.@X@X@X|.[.{.[.]. X",
"P.P.P.K.K.K.J.P.m.m.z.J.b.m.P.K.I.P.P.I.I.I.P.P.P.J.P.P.P.P.P.P.P.H.H.G.H.A.{ Y F.^.Q.P.J.J.J.J.G.G.",
";.O.>.;.1.>.>.1.>.<.2.,.>.>.<.;.1.<.1.1.1.1.1.1.<.>.1.<.<.=.=.=.@.' ` X.X.Y > c 0.e.1.<.:.<.>.>.;.>.",
"y B N B V V C V N N y b N y a N a N N a M N N x x N S A V N a i r 8 8 9 5 o   = Y D Z B A B N N N N ",
"y s C B B D C B N b y b y y a a B B B D D B b 0 & Z ' X./ W F S b b x l l 6 - k Z z q q q 0 6 6 7 7 ",
"x.n.N.V.N.(.T.L.).U.Y.L.T.L.U.U.Y.].}.[.}.].~.G...8.!.:X%XXX[.^.Q.].Q.Q.Q.I.U.Q.I.I.P.P.P.m.k.k.k.v.",
"B.V.'.'.'.'.{.XXXXXXXXXX|.XXXXXXXXXX&X&X>X&X%X^.0.8.+X<X,X=X*X%X#X#X@X#X X@X@X@X|.@X|.|.|.}.^.].|.^.",
"b.M.K.K.L.L.Y.W.Q.~.Q.I.I.K.I.J.K.K.K.I.I.I.I.A.@.I y.*X%X/.W.W.I.W.W.I.P.P.P.P.E.W.H.I.H.I.I.W.W.I."
};
